<?xml version="1.0" encoding="utf-8"?>
<!-- Generator: Adobe Illustrator 16.0.3, SVG Export Plug-In . SVG Version: 6.00 Build 0)  -->
<!DOCTYPE svg PUBLIC "-//W3C//DTD SVG 1.1//EN" "http://www.w3.org/Graphics/SVG/1.1/DTD/svg11.dtd">
<svg version="1.1" id="Layer_2" xmlns="http://www.w3.org/2000/svg" xmlns:xlink="http://www.w3.org/1999/xlink" x="0px" y="0px"
	 width="479.605px" height="591.005px" viewBox="0 0 479.605 591.005" enable-background="new 0 0 479.605 591.005"
	 xml:space="preserve">
<path fill="#97E4FF" stroke="#000000" stroke-width="4" stroke-miterlimit="10" d="M198.105,2H59.193l0.105,95.458l-57.246,55.44
	L2,530.967l57.772,57.898l360.062,0.14l57.771-57.751l-0.053-377.778l-57.246-56.018L420.412,2h-78.307"/>
<path fill="#9889DB" d="M479.105,531"/>
<line fill="none" stroke="#000000" stroke-width="4" stroke-miterlimit="10" x1="2.053" y1="152.898" x2="196.105" y2="152.699"/>
<line fill="none" stroke="#000000" stroke-width="4" stroke-miterlimit="10" x1="196.105" y1="2" x2="196.105" y2="237"/>
<line fill="none" stroke="#000000" stroke-width="4" stroke-miterlimit="10" x1="2.105" y1="292" x2="197.105" y2="292"/>
<line fill="none" stroke="#000000" stroke-width="4" stroke-miterlimit="10" x1="477.105" y1="342" x2="293.105" y2="342"/>
<polyline fill="none" stroke="#000000" stroke-width="4" stroke-miterlimit="10" points="197.605,590.383 197.105,342 232.105,342 
	"/>
<line fill="none" stroke="#000000" stroke-width="4" stroke-miterlimit="10" x1="420.105" y1="98" x2="273.105" y2="98"/>
<polyline fill="none" stroke="#000000" stroke-width="4" stroke-miterlimit="10" points="389.105,97 389.105,212 477.105,212 "/>
<polyline fill="none" stroke="#000000" stroke-width="4" stroke-miterlimit="10" points="292.855,98.035 293.018,154 390.105,154 
	"/>
<rect x="44.105" y="194" fill="#472F91" width="111" height="57"/>
<rect x="273.105" y="39" fill="#472F91" width="111" height="57"/>
<rect x="328.105" y="344" fill="#472F91" width="111" height="57"/>
<rect x="199.105" y="380" fill="#472F91" width="57" height="111"/>
<rect x="200.105" y="530" fill="#472F91" width="111" height="57"/>
<rect x="386.691" y="510.174" transform="matrix(-0.7118 0.7024 -0.7024 -0.7118 1108.062 622.6998)" fill="#472F91" width="79.18" height="57.001"/>
<rect x="4.105" y="294" fill="#472F91" width="111" height="57"/>
<rect x="13.691" y="509.175" transform="matrix(0.7135 0.7007 -0.7007 0.7135 392.017 116.7344)" fill="#472F91" width="79.18" height="57"/>
<g>
	<path d="M103.252,70.197h-3.691v-1.333h8.985v1.333h-3.709V81h-1.585V70.197z"/>
	<path d="M116.448,76.571c0,3.223-2.232,4.627-4.339,4.627c-2.358,0-4.177-1.729-4.177-4.483c0-2.917,1.909-4.627,4.321-4.627
		C114.755,72.087,116.448,73.906,116.448,76.571z M109.534,76.661c0,1.909,1.098,3.349,2.647,3.349c1.512,0,2.646-1.422,2.646-3.385
		c0-1.476-0.738-3.349-2.61-3.349C110.344,73.276,109.534,75.004,109.534,76.661z"/>
	<path d="M120.208,69.837c0.018,0.54-0.378,0.972-1.008,0.972c-0.558,0-0.955-0.432-0.955-0.972c0-0.559,0.414-0.991,0.99-0.991
		C119.83,68.846,120.208,69.278,120.208,69.837z M118.443,81v-8.715h1.584V81H118.443z"/>
	<path d="M122.655,68.216h1.584V81h-1.584V68.216z"/>
	<path d="M127.786,76.931c0.036,2.143,1.404,3.025,2.989,3.025c1.134,0,1.818-0.198,2.413-0.45l0.27,1.134
		c-0.558,0.252-1.512,0.541-2.898,0.541c-2.683,0-4.286-1.765-4.286-4.394c0-2.628,1.548-4.699,4.087-4.699
		c2.845,0,3.601,2.502,3.601,4.105c0,0.324-0.036,0.576-0.054,0.738H127.786z M132.431,75.796c0.018-1.008-0.414-2.575-2.196-2.575
		c-1.603,0-2.305,1.477-2.431,2.575H132.431z"/>
	<path d="M137.83,69.783v2.502h2.269v1.207h-2.269v4.7c0,1.08,0.306,1.692,1.188,1.692c0.415,0,0.72-0.054,0.918-0.108l0.072,1.188
		c-0.306,0.126-0.792,0.216-1.405,0.216c-0.738,0-1.333-0.234-1.71-0.667c-0.45-0.468-0.612-1.242-0.612-2.269v-4.753h-1.35v-1.207
		h1.35v-2.088L137.83,69.783z"/>
	<path d="M141.663,79.379c0.468,0.306,1.296,0.63,2.089,0.63c1.152,0,1.692-0.576,1.692-1.296c0-0.756-0.45-1.17-1.621-1.603
		c-1.566-0.558-2.305-1.422-2.305-2.467c0-1.404,1.134-2.557,3.007-2.557c0.882,0,1.656,0.252,2.143,0.54l-0.396,1.152
		c-0.342-0.216-0.972-0.504-1.782-0.504c-0.937,0-1.458,0.54-1.458,1.188c0,0.72,0.522,1.044,1.656,1.477
		c1.513,0.576,2.287,1.333,2.287,2.629c0,1.53-1.188,2.611-3.259,2.611c-0.954,0-1.836-0.234-2.449-0.594L141.663,79.379z"/>
</g>
<g>
	<path fill="#FFFFFF" d="M295.633,64.5V53.047h8.281v1.352h-6.766v3.508h6.336v1.344h-6.336v3.898h7.031V64.5H295.633z"/>
	<path fill="#FFFFFF" d="M306.094,64.5v-8.297h1.258v1.164c0.261-0.406,0.606-0.733,1.039-0.98c0.433-0.247,0.925-0.371,1.477-0.371
		c0.614,0,1.118,0.128,1.512,0.383c0.394,0.255,0.671,0.612,0.832,1.07c0.656-0.969,1.511-1.453,2.563-1.453
		c0.823,0,1.456,0.228,1.898,0.684c0.442,0.456,0.664,1.158,0.664,2.105V64.5h-1.398v-5.227c0-0.563-0.046-0.967-0.137-1.215
		c-0.091-0.247-0.257-0.446-0.496-0.598c-0.239-0.151-0.521-0.227-0.844-0.227c-0.583,0-1.067,0.194-1.453,0.582
		c-0.386,0.388-0.578,1.009-0.578,1.863v4.82h-1.406v-5.391c0-0.625-0.114-1.094-0.344-1.406s-0.604-0.469-1.125-0.469
		c-0.396,0-0.762,0.104-1.098,0.313c-0.336,0.208-0.579,0.513-0.73,0.914c-0.151,0.401-0.227,0.979-0.227,1.734V64.5H306.094z"/>
	<path fill="#FFFFFF" d="M325.102,61.828l1.453,0.18c-0.229,0.849-0.653,1.508-1.273,1.977s-1.411,0.703-2.375,0.703
		c-1.214,0-2.176-0.374-2.887-1.121c-0.711-0.747-1.066-1.795-1.066-3.145c0-1.396,0.359-2.479,1.078-3.25
		c0.719-0.771,1.651-1.156,2.797-1.156c1.109,0,2.016,0.378,2.719,1.133c0.703,0.755,1.055,1.818,1.055,3.188
		c0,0.083-0.003,0.208-0.008,0.375h-6.188c0.052,0.912,0.31,1.609,0.773,2.094s1.042,0.727,1.734,0.727
		c0.516,0,0.956-0.135,1.32-0.406C324.599,62.854,324.888,62.422,325.102,61.828z M320.484,59.555h4.633
		c-0.063-0.698-0.239-1.221-0.531-1.57c-0.448-0.542-1.028-0.813-1.742-0.813c-0.646,0-1.188,0.216-1.629,0.648
		C320.774,58.253,320.531,58.831,320.484,59.555z"/>
	<path fill="#FFFFFF" d="M328.305,64.5v-8.297h1.266v1.258c0.323-0.588,0.621-0.977,0.895-1.164s0.574-0.281,0.902-0.281
		c0.474,0,0.956,0.151,1.445,0.453l-0.484,1.305c-0.344-0.203-0.688-0.305-1.031-0.305c-0.308,0-0.583,0.093-0.828,0.277
		c-0.245,0.185-0.419,0.441-0.523,0.77c-0.156,0.5-0.234,1.047-0.234,1.641V64.5H328.305z"/>
	<path fill="#FFFFFF" d="M333.391,65.188l1.367,0.203c0.058,0.422,0.216,0.729,0.477,0.922c0.349,0.26,0.825,0.391,1.43,0.391
		c0.651,0,1.153-0.13,1.508-0.391c0.354-0.261,0.594-0.625,0.719-1.094c0.073-0.287,0.106-0.888,0.102-1.805
		c-0.614,0.724-1.38,1.086-2.297,1.086c-1.141,0-2.023-0.411-2.648-1.234c-0.625-0.823-0.938-1.81-0.938-2.961
		c0-0.792,0.144-1.522,0.43-2.191c0.286-0.669,0.702-1.186,1.246-1.551c0.544-0.364,1.184-0.547,1.918-0.547
		c0.979,0,1.786,0.396,2.422,1.188v-1h1.297v7.172c0,1.292-0.132,2.207-0.395,2.746s-0.68,0.965-1.25,1.277
		s-1.272,0.469-2.105,0.469c-0.989,0-1.789-0.223-2.398-0.668S333.37,66.083,333.391,65.188z M334.555,60.203
		c0,1.089,0.216,1.883,0.648,2.383s0.974,0.75,1.625,0.75c0.646,0,1.188-0.249,1.625-0.746c0.438-0.497,0.656-1.277,0.656-2.34
		c0-1.016-0.226-1.781-0.676-2.297s-0.993-0.773-1.629-0.773c-0.625,0-1.156,0.254-1.594,0.762S334.555,59.203,334.555,60.203z"/>
	<path fill="#FFFFFF" d="M342.555,54.664v-1.617h1.406v1.617H342.555z M342.555,64.5v-8.297h1.406V64.5H342.555z"/>
	<path fill="#FFFFFF" d="M346.102,64.5v-8.297h1.266v1.18c0.609-0.911,1.489-1.367,2.641-1.367c0.5,0,0.96,0.09,1.379,0.27
		s0.733,0.416,0.941,0.707c0.208,0.292,0.354,0.638,0.438,1.039c0.052,0.261,0.078,0.716,0.078,1.367V64.5h-1.406v-5.047
		c0-0.573-0.055-1.001-0.164-1.285c-0.109-0.284-0.304-0.51-0.582-0.68c-0.278-0.169-0.605-0.254-0.98-0.254
		c-0.599,0-1.116,0.19-1.551,0.57c-0.435,0.38-0.652,1.102-0.652,2.164V64.5H346.102z"/>
	<path fill="#FFFFFF" d="M354.742,65.188l1.367,0.203c0.058,0.422,0.216,0.729,0.477,0.922c0.349,0.26,0.825,0.391,1.43,0.391
		c0.651,0,1.153-0.13,1.508-0.391c0.354-0.261,0.594-0.625,0.719-1.094c0.073-0.287,0.106-0.888,0.102-1.805
		c-0.614,0.724-1.38,1.086-2.297,1.086c-1.141,0-2.023-0.411-2.648-1.234c-0.625-0.823-0.938-1.81-0.938-2.961
		c0-0.792,0.144-1.522,0.43-2.191c0.286-0.669,0.702-1.186,1.246-1.551c0.544-0.364,1.184-0.547,1.918-0.547
		c0.979,0,1.786,0.396,2.422,1.188v-1h1.297v7.172c0,1.292-0.132,2.207-0.395,2.746s-0.68,0.965-1.25,1.277
		s-1.272,0.469-2.105,0.469c-0.989,0-1.789-0.223-2.398-0.668S354.722,66.083,354.742,65.188z M355.906,60.203
		c0,1.089,0.216,1.883,0.648,2.383s0.974,0.75,1.625,0.75c0.646,0,1.188-0.249,1.625-0.746c0.438-0.497,0.656-1.277,0.656-2.34
		c0-1.016-0.226-1.781-0.676-2.297s-0.993-0.773-1.629-0.773c-0.625,0-1.156,0.254-1.594,0.762S355.906,59.203,355.906,60.203z"/>
	<path fill="#FFFFFF" d="M308.152,83.7V73.599h-3.773v-1.352h9.078v1.352h-3.789V83.7H308.152z"/>
	<path fill="#FFFFFF" d="M314.223,83.7v-8.297h1.266v1.258c0.323-0.588,0.621-0.977,0.895-1.164s0.574-0.281,0.902-0.281
		c0.474,0,0.956,0.151,1.445,0.453l-0.484,1.305c-0.344-0.203-0.688-0.305-1.031-0.305c-0.308,0-0.583,0.093-0.828,0.277
		c-0.245,0.185-0.419,0.441-0.523,0.77c-0.156,0.5-0.234,1.047-0.234,1.641V83.7H314.223z"/>
	<path fill="#FFFFFF" d="M325.246,81.028l1.453,0.18c-0.229,0.849-0.653,1.508-1.273,1.977s-1.411,0.703-2.375,0.703
		c-1.214,0-2.176-0.374-2.887-1.121c-0.711-0.747-1.066-1.795-1.066-3.145c0-1.396,0.359-2.479,1.078-3.25
		c0.719-0.771,1.651-1.156,2.797-1.156c1.109,0,2.016,0.378,2.719,1.133c0.703,0.755,1.055,1.818,1.055,3.188
		c0,0.083-0.003,0.208-0.008,0.375h-6.188c0.052,0.912,0.31,1.609,0.773,2.094s1.042,0.727,1.734,0.727
		c0.516,0,0.956-0.135,1.32-0.406C324.743,82.055,325.032,81.622,325.246,81.028z M320.629,78.755h4.633
		c-0.063-0.698-0.239-1.221-0.531-1.57c-0.448-0.542-1.028-0.813-1.742-0.813c-0.646,0-1.188,0.216-1.629,0.648
		C320.919,77.453,320.676,78.031,320.629,78.755z"/>
	<path fill="#FFFFFF" d="M328.465,83.7v-8.297h1.266v1.18c0.609-0.911,1.489-1.367,2.641-1.367c0.5,0,0.96,0.09,1.379,0.27
		s0.733,0.416,0.941,0.707c0.208,0.292,0.354,0.638,0.438,1.039c0.052,0.261,0.078,0.716,0.078,1.367V83.7h-1.406v-5.047
		c0-0.573-0.055-1.001-0.164-1.285c-0.109-0.284-0.304-0.51-0.582-0.68c-0.278-0.169-0.605-0.254-0.98-0.254
		c-0.599,0-1.116,0.19-1.551,0.57c-0.435,0.38-0.652,1.102-0.652,2.164V83.7H328.465z"/>
	<path fill="#FFFFFF" d="M342.746,83.7v-1.047c-0.526,0.823-1.3,1.234-2.32,1.234c-0.661,0-1.27-0.183-1.824-0.547
		s-0.984-0.874-1.289-1.527c-0.305-0.653-0.457-1.405-0.457-2.254c0-0.828,0.138-1.579,0.414-2.254
		c0.276-0.674,0.69-1.191,1.242-1.551s1.169-0.539,1.852-0.539c0.5,0,0.945,0.105,1.336,0.316s0.708,0.486,0.953,0.824v-4.109h1.398
		V83.7H342.746z M338.301,79.56c0,1.063,0.224,1.857,0.672,2.383c0.448,0.526,0.977,0.789,1.586,0.789
		c0.614,0,1.137-0.251,1.566-0.754c0.43-0.502,0.645-1.27,0.645-2.301c0-1.135-0.219-1.969-0.656-2.5s-0.977-0.797-1.617-0.797
		c-0.625,0-1.147,0.255-1.566,0.766C338.511,77.656,338.301,78.461,338.301,79.56z"/>
	<path fill="#FFFFFF" d="M345.699,81.224l1.391-0.219c0.078,0.558,0.296,0.984,0.652,1.281s0.855,0.445,1.496,0.445
		c0.646,0,1.125-0.131,1.438-0.395c0.313-0.263,0.469-0.571,0.469-0.926c0-0.317-0.138-0.567-0.414-0.75
		c-0.192-0.125-0.672-0.284-1.438-0.477c-1.031-0.26-1.746-0.485-2.145-0.676c-0.398-0.19-0.7-0.453-0.906-0.789
		s-0.309-0.707-0.309-1.113c0-0.37,0.085-0.712,0.254-1.027c0.169-0.315,0.399-0.577,0.691-0.785
		c0.219-0.161,0.517-0.298,0.895-0.41c0.378-0.112,0.782-0.168,1.215-0.168c0.651,0,1.223,0.094,1.715,0.281s0.855,0.441,1.09,0.762
		s0.396,0.749,0.484,1.285l-1.375,0.188c-0.063-0.427-0.243-0.76-0.543-1c-0.3-0.239-0.723-0.359-1.27-0.359
		c-0.646,0-1.106,0.107-1.383,0.32c-0.276,0.214-0.414,0.464-0.414,0.75c0,0.183,0.058,0.347,0.172,0.492
		c0.114,0.151,0.294,0.276,0.539,0.375c0.141,0.052,0.555,0.172,1.242,0.359c0.995,0.266,1.688,0.483,2.082,0.652
		c0.394,0.169,0.702,0.416,0.926,0.738c0.224,0.323,0.336,0.724,0.336,1.203c0,0.469-0.137,0.91-0.41,1.324
		s-0.668,0.734-1.184,0.961s-1.099,0.34-1.75,0.34c-1.078,0-1.899-0.224-2.465-0.672C346.216,82.768,345.855,82.104,345.699,81.224z
		"/>
</g>
<g>
	<path fill="#FFFFFF" d="M83.908,216.945v-11.453h3.945c0.891,0,1.57,0.055,2.039,0.164c0.656,0.151,1.216,0.425,1.68,0.82
		c0.604,0.511,1.056,1.163,1.355,1.957c0.299,0.794,0.449,1.702,0.449,2.723c0,0.87-0.102,1.641-0.305,2.313
		s-0.464,1.228-0.781,1.668c-0.318,0.44-0.666,0.787-1.043,1.039c-0.378,0.253-0.833,0.444-1.367,0.574
		c-0.534,0.13-1.147,0.195-1.84,0.195H83.908z M85.424,215.593h2.445c0.755,0,1.348-0.07,1.777-0.211s0.772-0.338,1.027-0.594
		c0.359-0.359,0.639-0.842,0.84-1.449c0.2-0.606,0.301-1.342,0.301-2.207c0-1.198-0.197-2.118-0.59-2.762
		c-0.394-0.643-0.871-1.074-1.434-1.293c-0.406-0.156-1.06-0.234-1.961-0.234h-2.406V215.593z"/>
	<path fill="#FFFFFF" d="M100.697,215.921c-0.521,0.443-1.022,0.755-1.504,0.938c-0.482,0.182-0.999,0.273-1.551,0.273
		c-0.912,0-1.612-0.223-2.102-0.668c-0.49-0.445-0.734-1.014-0.734-1.707c0-0.406,0.092-0.777,0.277-1.113
		c0.185-0.336,0.427-0.605,0.727-0.809c0.299-0.203,0.637-0.356,1.012-0.461c0.276-0.073,0.692-0.143,1.25-0.211
		c1.135-0.135,1.971-0.297,2.508-0.484c0.005-0.192,0.008-0.315,0.008-0.367c0-0.573-0.133-0.977-0.398-1.211
		c-0.359-0.317-0.894-0.477-1.602-0.477c-0.662,0-1.15,0.116-1.465,0.348c-0.315,0.232-0.548,0.642-0.699,1.23l-1.375-0.188
		c0.125-0.588,0.331-1.063,0.617-1.426c0.286-0.362,0.7-0.641,1.242-0.836c0.542-0.195,1.169-0.293,1.883-0.293
		c0.708,0,1.284,0.083,1.727,0.25c0.442,0.167,0.768,0.376,0.977,0.629c0.208,0.253,0.354,0.572,0.438,0.957
		c0.047,0.24,0.07,0.672,0.07,1.297v1.875c0,1.308,0.03,2.134,0.09,2.48c0.06,0.347,0.178,0.679,0.355,0.996h-1.469
		C100.833,216.653,100.739,216.312,100.697,215.921z M100.58,212.781c-0.511,0.208-1.276,0.386-2.297,0.531
		c-0.578,0.083-0.987,0.177-1.227,0.281c-0.24,0.104-0.425,0.257-0.555,0.457c-0.13,0.201-0.195,0.423-0.195,0.668
		c0,0.375,0.142,0.688,0.426,0.938c0.284,0.25,0.699,0.375,1.246,0.375c0.542,0,1.023-0.118,1.445-0.355
		c0.422-0.237,0.731-0.561,0.93-0.973c0.151-0.317,0.227-0.786,0.227-1.406V212.781z"/>
	<path fill="#FFFFFF" d="M107.252,215.687l0.203,1.242c-0.396,0.083-0.75,0.125-1.063,0.125c-0.511,0-0.906-0.081-1.188-0.242
		s-0.479-0.374-0.594-0.637c-0.115-0.263-0.172-0.816-0.172-1.66v-4.773h-1.031v-1.094h1.031v-2.055l1.398-0.844v2.898h1.414v1.094
		h-1.414v4.852c0,0.401,0.024,0.659,0.074,0.773c0.049,0.115,0.13,0.206,0.242,0.273c0.112,0.068,0.272,0.102,0.48,0.102
		C106.791,215.742,106.997,215.724,107.252,215.687z"/>
	<path fill="#FFFFFF" d="M114.041,215.921c-0.521,0.443-1.022,0.755-1.504,0.938c-0.482,0.182-0.999,0.273-1.551,0.273
		c-0.912,0-1.612-0.223-2.102-0.668c-0.49-0.445-0.734-1.014-0.734-1.707c0-0.406,0.092-0.777,0.277-1.113
		c0.185-0.336,0.427-0.605,0.727-0.809c0.299-0.203,0.637-0.356,1.012-0.461c0.276-0.073,0.692-0.143,1.25-0.211
		c1.135-0.135,1.971-0.297,2.508-0.484c0.005-0.192,0.008-0.315,0.008-0.367c0-0.573-0.133-0.977-0.398-1.211
		c-0.359-0.317-0.894-0.477-1.602-0.477c-0.662,0-1.15,0.116-1.465,0.348c-0.315,0.232-0.548,0.642-0.699,1.23l-1.375-0.188
		c0.125-0.588,0.331-1.063,0.617-1.426c0.286-0.362,0.7-0.641,1.242-0.836c0.542-0.195,1.169-0.293,1.883-0.293
		c0.708,0,1.284,0.083,1.727,0.25c0.442,0.167,0.768,0.376,0.977,0.629c0.208,0.253,0.354,0.572,0.438,0.957
		c0.047,0.24,0.07,0.672,0.07,1.297v1.875c0,1.308,0.03,2.134,0.09,2.48c0.06,0.347,0.178,0.679,0.355,0.996h-1.469
		C114.176,216.653,114.083,216.312,114.041,215.921z M113.924,212.781c-0.511,0.208-1.276,0.386-2.297,0.531
		c-0.578,0.083-0.987,0.177-1.227,0.281c-0.24,0.104-0.425,0.257-0.555,0.457c-0.13,0.201-0.195,0.423-0.195,0.668
		c0,0.375,0.142,0.688,0.426,0.938c0.284,0.25,0.699,0.375,1.246,0.375c0.542,0,1.023-0.118,1.445-0.355
		c0.422-0.237,0.731-0.561,0.93-0.973c0.151-0.317,0.227-0.786,0.227-1.406V212.781z"/>
	<path fill="#FFFFFF" d="M59.311,236.145l-4.438-11.453h1.641l2.977,8.32c0.239,0.667,0.44,1.292,0.602,1.875
		c0.177-0.625,0.383-1.25,0.617-1.875l3.094-8.32h1.547l-4.484,11.453H59.311z"/>
	<path fill="#FFFFFF" d="M66.248,226.309v-1.617h1.406v1.617H66.248z M66.248,236.145v-8.297h1.406v8.297H66.248z"/>
	<path fill="#FFFFFF" d="M69.232,233.668l1.391-0.219c0.078,0.558,0.295,0.984,0.652,1.281c0.356,0.297,0.855,0.445,1.496,0.445
		c0.646,0,1.125-0.131,1.438-0.395c0.313-0.263,0.469-0.571,0.469-0.926c0-0.317-0.138-0.567-0.414-0.75
		c-0.193-0.125-0.672-0.284-1.438-0.477c-1.031-0.26-1.746-0.485-2.145-0.676c-0.398-0.19-0.701-0.453-0.906-0.789
		c-0.206-0.336-0.309-0.707-0.309-1.113c0-0.37,0.084-0.712,0.254-1.027c0.169-0.315,0.399-0.577,0.691-0.785
		c0.219-0.161,0.517-0.298,0.895-0.41c0.377-0.112,0.782-0.168,1.215-0.168c0.651,0,1.223,0.094,1.715,0.281s0.855,0.441,1.09,0.762
		s0.396,0.749,0.484,1.285l-1.375,0.188c-0.063-0.427-0.244-0.76-0.543-1c-0.3-0.239-0.723-0.359-1.27-0.359
		c-0.646,0-1.107,0.107-1.383,0.32c-0.276,0.214-0.414,0.464-0.414,0.75c0,0.183,0.057,0.347,0.172,0.492
		c0.114,0.151,0.294,0.276,0.539,0.375c0.141,0.052,0.555,0.172,1.242,0.359c0.995,0.266,1.688,0.483,2.082,0.652
		c0.393,0.169,0.702,0.416,0.926,0.738c0.224,0.323,0.336,0.724,0.336,1.203c0,0.469-0.137,0.91-0.41,1.324
		s-0.668,0.734-1.184,0.961s-1.099,0.34-1.75,0.34c-1.078,0-1.9-0.224-2.465-0.672C69.749,235.213,69.389,234.549,69.232,233.668z"
		/>
	<path fill="#FFFFFF" d="M83.232,236.145v-1.219c-0.646,0.938-1.523,1.406-2.633,1.406c-0.49,0-0.947-0.094-1.371-0.281
		c-0.425-0.188-0.74-0.423-0.945-0.707c-0.206-0.284-0.351-0.631-0.434-1.043c-0.058-0.276-0.086-0.713-0.086-1.313v-5.141h1.406
		v4.602c0,0.734,0.028,1.229,0.086,1.484c0.088,0.37,0.276,0.66,0.563,0.871c0.286,0.211,0.641,0.316,1.063,0.316
		s0.817-0.108,1.188-0.324c0.37-0.216,0.631-0.51,0.785-0.883c0.153-0.372,0.23-0.913,0.23-1.621v-4.445h1.406v8.297H83.232z"/>
	<path fill="#FFFFFF" d="M92.107,235.122c-0.521,0.443-1.022,0.755-1.504,0.938c-0.482,0.182-0.999,0.273-1.551,0.273
		c-0.912,0-1.612-0.223-2.102-0.668c-0.49-0.445-0.734-1.014-0.734-1.707c0-0.406,0.092-0.777,0.277-1.113
		c0.185-0.336,0.427-0.605,0.727-0.809c0.299-0.203,0.637-0.356,1.012-0.461c0.276-0.073,0.692-0.143,1.25-0.211
		c1.135-0.135,1.971-0.297,2.508-0.484c0.005-0.192,0.008-0.315,0.008-0.367c0-0.573-0.133-0.977-0.398-1.211
		c-0.359-0.317-0.894-0.477-1.602-0.477c-0.662,0-1.15,0.116-1.465,0.348c-0.315,0.232-0.548,0.642-0.699,1.23l-1.375-0.188
		c0.125-0.588,0.331-1.063,0.617-1.426c0.286-0.362,0.7-0.641,1.242-0.836c0.542-0.195,1.169-0.293,1.883-0.293
		c0.708,0,1.284,0.083,1.727,0.25c0.442,0.167,0.768,0.376,0.977,0.629c0.208,0.253,0.354,0.572,0.438,0.957
		c0.047,0.24,0.07,0.672,0.07,1.297v1.875c0,1.308,0.03,2.134,0.09,2.48c0.06,0.347,0.178,0.679,0.355,0.996h-1.469
		C92.243,235.854,92.149,235.512,92.107,235.122z M91.99,231.981c-0.511,0.208-1.276,0.386-2.297,0.531
		c-0.578,0.083-0.987,0.177-1.227,0.281c-0.24,0.104-0.425,0.257-0.555,0.457c-0.13,0.201-0.195,0.423-0.195,0.668
		c0,0.375,0.142,0.688,0.426,0.938c0.284,0.25,0.699,0.375,1.246,0.375c0.542,0,1.023-0.118,1.445-0.355
		c0.422-0.237,0.731-0.561,0.93-0.973c0.151-0.317,0.227-0.786,0.227-1.406V231.981z"/>
	<path fill="#FFFFFF" d="M95.561,236.145v-11.453h1.406v11.453H95.561z"/>
	<path fill="#FFFFFF" d="M99.154,226.309v-1.617h1.406v1.617H99.154z M99.154,236.145v-8.297h1.406v8.297H99.154z"/>
	<path fill="#FFFFFF" d="M102.139,233.668l1.391-0.219c0.078,0.558,0.295,0.984,0.652,1.281c0.356,0.297,0.855,0.445,1.496,0.445
		c0.646,0,1.125-0.131,1.438-0.395c0.313-0.263,0.469-0.571,0.469-0.926c0-0.317-0.138-0.567-0.414-0.75
		c-0.193-0.125-0.672-0.284-1.438-0.477c-1.031-0.26-1.746-0.485-2.145-0.676c-0.398-0.19-0.701-0.453-0.906-0.789
		c-0.206-0.336-0.309-0.707-0.309-1.113c0-0.37,0.084-0.712,0.254-1.027c0.169-0.315,0.399-0.577,0.691-0.785
		c0.219-0.161,0.517-0.298,0.895-0.41c0.377-0.112,0.782-0.168,1.215-0.168c0.651,0,1.223,0.094,1.715,0.281s0.855,0.441,1.09,0.762
		s0.396,0.749,0.484,1.285l-1.375,0.188c-0.063-0.427-0.244-0.76-0.543-1c-0.3-0.239-0.723-0.359-1.27-0.359
		c-0.646,0-1.107,0.107-1.383,0.32c-0.276,0.214-0.414,0.464-0.414,0.75c0,0.183,0.057,0.347,0.172,0.492
		c0.114,0.151,0.294,0.276,0.539,0.375c0.141,0.052,0.555,0.172,1.242,0.359c0.995,0.266,1.688,0.483,2.082,0.652
		c0.393,0.169,0.702,0.416,0.926,0.738c0.224,0.323,0.336,0.724,0.336,1.203c0,0.469-0.137,0.91-0.41,1.324
		s-0.668,0.734-1.184,0.961s-1.099,0.34-1.75,0.34c-1.078,0-1.9-0.224-2.465-0.672C102.655,235.213,102.295,234.549,102.139,233.668
		z"/>
	<path fill="#FFFFFF" d="M116.115,235.122c-0.521,0.443-1.022,0.755-1.504,0.938c-0.482,0.182-0.999,0.273-1.551,0.273
		c-0.912,0-1.612-0.223-2.102-0.668c-0.49-0.445-0.734-1.014-0.734-1.707c0-0.406,0.092-0.777,0.277-1.113
		c0.185-0.336,0.427-0.605,0.727-0.809c0.299-0.203,0.637-0.356,1.012-0.461c0.276-0.073,0.692-0.143,1.25-0.211
		c1.135-0.135,1.971-0.297,2.508-0.484c0.005-0.192,0.008-0.315,0.008-0.367c0-0.573-0.133-0.977-0.398-1.211
		c-0.359-0.317-0.894-0.477-1.602-0.477c-0.662,0-1.15,0.116-1.465,0.348c-0.315,0.232-0.548,0.642-0.699,1.23l-1.375-0.188
		c0.125-0.588,0.331-1.063,0.617-1.426c0.286-0.362,0.7-0.641,1.242-0.836c0.542-0.195,1.169-0.293,1.883-0.293
		c0.708,0,1.284,0.083,1.727,0.25c0.442,0.167,0.768,0.376,0.977,0.629c0.208,0.253,0.354,0.572,0.438,0.957
		c0.047,0.24,0.07,0.672,0.07,1.297v1.875c0,1.308,0.03,2.134,0.09,2.48c0.06,0.347,0.178,0.679,0.355,0.996h-1.469
		C116.25,235.854,116.157,235.512,116.115,235.122z M115.998,231.981c-0.511,0.208-1.276,0.386-2.297,0.531
		c-0.578,0.083-0.987,0.177-1.227,0.281c-0.24,0.104-0.425,0.257-0.555,0.457c-0.13,0.201-0.195,0.423-0.195,0.668
		c0,0.375,0.142,0.688,0.426,0.938c0.284,0.25,0.699,0.375,1.246,0.375c0.542,0,1.023-0.118,1.445-0.355
		c0.422-0.237,0.731-0.561,0.93-0.973c0.151-0.317,0.227-0.786,0.227-1.406V231.981z"/>
	<path fill="#FFFFFF" d="M122.67,234.887l0.203,1.242c-0.396,0.083-0.75,0.125-1.063,0.125c-0.511,0-0.906-0.081-1.188-0.242
		s-0.479-0.374-0.594-0.637c-0.115-0.263-0.172-0.816-0.172-1.66v-4.773h-1.031v-1.094h1.031v-2.055l1.398-0.844v2.898h1.414v1.094
		h-1.414v4.852c0,0.401,0.024,0.659,0.074,0.773c0.049,0.115,0.13,0.206,0.242,0.273c0.112,0.068,0.272,0.102,0.48,0.102
		C122.209,234.942,122.415,234.924,122.67,234.887z"/>
	<path fill="#FFFFFF" d="M124.053,226.309v-1.617h1.406v1.617H124.053z M124.053,236.145v-8.297h1.406v8.297H124.053z"/>
	<path fill="#FFFFFF" d="M127.076,231.997c0-1.536,0.427-2.674,1.281-3.414c0.713-0.614,1.583-0.922,2.609-0.922
		c1.141,0,2.073,0.374,2.797,1.121c0.724,0.748,1.086,1.78,1.086,3.098c0,1.068-0.16,1.908-0.48,2.52
		c-0.32,0.612-0.787,1.087-1.398,1.426c-0.612,0.338-1.28,0.508-2.004,0.508c-1.162,0-2.101-0.372-2.816-1.117
		C127.434,234.471,127.076,233.398,127.076,231.997z M128.521,231.997c0,1.063,0.231,1.858,0.695,2.387
		c0.463,0.529,1.047,0.793,1.75,0.793c0.698,0,1.278-0.266,1.742-0.797c0.463-0.531,0.695-1.341,0.695-2.43
		c0-1.026-0.233-1.803-0.699-2.332c-0.466-0.528-1.046-0.793-1.738-0.793c-0.703,0-1.287,0.263-1.75,0.789
		C128.753,230.14,128.521,230.934,128.521,231.997z"/>
	<path fill="#FFFFFF" d="M136.498,236.145v-8.297h1.266v1.18c0.609-0.911,1.489-1.367,2.641-1.367c0.5,0,0.959,0.09,1.379,0.27
		c0.419,0.18,0.733,0.416,0.941,0.707c0.208,0.292,0.354,0.638,0.438,1.039c0.052,0.261,0.078,0.716,0.078,1.367v5.102h-1.406
		v-5.047c0-0.573-0.055-1.001-0.164-1.285c-0.109-0.284-0.304-0.51-0.582-0.68c-0.279-0.169-0.605-0.254-0.98-0.254
		c-0.599,0-1.116,0.19-1.551,0.57c-0.435,0.38-0.652,1.102-0.652,2.164v4.531H136.498z"/>
</g>
<g>
	<rect x="253.105" y="230" fill="#472F91" width="111" height="57"/>
	<g>
		<path fill="#FFFFFF" d="M292.172,263.25l1.367-0.188c0.036,0.875,0.2,1.474,0.492,1.797s0.695,0.484,1.211,0.484
			c0.38,0,0.708-0.087,0.984-0.262s0.466-0.411,0.57-0.711s0.156-0.777,0.156-1.434v-7.891h1.516v7.805
			c0,0.958-0.116,1.7-0.348,2.227s-0.599,0.927-1.102,1.203s-1.093,0.414-1.77,0.414c-1.005,0-1.774-0.289-2.309-0.867
			S292.151,264.391,292.172,263.25z"/>
		<path fill="#FFFFFF" d="M301.203,266.5v-11.453h1.516V266.5H301.203z"/>
		<path fill="#FFFFFF" d="M305.414,266.5v-11.453h5.078c1.021,0,1.797,0.103,2.328,0.309s0.956,0.569,1.273,1.09
			s0.477,1.097,0.477,1.727c0,0.813-0.263,1.497-0.789,2.055s-1.339,0.911-2.438,1.063c0.401,0.192,0.706,0.383,0.914,0.57
			c0.442,0.406,0.862,0.914,1.258,1.523l1.992,3.117h-1.906l-1.516-2.383c-0.442-0.688-0.808-1.214-1.094-1.578
			s-0.543-0.62-0.77-0.766s-0.457-0.247-0.691-0.305c-0.172-0.036-0.453-0.055-0.844-0.055h-1.758v5.086H305.414z M306.93,260.102
			h3.258c0.692,0,1.234-0.071,1.625-0.215s0.688-0.372,0.891-0.688s0.305-0.657,0.305-1.027c0-0.542-0.196-0.987-0.59-1.336
			s-1.015-0.523-1.863-0.523h-3.625V260.102z"/>
		<path fill="#FFFFFF" d="M315.688,266.5l4.398-11.453h1.633l4.688,11.453h-1.727l-1.336-3.469h-4.789l-1.258,3.469H315.688z
			 M318.992,261.797h3.883l-1.195-3.172c-0.364-0.964-0.636-1.755-0.813-2.375c-0.146,0.734-0.352,1.464-0.617,2.188
			L318.992,261.797z"/>
	</g>
</g>
<g>
	<path fill="#FFFFFF" d="M36.762,313.82l1.43-0.125c0.067,0.573,0.225,1.043,0.473,1.41c0.247,0.367,0.631,0.664,1.152,0.891
		c0.521,0.227,1.106,0.34,1.758,0.34c0.578,0,1.088-0.086,1.531-0.258c0.442-0.172,0.772-0.407,0.988-0.707
		c0.216-0.3,0.324-0.626,0.324-0.98c0-0.359-0.104-0.673-0.313-0.941c-0.208-0.269-0.552-0.493-1.031-0.676
		c-0.308-0.12-0.987-0.306-2.039-0.559c-1.052-0.253-1.789-0.491-2.211-0.715c-0.547-0.286-0.955-0.642-1.223-1.066
		c-0.269-0.425-0.402-0.899-0.402-1.426c0-0.578,0.164-1.118,0.492-1.621s0.807-0.884,1.438-1.145
		c0.63-0.261,1.331-0.391,2.102-0.391c0.849,0,1.598,0.137,2.246,0.41s1.147,0.676,1.496,1.207c0.349,0.531,0.536,1.133,0.563,1.805
		l-1.453,0.109c-0.078-0.724-0.343-1.271-0.793-1.641c-0.451-0.37-1.116-0.555-1.996-0.555c-0.917,0-1.585,0.168-2.004,0.504
		c-0.419,0.336-0.629,0.741-0.629,1.215c0,0.411,0.148,0.75,0.445,1.016c0.292,0.266,1.053,0.538,2.285,0.816
		c1.231,0.278,2.077,0.522,2.535,0.73c0.667,0.308,1.159,0.696,1.477,1.168c0.317,0.472,0.477,1.015,0.477,1.629
		c0,0.609-0.175,1.184-0.523,1.723c-0.349,0.539-0.851,0.958-1.504,1.258c-0.654,0.3-1.39,0.449-2.207,0.449
		c-1.037,0-1.905-0.151-2.605-0.453c-0.701-0.302-1.25-0.757-1.648-1.363S36.782,314.586,36.762,313.82z"/>
	<path fill="#FFFFFF" d="M53.449,314.828l1.453,0.18c-0.229,0.849-0.654,1.508-1.273,1.977c-0.62,0.469-1.412,0.703-2.375,0.703
		c-1.214,0-2.176-0.374-2.887-1.121s-1.066-1.796-1.066-3.145c0-1.396,0.359-2.479,1.078-3.25s1.651-1.156,2.797-1.156
		c1.109,0,2.016,0.378,2.719,1.133s1.055,1.817,1.055,3.188c0,0.083-0.003,0.208-0.008,0.375h-6.188
		c0.052,0.911,0.31,1.609,0.773,2.094c0.463,0.484,1.042,0.727,1.734,0.727c0.516,0,0.956-0.136,1.32-0.406
		C52.946,315.854,53.235,315.422,53.449,314.828z M48.832,312.555h4.633c-0.063-0.698-0.24-1.222-0.531-1.57
		c-0.448-0.542-1.029-0.813-1.742-0.813c-0.646,0-1.189,0.216-1.629,0.648C49.122,311.253,48.879,311.831,48.832,312.555z"/>
	<path fill="#FFFFFF" d="M56.652,317.5v-8.297h1.266v1.258c0.323-0.589,0.621-0.977,0.895-1.164s0.574-0.281,0.902-0.281
		c0.474,0,0.956,0.151,1.445,0.453l-0.484,1.305c-0.344-0.203-0.688-0.305-1.031-0.305c-0.308,0-0.583,0.093-0.828,0.277
		c-0.245,0.185-0.419,0.441-0.523,0.77c-0.156,0.5-0.234,1.047-0.234,1.641v4.344H56.652z"/>
	<path fill="#FFFFFF" d="M64.301,317.5l-3.156-8.297h1.484l1.781,4.969c0.192,0.536,0.37,1.094,0.531,1.672
		c0.125-0.438,0.299-0.964,0.523-1.578l1.844-5.063h1.445l-3.141,8.297H64.301z"/>
	<path fill="#FFFFFF" d="M75.676,314.828l1.453,0.18c-0.229,0.849-0.654,1.508-1.273,1.977c-0.62,0.469-1.412,0.703-2.375,0.703
		c-1.214,0-2.176-0.374-2.887-1.121s-1.066-1.796-1.066-3.145c0-1.396,0.359-2.479,1.078-3.25s1.651-1.156,2.797-1.156
		c1.109,0,2.016,0.378,2.719,1.133s1.055,1.817,1.055,3.188c0,0.083-0.003,0.208-0.008,0.375H70.98
		c0.052,0.911,0.31,1.609,0.773,2.094c0.463,0.484,1.042,0.727,1.734,0.727c0.516,0,0.956-0.136,1.32-0.406
		C75.173,315.854,75.462,315.422,75.676,314.828z M71.059,312.555h4.633c-0.063-0.698-0.24-1.222-0.531-1.57
		c-0.448-0.542-1.029-0.813-1.742-0.813c-0.646,0-1.189,0.216-1.629,0.648C71.349,311.253,71.105,311.831,71.059,312.555z"/>
	<path fill="#FFFFFF" d="M78.879,317.5v-8.297h1.266v1.258c0.323-0.589,0.621-0.977,0.895-1.164s0.574-0.281,0.902-0.281
		c0.474,0,0.956,0.151,1.445,0.453l-0.484,1.305c-0.344-0.203-0.688-0.305-1.031-0.305c-0.308,0-0.583,0.093-0.828,0.277
		c-0.245,0.185-0.419,0.441-0.523,0.77c-0.156,0.5-0.234,1.047-0.234,1.641v4.344H78.879z"/>
	<path fill="#FFFFFF" d="M18.457,336.7l-4.438-11.453h1.641l2.977,8.32c0.239,0.667,0.44,1.292,0.602,1.875
		c0.177-0.625,0.383-1.25,0.617-1.875l3.094-8.32h1.547L20.012,336.7H18.457z"/>
	<path fill="#FFFFFF" d="M25.395,326.864v-1.617h1.406v1.617H25.395z M25.395,336.7v-8.297h1.406v8.297H25.395z"/>
	<path fill="#FFFFFF" d="M28.926,336.7v-8.297h1.266v1.258c0.323-0.589,0.621-0.977,0.895-1.164s0.574-0.281,0.902-0.281
		c0.474,0,0.956,0.151,1.445,0.453l-0.484,1.305c-0.344-0.203-0.688-0.305-1.031-0.305c-0.308,0-0.583,0.093-0.828,0.277
		c-0.245,0.185-0.419,0.441-0.523,0.77c-0.156,0.5-0.234,1.047-0.234,1.641v4.344H28.926z"/>
	<path fill="#FFFFFF" d="M37.34,335.442l0.203,1.242c-0.396,0.083-0.75,0.125-1.063,0.125c-0.511,0-0.906-0.081-1.188-0.242
		s-0.479-0.374-0.594-0.637c-0.115-0.263-0.172-0.816-0.172-1.66v-4.773h-1.031v-1.094h1.031v-2.055l1.398-0.844v2.898h1.414v1.094
		h-1.414v4.852c0,0.401,0.024,0.659,0.074,0.773c0.049,0.114,0.13,0.206,0.242,0.273c0.112,0.067,0.272,0.102,0.48,0.102
		C36.879,335.497,37.084,335.479,37.34,335.442z"/>
	<path fill="#FFFFFF" d="M44.152,336.7v-1.219c-0.646,0.938-1.523,1.406-2.633,1.406c-0.49,0-0.947-0.094-1.371-0.281
		c-0.425-0.188-0.74-0.423-0.945-0.707c-0.206-0.284-0.351-0.632-0.434-1.043c-0.058-0.276-0.086-0.714-0.086-1.313v-5.141h1.406
		v4.602c0,0.734,0.028,1.229,0.086,1.484c0.088,0.37,0.276,0.66,0.563,0.871c0.286,0.211,0.641,0.316,1.063,0.316
		s0.817-0.108,1.188-0.324c0.37-0.216,0.631-0.511,0.785-0.883c0.153-0.372,0.23-0.913,0.23-1.621v-4.445h1.406v8.297H44.152z"/>
	<path fill="#FFFFFF" d="M53.027,335.677c-0.521,0.442-1.022,0.755-1.504,0.938c-0.482,0.183-0.999,0.273-1.551,0.273
		c-0.912,0-1.612-0.223-2.102-0.668c-0.49-0.445-0.734-1.015-0.734-1.707c0-0.406,0.092-0.777,0.277-1.113
		c0.185-0.336,0.427-0.605,0.727-0.809c0.299-0.203,0.637-0.356,1.012-0.461c0.276-0.073,0.692-0.144,1.25-0.211
		c1.135-0.136,1.971-0.297,2.508-0.484c0.005-0.192,0.008-0.315,0.008-0.367c0-0.573-0.133-0.977-0.398-1.211
		c-0.359-0.317-0.894-0.477-1.602-0.477c-0.662,0-1.15,0.116-1.465,0.348c-0.315,0.231-0.548,0.642-0.699,1.23l-1.375-0.188
		c0.125-0.589,0.331-1.063,0.617-1.426c0.286-0.362,0.7-0.641,1.242-0.836c0.542-0.195,1.169-0.293,1.883-0.293
		c0.708,0,1.284,0.083,1.727,0.25c0.442,0.167,0.768,0.376,0.977,0.629c0.208,0.253,0.354,0.571,0.438,0.957
		c0.047,0.239,0.07,0.672,0.07,1.297v1.875c0,1.308,0.03,2.134,0.09,2.48c0.06,0.347,0.178,0.679,0.355,0.996h-1.469
		C53.163,336.408,53.069,336.067,53.027,335.677z M52.91,332.536c-0.511,0.208-1.276,0.386-2.297,0.531
		c-0.578,0.083-0.987,0.177-1.227,0.281c-0.24,0.104-0.425,0.257-0.555,0.457c-0.13,0.2-0.195,0.423-0.195,0.668
		c0,0.375,0.142,0.688,0.426,0.938c0.284,0.25,0.699,0.375,1.246,0.375c0.542,0,1.023-0.118,1.445-0.355s0.731-0.562,0.93-0.973
		c0.151-0.317,0.227-0.786,0.227-1.406V332.536z"/>
	<path fill="#FFFFFF" d="M56.48,336.7v-11.453h1.406V336.7H56.48z"/>
	<path fill="#FFFFFF" d="M60.074,326.864v-1.617h1.406v1.617H60.074z M60.074,336.7v-8.297h1.406v8.297H60.074z"/>
	<path fill="#FFFFFF" d="M63.059,334.224l1.391-0.219c0.078,0.558,0.295,0.984,0.652,1.281c0.356,0.297,0.855,0.445,1.496,0.445
		c0.646,0,1.125-0.132,1.438-0.395s0.469-0.571,0.469-0.926c0-0.317-0.138-0.567-0.414-0.75c-0.193-0.125-0.672-0.284-1.438-0.477
		c-1.031-0.261-1.746-0.485-2.145-0.676s-0.701-0.453-0.906-0.789c-0.206-0.336-0.309-0.707-0.309-1.113
		c0-0.37,0.084-0.712,0.254-1.027c0.169-0.315,0.399-0.577,0.691-0.785c0.219-0.161,0.517-0.298,0.895-0.41
		c0.377-0.112,0.782-0.168,1.215-0.168c0.651,0,1.223,0.094,1.715,0.281s0.855,0.441,1.09,0.762s0.396,0.749,0.484,1.285
		l-1.375,0.188c-0.063-0.427-0.244-0.761-0.543-1c-0.3-0.239-0.723-0.359-1.27-0.359c-0.646,0-1.107,0.106-1.383,0.32
		c-0.276,0.214-0.414,0.464-0.414,0.75c0,0.183,0.057,0.347,0.172,0.492c0.114,0.151,0.294,0.276,0.539,0.375
		c0.141,0.052,0.555,0.172,1.242,0.359c0.995,0.266,1.688,0.483,2.082,0.652c0.393,0.169,0.702,0.415,0.926,0.738
		c0.224,0.323,0.336,0.724,0.336,1.203c0,0.469-0.137,0.91-0.41,1.324s-0.668,0.734-1.184,0.961s-1.099,0.34-1.75,0.34
		c-1.078,0-1.9-0.224-2.465-0.672C63.575,335.768,63.215,335.104,63.059,334.224z"/>
	<path fill="#FFFFFF" d="M77.035,335.677c-0.521,0.442-1.022,0.755-1.504,0.938c-0.482,0.183-0.999,0.273-1.551,0.273
		c-0.912,0-1.612-0.223-2.102-0.668c-0.49-0.445-0.734-1.015-0.734-1.707c0-0.406,0.092-0.777,0.277-1.113
		c0.185-0.336,0.427-0.605,0.727-0.809c0.299-0.203,0.637-0.356,1.012-0.461c0.276-0.073,0.692-0.144,1.25-0.211
		c1.135-0.136,1.971-0.297,2.508-0.484c0.005-0.192,0.008-0.315,0.008-0.367c0-0.573-0.133-0.977-0.398-1.211
		c-0.359-0.317-0.894-0.477-1.602-0.477c-0.662,0-1.15,0.116-1.465,0.348c-0.315,0.231-0.548,0.642-0.699,1.23l-1.375-0.188
		c0.125-0.589,0.331-1.063,0.617-1.426c0.286-0.362,0.7-0.641,1.242-0.836c0.542-0.195,1.169-0.293,1.883-0.293
		c0.708,0,1.284,0.083,1.727,0.25c0.442,0.167,0.768,0.376,0.977,0.629c0.208,0.253,0.354,0.571,0.438,0.957
		c0.047,0.239,0.07,0.672,0.07,1.297v1.875c0,1.308,0.03,2.134,0.09,2.48c0.06,0.347,0.178,0.679,0.355,0.996h-1.469
		C77.17,336.408,77.077,336.067,77.035,335.677z M76.918,332.536c-0.511,0.208-1.276,0.386-2.297,0.531
		c-0.578,0.083-0.987,0.177-1.227,0.281c-0.24,0.104-0.425,0.257-0.555,0.457c-0.13,0.2-0.195,0.423-0.195,0.668
		c0,0.375,0.142,0.688,0.426,0.938c0.284,0.25,0.699,0.375,1.246,0.375c0.542,0,1.023-0.118,1.445-0.355s0.731-0.562,0.93-0.973
		c0.151-0.317,0.227-0.786,0.227-1.406V332.536z"/>
	<path fill="#FFFFFF" d="M83.59,335.442l0.203,1.242c-0.396,0.083-0.75,0.125-1.063,0.125c-0.511,0-0.906-0.081-1.188-0.242
		s-0.479-0.374-0.594-0.637c-0.115-0.263-0.172-0.816-0.172-1.66v-4.773h-1.031v-1.094h1.031v-2.055l1.398-0.844v2.898h1.414v1.094
		h-1.414v4.852c0,0.401,0.024,0.659,0.074,0.773c0.049,0.114,0.13,0.206,0.242,0.273c0.112,0.067,0.272,0.102,0.48,0.102
		C83.129,335.497,83.334,335.479,83.59,335.442z"/>
	<path fill="#FFFFFF" d="M84.973,326.864v-1.617h1.406v1.617H84.973z M84.973,336.7v-8.297h1.406v8.297H84.973z"/>
	<path fill="#FFFFFF" d="M87.996,332.552c0-1.536,0.427-2.675,1.281-3.414c0.713-0.614,1.583-0.922,2.609-0.922
		c1.141,0,2.073,0.374,2.797,1.121c0.724,0.747,1.086,1.78,1.086,3.098c0,1.067-0.16,1.907-0.48,2.52s-0.787,1.087-1.398,1.426
		c-0.612,0.339-1.28,0.508-2.004,0.508c-1.162,0-2.101-0.372-2.816-1.117C88.354,335.025,87.996,333.953,87.996,332.552z
		 M89.441,332.552c0,1.063,0.231,1.858,0.695,2.387c0.463,0.528,1.047,0.793,1.75,0.793c0.698,0,1.278-0.266,1.742-0.797
		c0.463-0.531,0.695-1.341,0.695-2.43c0-1.026-0.233-1.804-0.699-2.332c-0.466-0.528-1.046-0.793-1.738-0.793
		c-0.703,0-1.287,0.263-1.75,0.789C89.673,330.695,89.441,331.489,89.441,332.552z"/>
	<path fill="#FFFFFF" d="M97.418,336.7v-8.297h1.266v1.18c0.609-0.911,1.489-1.367,2.641-1.367c0.5,0,0.959,0.09,1.379,0.27
		c0.419,0.18,0.733,0.415,0.941,0.707c0.208,0.292,0.354,0.638,0.438,1.039c0.052,0.261,0.078,0.716,0.078,1.367v5.102h-1.406
		v-5.047c0-0.573-0.055-1.001-0.164-1.285s-0.304-0.511-0.582-0.68c-0.279-0.169-0.605-0.254-0.98-0.254
		c-0.599,0-1.116,0.19-1.551,0.57c-0.435,0.38-0.652,1.102-0.652,2.164v4.531H97.418z"/>
</g>
<g>
	<path fill="#FFFFFF" d="M208.024,431.5v-10.021h1.996l2.372,7.096c0.219,0.661,0.378,1.155,0.479,1.483
		c0.114-0.364,0.292-0.9,0.533-1.606l2.399-6.973h1.784V431.5h-1.278v-8.388l-2.912,8.388h-1.196l-2.898-8.531v8.531H208.024z"/>
	<path fill="#FFFFFF" d="M219.112,427.87c0-1.345,0.374-2.34,1.121-2.987c0.625-0.538,1.385-0.807,2.283-0.807
		c0.998,0,1.814,0.327,2.447,0.98c0.633,0.654,0.95,1.558,0.95,2.711c0,0.935-0.14,1.669-0.42,2.205
		c-0.28,0.535-0.688,0.951-1.224,1.247s-1.12,0.444-1.753,0.444c-1.016,0-1.838-0.326-2.464-0.978S219.112,429.096,219.112,427.87z
		 M220.376,427.87c0,0.93,0.203,1.626,0.608,2.089c0.406,0.462,0.916,0.693,1.531,0.693c0.611,0,1.119-0.232,1.524-0.697
		s0.608-1.174,0.608-2.126c0-0.897-0.204-1.578-0.612-2.04c-0.408-0.463-0.915-0.694-1.521-0.694c-0.615,0-1.125,0.23-1.531,0.69
		S220.376,426.94,220.376,427.87z"/>
	<path fill="#FFFFFF" d="M228.491,431.5h-1.142v-10.021h1.23v3.575c0.52-0.651,1.183-0.978,1.989-0.978
		c0.447,0,0.869,0.09,1.268,0.27c0.398,0.181,0.727,0.434,0.984,0.76c0.258,0.325,0.459,0.719,0.604,1.179
		c0.146,0.46,0.219,0.952,0.219,1.477c0,1.244-0.307,2.206-0.922,2.885s-1.354,1.019-2.215,1.019c-0.857,0-1.529-0.357-2.017-1.073
		V431.5z M228.477,427.815c0,0.87,0.119,1.499,0.355,1.887c0.387,0.634,0.912,0.95,1.572,0.95c0.538,0,1.002-0.233,1.394-0.701
		c0.393-0.467,0.588-1.163,0.588-2.088c0-0.948-0.188-1.647-0.563-2.099s-0.831-0.677-1.364-0.677c-0.538,0-1.002,0.233-1.395,0.701
		C228.673,426.256,228.477,426.932,228.477,427.815z"/>
	<path fill="#FFFFFF" d="M235.148,422.894v-1.415h1.23v1.415H235.148z M235.148,431.5v-7.26h1.23v7.26H235.148z"/>
	<path fill="#FFFFFF" d="M238.225,431.5v-10.021h1.23V431.5H238.225z"/>
	<path fill="#FFFFFF" d="M246.332,429.162l1.271,0.157c-0.2,0.743-0.572,1.319-1.114,1.729s-1.235,0.615-2.078,0.615
		c-1.062,0-1.903-0.327-2.526-0.98c-0.621-0.654-0.933-1.571-0.933-2.752c0-1.222,0.314-2.169,0.943-2.844s1.444-1.012,2.447-1.012
		c0.971,0,1.764,0.33,2.379,0.991s0.923,1.591,0.923,2.789c0,0.073-0.002,0.183-0.007,0.328h-5.414
		c0.046,0.798,0.271,1.408,0.677,1.832s0.911,0.636,1.518,0.636c0.451,0,0.836-0.118,1.155-0.355S246.146,429.682,246.332,429.162z
		 M242.292,427.173h4.054c-0.055-0.61-0.21-1.068-0.465-1.374c-0.392-0.474-0.9-0.711-1.524-0.711c-0.565,0-1.04,0.189-1.425,0.567
		C242.546,426.033,242.333,426.539,242.292,427.173z"/>
	<path fill="#FFFFFF" d="M205.023,448.3l3.849-10.021h1.429l4.102,10.021h-1.511l-1.169-3.035h-4.19l-1.101,3.035H205.023z
		 M207.915,444.185h3.397l-1.046-2.775c-0.319-0.843-0.556-1.536-0.711-2.078c-0.127,0.643-0.308,1.28-0.54,1.914L207.915,444.185z"
		/>
	<path fill="#FFFFFF" d="M220.042,445.641l1.21,0.157c-0.132,0.834-0.471,1.487-1.015,1.958c-0.544,0.473-1.213,0.708-2.006,0.708
		c-0.994,0-1.792-0.325-2.396-0.974c-0.604-0.65-0.906-1.581-0.906-2.793c0-0.784,0.13-1.47,0.39-2.058s0.655-1.028,1.186-1.323
		c0.531-0.293,1.108-0.44,1.733-0.44c0.789,0,1.433,0.199,1.935,0.599c0.501,0.398,0.823,0.965,0.964,1.698l-1.196,0.185
		c-0.114-0.487-0.315-0.854-0.605-1.101s-0.639-0.369-1.049-0.369c-0.62,0-1.124,0.222-1.511,0.667
		c-0.387,0.443-0.581,1.146-0.581,2.108c0,0.976,0.187,1.684,0.561,2.126s0.861,0.663,1.463,0.663c0.483,0,0.886-0.148,1.21-0.444
		S219.955,446.256,220.042,445.641z"/>
	<path fill="#FFFFFF" d="M227.042,445.641l1.21,0.157c-0.132,0.834-0.471,1.487-1.015,1.958c-0.544,0.473-1.213,0.708-2.006,0.708
		c-0.994,0-1.792-0.325-2.396-0.974c-0.604-0.65-0.906-1.581-0.906-2.793c0-0.784,0.13-1.47,0.39-2.058s0.655-1.028,1.186-1.323
		c0.531-0.293,1.108-0.44,1.733-0.44c0.789,0,1.433,0.199,1.935,0.599c0.501,0.398,0.823,0.965,0.964,1.698l-1.196,0.185
		c-0.114-0.487-0.315-0.854-0.605-1.101s-0.639-0.369-1.049-0.369c-0.62,0-1.124,0.222-1.511,0.667
		c-0.387,0.443-0.581,1.146-0.581,2.108c0,0.976,0.187,1.684,0.561,2.126s0.861,0.663,1.463,0.663c0.483,0,0.886-0.148,1.21-0.444
		S226.955,446.256,227.042,445.641z"/>
	<path fill="#FFFFFF" d="M234.273,445.962l1.271,0.157c-0.2,0.743-0.571,1.319-1.113,1.729c-0.543,0.41-1.235,0.615-2.078,0.615
		c-1.063,0-1.904-0.327-2.526-0.981c-0.622-0.653-0.933-1.57-0.933-2.751c0-1.222,0.314-2.169,0.943-2.844s1.445-1.012,2.448-1.012
		c0.971,0,1.764,0.33,2.379,0.991s0.922,1.591,0.922,2.789c0,0.073-0.002,0.183-0.006,0.328h-5.415
		c0.045,0.798,0.271,1.408,0.677,1.832s0.912,0.636,1.517,0.636c0.451,0,0.837-0.118,1.156-0.355
		C233.834,446.859,234.087,446.481,234.273,445.962z M230.234,443.973h4.053c-0.055-0.61-0.209-1.068-0.465-1.374
		c-0.392-0.474-0.899-0.711-1.523-0.711c-0.565,0-1.041,0.189-1.426,0.567S230.275,443.339,230.234,443.973z"/>
	<path fill="#FFFFFF" d="M236.599,446.133l1.217-0.191c0.068,0.487,0.259,0.861,0.571,1.121c0.312,0.26,0.748,0.39,1.309,0.39
		c0.565,0,0.984-0.115,1.258-0.345c0.273-0.23,0.41-0.501,0.41-0.811c0-0.278-0.121-0.497-0.362-0.656
		c-0.169-0.109-0.588-0.248-1.258-0.417c-0.902-0.228-1.528-0.425-1.876-0.591c-0.35-0.167-0.613-0.396-0.793-0.691
		c-0.181-0.293-0.271-0.618-0.271-0.974c0-0.323,0.074-0.623,0.222-0.899c0.148-0.275,0.351-0.504,0.605-0.687
		c0.191-0.142,0.452-0.261,0.783-0.358c0.33-0.099,0.685-0.147,1.063-0.147c0.569,0,1.07,0.082,1.5,0.246
		c0.432,0.164,0.749,0.386,0.954,0.667c0.205,0.279,0.347,0.654,0.424,1.124l-1.203,0.164c-0.055-0.374-0.213-0.665-0.476-0.875
		c-0.262-0.21-0.632-0.314-1.11-0.314c-0.565,0-0.969,0.094-1.21,0.28s-0.362,0.405-0.362,0.656c0,0.159,0.05,0.303,0.15,0.431
		c0.101,0.132,0.258,0.241,0.472,0.328c0.123,0.046,0.485,0.15,1.087,0.314c0.87,0.232,1.478,0.423,1.821,0.571
		c0.345,0.147,0.614,0.363,0.811,0.646s0.294,0.634,0.294,1.053c0,0.41-0.12,0.796-0.358,1.159c-0.24,0.361-0.585,0.643-1.036,0.84
		c-0.451,0.199-0.962,0.298-1.531,0.298c-0.943,0-1.662-0.196-2.157-0.588C237.051,447.484,236.735,446.903,236.599,446.133z"/>
	<path fill="#FFFFFF" d="M243.599,446.133l1.217-0.191c0.068,0.487,0.259,0.861,0.571,1.121c0.312,0.26,0.748,0.39,1.309,0.39
		c0.565,0,0.984-0.115,1.258-0.345c0.273-0.23,0.41-0.501,0.41-0.811c0-0.278-0.121-0.497-0.362-0.656
		c-0.169-0.109-0.588-0.248-1.258-0.417c-0.902-0.228-1.528-0.425-1.876-0.591c-0.35-0.167-0.613-0.396-0.793-0.691
		c-0.181-0.293-0.271-0.618-0.271-0.974c0-0.323,0.074-0.623,0.222-0.899c0.148-0.275,0.351-0.504,0.605-0.687
		c0.191-0.142,0.452-0.261,0.783-0.358c0.33-0.099,0.685-0.147,1.063-0.147c0.569,0,1.07,0.082,1.5,0.246
		c0.432,0.164,0.749,0.386,0.954,0.667c0.205,0.279,0.347,0.654,0.424,1.124l-1.203,0.164c-0.055-0.374-0.213-0.665-0.476-0.875
		c-0.262-0.21-0.632-0.314-1.11-0.314c-0.565,0-0.969,0.094-1.21,0.28s-0.362,0.405-0.362,0.656c0,0.159,0.05,0.303,0.15,0.431
		c0.101,0.132,0.258,0.241,0.472,0.328c0.123,0.046,0.485,0.15,1.087,0.314c0.87,0.232,1.478,0.423,1.821,0.571
		c0.345,0.147,0.614,0.363,0.811,0.646s0.294,0.634,0.294,1.053c0,0.41-0.12,0.796-0.358,1.159c-0.24,0.361-0.585,0.643-1.036,0.84
		c-0.451,0.199-0.962,0.298-1.531,0.298c-0.943,0-1.662-0.196-2.157-0.588C244.051,447.484,243.735,446.903,243.599,446.133z"/>
</g>
<g>
	<path fill="#FFFFFF" d="M227.984,553v-11.453h1.555l6.016,8.992v-8.992h1.453V553h-1.555l-6.016-9v9H227.984z"/>
	<path fill="#FFFFFF" d="M245.055,550.328l1.453,0.18c-0.229,0.849-0.654,1.508-1.273,1.977c-0.62,0.469-1.412,0.703-2.375,0.703
		c-1.214,0-2.176-0.374-2.887-1.121s-1.066-1.796-1.066-3.145c0-1.396,0.359-2.479,1.078-3.25s1.65-1.156,2.797-1.156
		c1.109,0,2.016,0.378,2.719,1.133s1.055,1.817,1.055,3.188c0,0.083-0.003,0.208-0.008,0.375h-6.188
		c0.052,0.911,0.31,1.609,0.773,2.094c0.463,0.484,1.041,0.727,1.734,0.727c0.516,0,0.955-0.136,1.32-0.406
		C244.552,551.354,244.841,550.922,245.055,550.328z M240.438,548.055h4.633c-0.063-0.698-0.24-1.222-0.531-1.57
		c-0.448-0.542-1.029-0.813-1.742-0.813c-0.646,0-1.189,0.216-1.629,0.648C240.728,546.753,240.484,547.331,240.438,548.055z"/>
	<path fill="#FFFFFF" d="M251.344,551.742l0.203,1.242c-0.396,0.083-0.75,0.125-1.063,0.125c-0.511,0-0.906-0.081-1.188-0.242
		s-0.479-0.374-0.594-0.637c-0.115-0.263-0.172-0.816-0.172-1.66v-4.773H247.5v-1.094h1.031v-2.055l1.398-0.844v2.898h1.414v1.094
		h-1.414v4.852c0,0.401,0.024,0.659,0.074,0.773c0.049,0.114,0.13,0.206,0.242,0.273c0.111,0.067,0.271,0.102,0.48,0.102
		C250.883,551.797,251.088,551.778,251.344,551.742z"/>
	<path fill="#FFFFFF" d="M254.25,553l-2.539-8.297h1.453l1.32,4.789l0.492,1.781c0.021-0.089,0.164-0.659,0.43-1.711l1.32-4.859
		h1.445l1.242,4.813l0.414,1.586l0.477-1.602l1.422-4.797h1.367L260.5,553h-1.461l-1.32-4.969l-0.32-1.414l-1.68,6.383H254.25z"/>
	<path fill="#FFFFFF" d="M263.75,548.852c0-1.536,0.427-2.675,1.281-3.414c0.714-0.614,1.583-0.922,2.609-0.922
		c1.141,0,2.073,0.374,2.797,1.121s1.086,1.78,1.086,3.098c0,1.067-0.16,1.907-0.48,2.52s-0.786,1.087-1.398,1.426
		s-1.28,0.508-2.004,0.508c-1.161,0-2.101-0.372-2.816-1.117S263.75,550.253,263.75,548.852z M265.195,548.852
		c0,1.063,0.231,1.858,0.695,2.387s1.047,0.793,1.75,0.793c0.698,0,1.278-0.266,1.742-0.797s0.695-1.341,0.695-2.43
		c0-1.026-0.233-1.804-0.699-2.332s-1.046-0.793-1.738-0.793c-0.703,0-1.286,0.263-1.75,0.789S265.195,547.789,265.195,548.852z"/>
	<path fill="#FFFFFF" d="M273.156,553v-8.297h1.266v1.258c0.323-0.589,0.621-0.977,0.895-1.164s0.574-0.281,0.902-0.281
		c0.474,0,0.956,0.151,1.445,0.453l-0.484,1.305c-0.344-0.203-0.688-0.305-1.031-0.305c-0.308,0-0.583,0.093-0.828,0.277
		s-0.419,0.441-0.523,0.77c-0.156,0.5-0.234,1.047-0.234,1.641V553H273.156z"/>
	<path fill="#FFFFFF" d="M278.508,553v-11.453h1.406v6.531l3.328-3.375h1.82l-3.172,3.078l3.492,5.219h-1.734l-2.742-4.242
		l-0.992,0.953V553H278.508z"/>
	<path fill="#FFFFFF" d="M219.941,572.2v-11.453h2.281l2.711,8.109c0.25,0.755,0.432,1.32,0.547,1.695
		c0.13-0.417,0.333-1.028,0.609-1.836l2.742-7.969h2.039V572.2h-1.461v-9.586l-3.328,9.586h-1.367l-3.313-9.75v9.75H219.941z"/>
	<path fill="#FFFFFF" d="M232.613,568.052c0-1.536,0.427-2.675,1.281-3.414c0.713-0.614,1.583-0.922,2.609-0.922
		c1.141,0,2.073,0.374,2.797,1.121c0.724,0.747,1.086,1.78,1.086,3.098c0,1.067-0.16,1.907-0.48,2.52s-0.787,1.087-1.398,1.426
		c-0.612,0.339-1.28,0.508-2.004,0.508c-1.162,0-2.101-0.372-2.816-1.117C232.971,570.525,232.613,569.453,232.613,568.052z
		 M234.059,568.052c0,1.063,0.231,1.858,0.695,2.387c0.463,0.528,1.047,0.793,1.75,0.793c0.698,0,1.278-0.266,1.742-0.797
		c0.463-0.531,0.695-1.341,0.695-2.43c0-1.026-0.233-1.804-0.699-2.332c-0.466-0.528-1.046-0.793-1.738-0.793
		c-0.703,0-1.287,0.263-1.75,0.789C234.29,566.195,234.059,566.989,234.059,568.052z"/>
	<path fill="#FFFFFF" d="M242.035,572.2v-8.297h1.266v1.18c0.609-0.911,1.489-1.367,2.641-1.367c0.5,0,0.959,0.09,1.379,0.27
		c0.419,0.18,0.732,0.415,0.941,0.707c0.208,0.292,0.354,0.638,0.438,1.039c0.052,0.261,0.078,0.716,0.078,1.367v5.102h-1.406
		v-5.047c0-0.573-0.055-1.001-0.164-1.285s-0.304-0.511-0.582-0.68c-0.279-0.169-0.605-0.254-0.98-0.254
		c-0.6,0-1.116,0.19-1.551,0.57c-0.436,0.38-0.652,1.102-0.652,2.164v4.531H242.035z"/>
	<path fill="#FFFFFF" d="M250.941,562.364v-1.617h1.406v1.617H250.941z M250.941,572.2v-8.297h1.406v8.297H250.941z"/>
	<path fill="#FFFFFF" d="M257.559,570.942l0.203,1.242c-0.396,0.083-0.75,0.125-1.063,0.125c-0.511,0-0.906-0.081-1.188-0.242
		s-0.479-0.374-0.594-0.637s-0.172-0.816-0.172-1.66v-4.773h-1.031v-1.094h1.031v-2.055l1.398-0.844v2.898h1.414v1.094h-1.414v4.852
		c0,0.401,0.024,0.659,0.074,0.773s0.13,0.206,0.242,0.273s0.272,0.102,0.48,0.102C257.098,570.997,257.304,570.979,257.559,570.942
		z"/>
	<path fill="#FFFFFF" d="M258.41,568.052c0-1.536,0.427-2.675,1.281-3.414c0.714-0.614,1.583-0.922,2.609-0.922
		c1.141,0,2.073,0.374,2.797,1.121s1.086,1.78,1.086,3.098c0,1.067-0.16,1.907-0.48,2.52s-0.786,1.087-1.398,1.426
		s-1.28,0.508-2.004,0.508c-1.161,0-2.101-0.372-2.816-1.117S258.41,569.453,258.41,568.052z M259.855,568.052
		c0,1.063,0.231,1.858,0.695,2.387s1.047,0.793,1.75,0.793c0.698,0,1.278-0.266,1.742-0.797s0.695-1.341,0.695-2.43
		c0-1.026-0.233-1.804-0.699-2.332s-1.046-0.793-1.738-0.793c-0.703,0-1.286,0.263-1.75,0.789S259.855,566.989,259.855,568.052z"/>
	<path fill="#FFFFFF" d="M267.816,572.2v-8.297h1.266v1.258c0.323-0.589,0.621-0.977,0.895-1.164s0.574-0.281,0.902-0.281
		c0.474,0,0.956,0.151,1.445,0.453l-0.484,1.305c-0.344-0.203-0.688-0.305-1.031-0.305c-0.308,0-0.583,0.093-0.828,0.277
		s-0.419,0.441-0.523,0.77c-0.156,0.5-0.234,1.047-0.234,1.641v4.344H267.816z"/>
	<path fill="#FFFFFF" d="M273.168,562.364v-1.617h1.406v1.617H273.168z M273.168,572.2v-8.297h1.406v8.297H273.168z"/>
	<path fill="#FFFFFF" d="M276.715,572.2v-8.297h1.266v1.18c0.609-0.911,1.489-1.367,2.641-1.367c0.5,0,0.96,0.09,1.379,0.27
		s0.733,0.415,0.941,0.707s0.354,0.638,0.438,1.039c0.052,0.261,0.078,0.716,0.078,1.367v5.102h-1.406v-5.047
		c0-0.573-0.055-1.001-0.164-1.285s-0.304-0.511-0.582-0.68s-0.605-0.254-0.98-0.254c-0.599,0-1.116,0.19-1.551,0.57
		s-0.652,1.102-0.652,2.164v4.531H276.715z"/>
	<path fill="#FFFFFF" d="M285.355,572.888l1.367,0.203c0.058,0.422,0.216,0.729,0.477,0.922c0.349,0.261,0.825,0.391,1.43,0.391
		c0.651,0,1.153-0.13,1.508-0.391s0.594-0.625,0.719-1.094c0.073-0.286,0.106-0.888,0.102-1.805
		c-0.614,0.724-1.38,1.086-2.297,1.086c-1.141,0-2.023-0.411-2.648-1.234s-0.938-1.81-0.938-2.961c0-0.792,0.144-1.522,0.43-2.191
		s0.702-1.187,1.246-1.551s1.184-0.547,1.918-0.547c0.979,0,1.786,0.396,2.422,1.188v-1h1.297v7.172
		c0,1.292-0.132,2.207-0.395,2.746s-0.68,0.965-1.25,1.277s-1.272,0.469-2.105,0.469c-0.989,0-1.789-0.223-2.398-0.668
		S285.335,573.783,285.355,572.888z M286.52,567.903c0,1.089,0.216,1.883,0.648,2.383s0.974,0.75,1.625,0.75
		c0.646,0,1.188-0.249,1.625-0.746s0.656-1.277,0.656-2.34c0-1.016-0.226-1.781-0.676-2.297s-0.993-0.773-1.629-0.773
		c-0.625,0-1.156,0.254-1.594,0.762S286.52,566.903,286.52,567.903z"/>
</g>
<g>
	<path fill="#FFFFFF" d="M30.699,532.675v-10.021h1.996l2.372,7.096c0.219,0.661,0.378,1.155,0.479,1.483
		c0.114-0.364,0.292-0.9,0.533-1.606l2.399-6.973h1.784v10.021h-1.278v-8.388l-2.912,8.388h-1.196l-2.898-8.531v8.531H30.699z"/>
	<path fill="#FFFFFF" d="M41.787,529.045c0-1.345,0.374-2.34,1.121-2.987c0.625-0.538,1.385-0.807,2.283-0.807
		c0.998,0,1.814,0.327,2.447,0.98c0.633,0.654,0.95,1.558,0.95,2.711c0,0.935-0.14,1.669-0.42,2.205
		c-0.28,0.535-0.688,0.951-1.224,1.247s-1.12,0.444-1.753,0.444c-1.016,0-1.838-0.326-2.464-0.978S41.787,530.271,41.787,529.045z
		 M43.052,529.045c0,0.93,0.203,1.626,0.608,2.089c0.406,0.462,0.916,0.693,1.531,0.693c0.611,0,1.119-0.232,1.524-0.697
		s0.608-1.174,0.608-2.126c0-0.897-0.204-1.578-0.612-2.04c-0.408-0.463-0.915-0.694-1.521-0.694c-0.615,0-1.125,0.23-1.531,0.69
		S43.052,528.115,43.052,529.045z"/>
	<path fill="#FFFFFF" d="M51.166,532.675h-1.142v-10.021h1.23v3.575c0.52-0.651,1.183-0.978,1.989-0.978
		c0.447,0,0.869,0.09,1.268,0.27c0.399,0.181,0.727,0.434,0.984,0.76c0.257,0.325,0.459,0.719,0.605,1.179s0.219,0.952,0.219,1.477
		c0,1.244-0.308,2.206-0.923,2.885s-1.354,1.019-2.215,1.019c-0.857,0-1.529-0.357-2.017-1.073V532.675z M51.152,528.99
		c0,0.87,0.119,1.499,0.355,1.887c0.387,0.634,0.912,0.95,1.572,0.95c0.538,0,1.002-0.233,1.395-0.701
		c0.392-0.467,0.588-1.163,0.588-2.088c0-0.948-0.188-1.647-0.564-2.099s-0.831-0.677-1.364-0.677c-0.538,0-1.002,0.233-1.395,0.701
		C51.348,527.431,51.152,528.106,51.152,528.99z"/>
	<path fill="#FFFFFF" d="M57.824,524.068v-1.415h1.23v1.415H57.824z M57.824,532.675v-7.26h1.23v7.26H57.824z"/>
	<path fill="#FFFFFF" d="M60.9,532.675v-10.021h1.23v10.021H60.9z"/>
	<path fill="#FFFFFF" d="M69.008,530.337l1.271,0.157c-0.201,0.743-0.572,1.319-1.114,1.729s-1.235,0.615-2.078,0.615
		c-1.062,0-1.904-0.327-2.526-0.98c-0.622-0.654-0.933-1.571-0.933-2.752c0-1.222,0.314-2.169,0.943-2.844s1.445-1.012,2.447-1.012
		c0.971,0,1.764,0.33,2.379,0.991s0.923,1.591,0.923,2.789c0,0.073-0.002,0.183-0.007,0.328h-5.414
		c0.045,0.798,0.271,1.408,0.677,1.832s0.912,0.636,1.518,0.636c0.451,0,0.836-0.118,1.155-0.355S68.821,530.856,69.008,530.337z
		 M64.968,528.348h4.054c-0.055-0.61-0.209-1.068-0.465-1.374c-0.392-0.474-0.9-0.711-1.524-0.711c-0.565,0-1.04,0.189-1.425,0.567
		S65.009,527.714,64.968,528.348z"/>
	<path fill="#FFFFFF" d="M32.439,545.961l1.326,0.335c-0.278,1.089-0.778,1.92-1.5,2.492c-0.722,0.571-1.605,0.857-2.649,0.857
		c-1.08,0-1.958-0.22-2.635-0.66c-0.677-0.439-1.192-1.076-1.545-1.91s-0.53-1.729-0.53-2.687c0-1.044,0.199-1.954,0.598-2.731
		c0.399-0.776,0.966-1.367,1.702-1.77c0.736-0.404,1.546-0.605,2.43-0.605c1.002,0,1.846,0.255,2.529,0.766s1.16,1.229,1.429,2.153
		l-1.306,0.308c-0.232-0.729-0.57-1.26-1.012-1.593s-0.998-0.499-1.668-0.499c-0.77,0-1.414,0.185-1.931,0.554
		s-0.881,0.864-1.09,1.487c-0.209,0.621-0.314,1.263-0.314,1.924c0,0.853,0.124,1.596,0.373,2.232
		c0.249,0.635,0.635,1.11,1.159,1.425s1.091,0.472,1.702,0.472c0.743,0,1.372-0.214,1.887-0.643S32.257,546.804,32.439,545.961z"/>
	<path fill="#FFFFFF" d="M34.784,545.845c0-1.345,0.374-2.34,1.121-2.987c0.625-0.538,1.385-0.807,2.283-0.807
		c0.998,0,1.814,0.327,2.447,0.981c0.633,0.653,0.95,1.557,0.95,2.71c0,0.935-0.14,1.669-0.42,2.204
		c-0.28,0.536-0.688,0.952-1.224,1.248s-1.12,0.444-1.753,0.444c-1.016,0-1.838-0.326-2.464-0.978S34.784,547.07,34.784,545.845z
		 M36.048,545.845c0,0.93,0.203,1.626,0.608,2.088c0.406,0.463,0.916,0.694,1.531,0.694c0.611,0,1.119-0.232,1.524-0.697
		s0.608-1.174,0.608-2.126c0-0.897-0.204-1.578-0.612-2.041c-0.408-0.462-0.915-0.693-1.521-0.693c-0.615,0-1.125,0.23-1.531,0.69
		S36.048,544.915,36.048,545.845z"/>
	<path fill="#FFFFFF" d="M43.028,549.475v-7.26h1.107v1.032c0.533-0.798,1.303-1.196,2.311-1.196c0.438,0,0.84,0.079,1.207,0.235
		c0.367,0.158,0.642,0.364,0.824,0.619s0.31,0.559,0.383,0.909c0.045,0.228,0.068,0.627,0.068,1.196v4.464h-1.23v-4.416
		c0-0.501-0.048-0.876-0.144-1.124c-0.096-0.249-0.266-0.447-0.509-0.596c-0.244-0.147-0.53-0.222-0.858-0.222
		c-0.524,0-0.977,0.166-1.357,0.499s-0.571,0.964-0.571,1.894v3.965H43.028z"/>
	<path fill="#FFFFFF" d="M50.814,549.475v-7.26h1.107v1.032c0.533-0.798,1.303-1.196,2.311-1.196c0.438,0,0.84,0.079,1.207,0.235
		c0.367,0.158,0.642,0.364,0.824,0.619s0.31,0.559,0.383,0.909c0.045,0.228,0.068,0.627,0.068,1.196v4.464h-1.23v-4.416
		c0-0.501-0.048-0.876-0.144-1.124c-0.096-0.249-0.266-0.447-0.509-0.596c-0.244-0.147-0.53-0.222-0.858-0.222
		c-0.524,0-0.977,0.166-1.357,0.499s-0.571,0.964-0.571,1.894v3.965H50.814z"/>
	<path fill="#FFFFFF" d="M63.57,547.137l1.271,0.157c-0.201,0.743-0.572,1.319-1.114,1.729s-1.235,0.615-2.078,0.615
		c-1.062,0-1.904-0.327-2.526-0.981c-0.622-0.653-0.933-1.57-0.933-2.751c0-1.222,0.314-2.169,0.943-2.844s1.445-1.012,2.447-1.012
		c0.971,0,1.764,0.33,2.379,0.991s0.923,1.591,0.923,2.789c0,0.073-0.002,0.183-0.007,0.328h-5.414
		c0.045,0.798,0.271,1.408,0.677,1.832s0.912,0.636,1.518,0.636c0.451,0,0.836-0.118,1.155-0.355S63.383,547.656,63.57,547.137z
		 M59.53,545.147h4.054c-0.055-0.61-0.209-1.068-0.465-1.374c-0.392-0.474-0.9-0.711-1.524-0.711c-0.565,0-1.04,0.189-1.425,0.567
		S59.571,544.514,59.53,545.147z"/>
	<path fill="#FFFFFF" d="M71.124,546.815l1.21,0.157c-0.132,0.834-0.471,1.487-1.015,1.958c-0.544,0.473-1.213,0.708-2.006,0.708
		c-0.994,0-1.792-0.325-2.396-0.974c-0.604-0.65-0.906-1.581-0.906-2.793c0-0.784,0.13-1.47,0.39-2.058s0.655-1.028,1.186-1.323
		c0.531-0.293,1.108-0.44,1.733-0.44c0.789,0,1.433,0.199,1.935,0.599c0.501,0.398,0.823,0.965,0.964,1.698l-1.196,0.185
		c-0.114-0.487-0.315-0.854-0.605-1.101s-0.639-0.369-1.049-0.369c-0.62,0-1.124,0.222-1.511,0.667
		c-0.387,0.443-0.581,1.146-0.581,2.108c0,0.976,0.187,1.684,0.561,2.126s0.861,0.663,1.463,0.663c0.483,0,0.886-0.148,1.21-0.444
		S71.037,547.431,71.124,546.815z"/>
	<path fill="#FFFFFF" d="M76.073,548.374l0.178,1.087c-0.346,0.073-0.656,0.109-0.93,0.109c-0.447,0-0.793-0.07-1.039-0.212
		s-0.419-0.327-0.52-0.557c-0.1-0.23-0.15-0.715-0.15-1.453v-4.177h-0.902v-0.957h0.902v-1.798l1.224-0.738v2.536h1.237v0.957
		h-1.237v4.245c0,0.351,0.021,0.576,0.065,0.677s0.114,0.18,0.212,0.239s0.238,0.089,0.42,0.089
		C75.669,548.422,75.85,548.406,76.073,548.374z"/>
</g>
<g>
	<path fill="#FFFFFF" d="M412.806,532.675l3.849-10.021h1.429l4.102,10.021h-1.511l-1.169-3.035h-4.19l-1.101,3.035H412.806z
		 M415.697,528.56h3.397l-1.046-2.775c-0.319-0.843-0.556-1.536-0.711-2.078c-0.128,0.643-0.308,1.28-0.54,1.914L415.697,528.56z"/>
	<path fill="#FFFFFF" d="M423.087,535.457v-10.042h1.121v0.943c0.265-0.369,0.563-0.646,0.896-0.83
		c0.333-0.186,0.736-0.277,1.21-0.277c0.62,0,1.167,0.159,1.641,0.479s0.832,0.77,1.073,1.35c0.241,0.582,0.362,1.219,0.362,1.911
		c0,0.743-0.134,1.411-0.399,2.007c-0.268,0.594-0.654,1.05-1.162,1.367c-0.509,0.316-1.043,0.475-1.604,0.475
		c-0.41,0-0.778-0.087-1.104-0.26c-0.326-0.173-0.594-0.392-0.804-0.656v3.534H423.087z M424.201,529.086
		c0,0.935,0.189,1.625,0.567,2.071s0.836,0.67,1.374,0.67c0.547,0,1.016-0.231,1.404-0.693c0.391-0.463,0.585-1.18,0.585-2.15
		c0-0.925-0.19-1.618-0.571-2.078c-0.38-0.46-0.835-0.69-1.363-0.69c-0.524,0-0.988,0.245-1.391,0.735
		C424.402,527.439,424.201,528.151,424.201,529.086z"/>
	<path fill="#FFFFFF" d="M430.873,535.457v-10.042h1.121v0.943c0.265-0.369,0.563-0.646,0.896-0.83
		c0.333-0.186,0.736-0.277,1.21-0.277c0.62,0,1.167,0.159,1.641,0.479s0.832,0.77,1.073,1.35c0.241,0.582,0.362,1.219,0.362,1.911
		c0,0.743-0.133,1.411-0.4,2.007c-0.266,0.594-0.653,1.05-1.162,1.367c-0.508,0.316-1.042,0.475-1.603,0.475
		c-0.41,0-0.778-0.087-1.104-0.26c-0.325-0.173-0.593-0.392-0.803-0.656v3.534H430.873z M431.987,529.086
		c0,0.935,0.189,1.625,0.567,2.071s0.836,0.67,1.374,0.67c0.547,0,1.015-0.231,1.405-0.693c0.389-0.463,0.584-1.18,0.584-2.15
		c0-0.925-0.19-1.618-0.57-2.078c-0.381-0.46-0.836-0.69-1.364-0.69c-0.524,0-0.987,0.245-1.392,0.735
		C432.189,527.439,431.987,528.151,431.987,529.086z"/>
	<path fill="#FFFFFF" d="M395.634,549.475v-10.021h3.452c0.779,0,1.374,0.048,1.784,0.144c0.574,0.132,1.064,0.371,1.47,0.718
		c0.528,0.446,0.924,1.018,1.186,1.712c0.263,0.695,0.394,1.489,0.394,2.383c0,0.761-0.089,1.436-0.267,2.023
		s-0.405,1.074-0.684,1.459c-0.278,0.386-0.582,0.688-0.912,0.91c-0.331,0.221-0.729,0.388-1.197,0.502
		c-0.467,0.114-1.003,0.171-1.609,0.171H395.634z M396.96,548.292h2.14c0.661,0,1.18-0.062,1.555-0.185
		c0.377-0.123,0.676-0.296,0.899-0.52c0.314-0.314,0.56-0.737,0.735-1.269c0.175-0.53,0.263-1.174,0.263-1.931
		c0-1.048-0.172-1.854-0.517-2.417c-0.344-0.563-0.762-0.939-1.254-1.131c-0.355-0.137-0.928-0.205-1.716-0.205h-2.105V548.292z"/>
	<path fill="#FFFFFF" d="M405.532,552.271l-0.137-1.155c0.269,0.073,0.504,0.109,0.704,0.109c0.273,0,0.492-0.046,0.656-0.137
		s0.299-0.219,0.403-0.383c0.077-0.123,0.203-0.429,0.376-0.916c0.022-0.068,0.06-0.169,0.109-0.301l-2.755-7.273h1.326l1.511,4.204
		c0.196,0.533,0.371,1.094,0.526,1.682c0.142-0.565,0.31-1.116,0.506-1.654l1.552-4.231h1.23l-2.762,7.383
		c-0.296,0.798-0.526,1.347-0.69,1.647c-0.219,0.405-0.47,0.703-0.752,0.893c-0.282,0.188-0.62,0.283-1.012,0.283
		C406.088,552.421,405.824,552.371,405.532,552.271z"/>
	<path fill="#FFFFFF" d="M412.587,549.475v-7.26h1.107v1.032c0.533-0.798,1.304-1.196,2.311-1.196c0.438,0,0.84,0.079,1.206,0.235
		c0.367,0.158,0.642,0.364,0.824,0.619s0.31,0.559,0.383,0.909c0.046,0.228,0.068,0.627,0.068,1.196v4.464h-1.23v-4.416
		c0-0.501-0.048-0.876-0.144-1.124c-0.096-0.249-0.266-0.447-0.509-0.596c-0.244-0.147-0.53-0.222-0.858-0.222
		c-0.524,0-0.977,0.166-1.356,0.499c-0.381,0.333-0.571,0.964-0.571,1.894v3.965H412.587z"/>
	<path fill="#FFFFFF" d="M425.11,548.579c-0.456,0.388-0.895,0.661-1.315,0.82c-0.422,0.159-0.874,0.239-1.357,0.239
		c-0.798,0-1.41-0.194-1.839-0.585c-0.429-0.389-0.643-0.887-0.643-1.493c0-0.355,0.081-0.681,0.243-0.974
		c0.161-0.295,0.373-0.53,0.635-0.708c0.263-0.178,0.558-0.313,0.886-0.403c0.241-0.063,0.606-0.125,1.094-0.185
		c0.993-0.118,1.725-0.26,2.194-0.424c0.005-0.169,0.007-0.275,0.007-0.321c0-0.501-0.116-0.854-0.349-1.06
		c-0.314-0.278-0.781-0.417-1.401-0.417c-0.579,0-1.006,0.102-1.282,0.305c-0.275,0.202-0.479,0.562-0.611,1.076l-1.203-0.164
		c0.109-0.515,0.289-0.931,0.54-1.248c0.251-0.316,0.613-0.561,1.087-0.73c0.474-0.172,1.023-0.257,1.647-0.257
		c0.62,0,1.123,0.073,1.511,0.219s0.672,0.329,0.854,0.55c0.183,0.222,0.31,0.501,0.383,0.838c0.041,0.21,0.062,0.588,0.062,1.135
		v1.641c0,1.144,0.026,1.867,0.078,2.17c0.053,0.304,0.156,0.594,0.312,0.872h-1.285C425.229,549.22,425.146,548.921,425.11,548.579
		z M425.008,545.831c-0.446,0.183-1.116,0.337-2.01,0.465c-0.506,0.073-0.863,0.155-1.073,0.246s-0.371,0.225-0.485,0.4
		c-0.114,0.175-0.171,0.37-0.171,0.584c0,0.328,0.124,0.602,0.372,0.82c0.249,0.219,0.612,0.328,1.091,0.328
		c0.474,0,0.896-0.104,1.265-0.311c0.369-0.208,0.641-0.491,0.813-0.852c0.132-0.278,0.198-0.688,0.198-1.23V545.831z"/>
	<path fill="#FFFFFF" d="M428.159,549.475v-7.26h1.101v1.019c0.228-0.355,0.531-0.642,0.909-0.857
		c0.378-0.217,0.809-0.325,1.292-0.325c0.538,0,0.979,0.111,1.322,0.335c0.345,0.224,0.587,0.535,0.729,0.937
		c0.574-0.848,1.321-1.271,2.242-1.271c0.72,0,1.273,0.199,1.661,0.599c0.388,0.398,0.581,1.013,0.581,1.842v4.983h-1.224v-4.573
		c0-0.492-0.04-0.847-0.12-1.063c-0.079-0.217-0.224-0.392-0.434-0.523s-0.456-0.198-0.738-0.198c-0.511,0-0.935,0.17-1.271,0.509
		c-0.337,0.34-0.506,0.884-0.506,1.631v4.218h-1.23v-4.717c0-0.547-0.101-0.957-0.301-1.23s-0.528-0.41-0.984-0.41
		c-0.347,0-0.666,0.091-0.961,0.273c-0.293,0.183-0.507,0.449-0.639,0.8s-0.198,0.856-0.198,1.518v3.767H428.159z"/>
	<path fill="#FFFFFF" d="M439.828,540.868v-1.415h1.23v1.415H439.828z M439.828,549.475v-7.26h1.23v7.26H439.828z"/>
	<path fill="#FFFFFF" d="M447.669,546.815l1.21,0.157c-0.132,0.834-0.471,1.487-1.016,1.958c-0.544,0.473-1.213,0.708-2.006,0.708
		c-0.993,0-1.792-0.325-2.396-0.974c-0.604-0.65-0.905-1.581-0.905-2.793c0-0.784,0.13-1.47,0.39-2.058s0.655-1.028,1.186-1.323
		c0.531-0.293,1.109-0.44,1.733-0.44c0.788,0,1.434,0.199,1.935,0.599c0.501,0.398,0.822,0.965,0.964,1.698l-1.196,0.185
		c-0.114-0.487-0.315-0.854-0.605-1.101c-0.289-0.246-0.639-0.369-1.049-0.369c-0.62,0-1.123,0.222-1.511,0.667
		c-0.388,0.443-0.581,1.146-0.581,2.108c0,0.976,0.187,1.684,0.561,2.126s0.861,0.663,1.463,0.663c0.483,0,0.887-0.148,1.21-0.444
		S447.582,547.431,447.669,546.815z"/>
	<path fill="#FFFFFF" d="M449.439,547.308l1.217-0.191c0.068,0.487,0.259,0.861,0.57,1.121c0.313,0.26,0.749,0.39,1.31,0.39
		c0.565,0,0.984-0.115,1.258-0.345c0.273-0.23,0.41-0.501,0.41-0.811c0-0.278-0.121-0.497-0.362-0.656
		c-0.169-0.109-0.588-0.248-1.258-0.417c-0.902-0.228-1.527-0.425-1.877-0.591c-0.348-0.167-0.612-0.396-0.793-0.691
		c-0.18-0.293-0.27-0.618-0.27-0.974c0-0.323,0.074-0.623,0.223-0.899c0.147-0.275,0.35-0.504,0.604-0.687
		c0.191-0.142,0.452-0.261,0.782-0.358c0.331-0.099,0.686-0.147,1.063-0.147c0.569,0,1.069,0.082,1.501,0.246
		c0.43,0.164,0.748,0.386,0.953,0.667c0.205,0.279,0.347,0.654,0.424,1.124l-1.203,0.164c-0.055-0.374-0.213-0.665-0.475-0.875
		c-0.263-0.21-0.633-0.314-1.111-0.314c-0.565,0-0.969,0.094-1.21,0.28s-0.362,0.405-0.362,0.656c0,0.159,0.05,0.303,0.15,0.431
		c0.101,0.132,0.258,0.241,0.472,0.328c0.123,0.046,0.485,0.15,1.087,0.314c0.87,0.232,1.478,0.423,1.822,0.571
		c0.344,0.147,0.613,0.363,0.81,0.646s0.294,0.634,0.294,1.053c0,0.41-0.119,0.796-0.359,1.159c-0.238,0.361-0.584,0.643-1.035,0.84
		c-0.451,0.199-0.962,0.298-1.531,0.298c-0.943,0-1.662-0.196-2.156-0.588C449.892,548.659,449.576,548.078,449.439,547.308z"/>
</g>
<g>
	<path fill="#FFFFFF" d="M348.027,372.32l1.43-0.125c0.067,0.573,0.226,1.043,0.473,1.41s0.632,0.664,1.152,0.891
		s1.106,0.34,1.758,0.34c0.578,0,1.089-0.086,1.531-0.258s0.772-0.407,0.988-0.707s0.324-0.626,0.324-0.98
		c0-0.359-0.104-0.673-0.313-0.941s-0.552-0.493-1.031-0.676c-0.308-0.12-0.987-0.306-2.039-0.559s-1.789-0.491-2.211-0.715
		c-0.547-0.286-0.954-0.642-1.223-1.066s-0.402-0.899-0.402-1.426c0-0.578,0.164-1.118,0.492-1.621s0.808-0.884,1.438-1.145
		s1.331-0.391,2.102-0.391c0.849,0,1.598,0.137,2.246,0.41s1.147,0.676,1.496,1.207s0.536,1.133,0.563,1.805l-1.453,0.109
		c-0.078-0.724-0.343-1.271-0.793-1.641s-1.116-0.555-1.996-0.555c-0.917,0-1.585,0.168-2.004,0.504s-0.629,0.741-0.629,1.215
		c0,0.411,0.148,0.75,0.445,1.016c0.292,0.266,1.054,0.538,2.285,0.816s2.077,0.522,2.535,0.73c0.667,0.308,1.159,0.696,1.477,1.168
		s0.477,1.015,0.477,1.629c0,0.609-0.175,1.184-0.523,1.723s-0.851,0.958-1.504,1.258s-1.39,0.449-2.207,0.449
		c-1.036,0-1.905-0.151-2.605-0.453s-1.25-0.757-1.648-1.363S348.048,373.086,348.027,372.32z"/>
	<path fill="#FFFFFF" d="M364.449,374.977c-0.521,0.442-1.022,0.755-1.504,0.938s-0.999,0.273-1.551,0.273
		c-0.911,0-1.612-0.223-2.102-0.668s-0.734-1.015-0.734-1.707c0-0.406,0.093-0.777,0.277-1.113s0.427-0.605,0.727-0.809
		s0.637-0.356,1.012-0.461c0.276-0.073,0.692-0.144,1.25-0.211c1.136-0.136,1.972-0.297,2.508-0.484
		c0.005-0.192,0.008-0.315,0.008-0.367c0-0.573-0.133-0.977-0.398-1.211c-0.359-0.317-0.894-0.477-1.602-0.477
		c-0.661,0-1.149,0.116-1.465,0.348s-0.548,0.642-0.699,1.23l-1.375-0.188c0.125-0.589,0.331-1.063,0.617-1.426
		s0.7-0.641,1.242-0.836s1.169-0.293,1.883-0.293c0.708,0,1.284,0.083,1.727,0.25s0.769,0.376,0.977,0.629s0.354,0.571,0.438,0.957
		c0.047,0.239,0.07,0.672,0.07,1.297v1.875c0,1.308,0.03,2.134,0.09,2.48s0.179,0.679,0.355,0.996h-1.469
		C364.585,375.708,364.491,375.367,364.449,374.977z M364.332,371.836c-0.511,0.208-1.276,0.386-2.297,0.531
		c-0.578,0.083-0.987,0.177-1.227,0.281s-0.425,0.257-0.555,0.457s-0.195,0.423-0.195,0.668c0,0.375,0.142,0.688,0.426,0.938
		s0.699,0.375,1.246,0.375c0.542,0,1.023-0.118,1.445-0.355s0.731-0.562,0.93-0.973c0.151-0.317,0.227-0.786,0.227-1.406V371.836z"
		/>
	<path fill="#FFFFFF" d="M367.902,376v-11.453h1.406V376H367.902z"/>
	<path fill="#FFFFFF" d="M377.168,373.328l1.453,0.18c-0.229,0.849-0.653,1.508-1.273,1.977s-1.411,0.703-2.375,0.703
		c-1.214,0-2.176-0.374-2.887-1.121s-1.066-1.796-1.066-3.145c0-1.396,0.359-2.479,1.078-3.25s1.651-1.156,2.797-1.156
		c1.109,0,2.016,0.378,2.719,1.133s1.055,1.817,1.055,3.188c0,0.083-0.003,0.208-0.008,0.375h-6.188
		c0.052,0.911,0.31,1.609,0.773,2.094s1.042,0.727,1.734,0.727c0.516,0,0.956-0.136,1.32-0.406S376.954,373.922,377.168,373.328z
		 M372.551,371.055h4.633c-0.063-0.698-0.239-1.222-0.531-1.57c-0.448-0.542-1.028-0.813-1.742-0.813
		c-0.646,0-1.188,0.216-1.629,0.648S372.598,370.331,372.551,371.055z"/>
	<path fill="#FFFFFF" d="M379.824,373.523l1.391-0.219c0.078,0.558,0.296,0.984,0.652,1.281s0.855,0.445,1.496,0.445
		c0.646,0,1.125-0.132,1.438-0.395s0.469-0.571,0.469-0.926c0-0.317-0.138-0.567-0.414-0.75c-0.192-0.125-0.672-0.284-1.438-0.477
		c-1.031-0.261-1.746-0.485-2.145-0.676s-0.7-0.453-0.906-0.789s-0.309-0.707-0.309-1.113c0-0.37,0.085-0.712,0.254-1.027
		s0.399-0.577,0.691-0.785c0.219-0.161,0.517-0.298,0.895-0.41s0.782-0.168,1.215-0.168c0.651,0,1.223,0.094,1.715,0.281
		s0.855,0.441,1.09,0.762s0.396,0.749,0.484,1.285l-1.375,0.188c-0.063-0.427-0.243-0.761-0.543-1s-0.723-0.359-1.27-0.359
		c-0.646,0-1.106,0.106-1.383,0.32s-0.414,0.464-0.414,0.75c0,0.183,0.058,0.347,0.172,0.492c0.114,0.151,0.294,0.276,0.539,0.375
		c0.141,0.052,0.555,0.172,1.242,0.359c0.995,0.266,1.688,0.483,2.082,0.652s0.702,0.415,0.926,0.738s0.336,0.724,0.336,1.203
		c0,0.469-0.137,0.91-0.41,1.324s-0.668,0.734-1.184,0.961s-1.099,0.34-1.75,0.34c-1.078,0-1.899-0.224-2.465-0.672
		S379.98,374.403,379.824,373.523z"/>
	<path fill="#FFFFFF" d="M388.723,376v-7.203h-1.242v-1.094h1.242v-0.883c0-0.558,0.05-0.972,0.148-1.242
		c0.136-0.364,0.374-0.66,0.715-0.887s0.819-0.34,1.434-0.34c0.396,0,0.833,0.047,1.313,0.141l-0.211,1.227
		c-0.292-0.052-0.567-0.078-0.828-0.078c-0.427,0-0.729,0.091-0.906,0.273s-0.266,0.523-0.266,1.023v0.766h1.617v1.094h-1.617V376
		H388.723z"/>
	<path fill="#FFFFFF" d="M392.309,371.852c0-1.536,0.427-2.675,1.281-3.414c0.714-0.614,1.583-0.922,2.609-0.922
		c1.141,0,2.073,0.374,2.797,1.121s1.086,1.78,1.086,3.098c0,1.067-0.16,1.907-0.48,2.52s-0.786,1.087-1.398,1.426
		s-1.28,0.508-2.004,0.508c-1.161,0-2.101-0.372-2.816-1.117S392.309,373.253,392.309,371.852z M393.754,371.852
		c0,1.063,0.231,1.858,0.695,2.387s1.047,0.793,1.75,0.793c0.698,0,1.278-0.266,1.742-0.797s0.695-1.341,0.695-2.43
		c0-1.026-0.233-1.804-0.699-2.332s-1.046-0.793-1.738-0.793c-0.703,0-1.286,0.263-1.75,0.789S393.754,370.789,393.754,371.852z"/>
	<path fill="#FFFFFF" d="M401.715,376v-8.297h1.266v1.258c0.323-0.589,0.621-0.977,0.895-1.164s0.574-0.281,0.902-0.281
		c0.474,0,0.956,0.151,1.445,0.453l-0.484,1.305c-0.344-0.203-0.688-0.305-1.031-0.305c-0.308,0-0.583,0.093-0.828,0.277
		s-0.419,0.441-0.523,0.77c-0.156,0.5-0.234,1.047-0.234,1.641V376H401.715z"/>
	<path fill="#FFFFFF" d="M412.473,372.961l1.383,0.18c-0.151,0.953-0.538,1.699-1.16,2.238s-1.387,0.809-2.293,0.809
		c-1.136,0-2.048-0.371-2.738-1.113s-1.035-1.806-1.035-3.191c0-0.896,0.148-1.68,0.445-2.352s0.749-1.176,1.355-1.512
		s1.267-0.504,1.98-0.504c0.901,0,1.638,0.228,2.211,0.684s0.94,1.103,1.102,1.941l-1.367,0.211c-0.13-0.558-0.36-0.977-0.691-1.258
		s-0.73-0.422-1.199-0.422c-0.708,0-1.284,0.254-1.727,0.762s-0.664,1.312-0.664,2.41c0,1.114,0.214,1.925,0.641,2.43
		s0.984,0.758,1.672,0.758c0.552,0,1.013-0.169,1.383-0.508S412.374,373.664,412.473,372.961z"/>
	<path fill="#FFFFFF" d="M420.738,373.328l1.453,0.18c-0.229,0.849-0.653,1.508-1.273,1.977s-1.411,0.703-2.375,0.703
		c-1.214,0-2.176-0.374-2.887-1.121s-1.066-1.796-1.066-3.145c0-1.396,0.359-2.479,1.078-3.25s1.651-1.156,2.797-1.156
		c1.109,0,2.016,0.378,2.719,1.133s1.055,1.817,1.055,3.188c0,0.083-0.003,0.208-0.008,0.375h-6.188
		c0.052,0.911,0.31,1.609,0.773,2.094s1.042,0.727,1.734,0.727c0.516,0,0.956-0.136,1.32-0.406S420.524,373.922,420.738,373.328z
		 M416.121,371.055h4.633c-0.063-0.698-0.239-1.222-0.531-1.57c-0.448-0.542-1.028-0.813-1.742-0.813
		c-0.646,0-1.188,0.216-1.629,0.648S416.168,370.331,416.121,371.055z"/>
</g>
<rect x="84.105" y="407" fill="#472F91" width="111" height="57"/>
<g>
	<path fill="#FFFFFF" d="M115.073,436.397l1.251-0.109c0.059,0.501,0.197,0.913,0.414,1.233c0.216,0.322,0.553,0.582,1.008,0.779
		c0.456,0.199,0.968,0.298,1.538,0.298c0.506,0,0.953-0.075,1.34-0.226s0.676-0.356,0.865-0.619
		c0.189-0.262,0.284-0.548,0.284-0.857c0-0.314-0.091-0.589-0.273-0.824c-0.182-0.234-0.483-0.432-0.902-0.591
		c-0.269-0.104-0.864-0.268-1.784-0.489c-0.92-0.221-1.565-0.429-1.935-0.625c-0.479-0.251-0.835-0.562-1.07-0.934
		c-0.235-0.371-0.352-0.787-0.352-1.247c0-0.506,0.144-0.979,0.431-1.419c0.287-0.439,0.707-0.773,1.258-1.001
		s1.165-0.342,1.839-0.342c0.743,0,1.398,0.12,1.965,0.358c0.567,0.24,1.004,0.592,1.309,1.057s0.469,0.991,0.492,1.579
		l-1.271,0.096c-0.068-0.634-0.3-1.112-0.694-1.436s-0.977-0.485-1.747-0.485c-0.802,0-1.387,0.146-1.753,0.441
		c-0.367,0.293-0.55,0.647-0.55,1.063c0,0.36,0.13,0.656,0.39,0.889c0.255,0.232,0.922,0.471,2,0.715
		c1.078,0.243,1.817,0.456,2.218,0.639c0.583,0.269,1.014,0.609,1.292,1.021c0.278,0.413,0.417,0.888,0.417,1.426
		c0,0.533-0.153,1.035-0.458,1.508c-0.305,0.471-0.744,0.838-1.316,1.1c-0.572,0.263-1.216,0.394-1.931,0.394
		c-0.907,0-1.667-0.132-2.28-0.396s-1.094-0.662-1.442-1.192C115.275,437.668,115.091,437.067,115.073,436.397z"/>
	<path fill="#FFFFFF" d="M129.675,437.279l1.271,0.157c-0.201,0.743-0.572,1.319-1.114,1.729s-1.235,0.615-2.078,0.615
		c-1.062,0-1.904-0.327-2.526-0.98c-0.622-0.654-0.933-1.571-0.933-2.752c0-1.222,0.314-2.169,0.943-2.844s1.445-1.012,2.447-1.012
		c0.971,0,1.764,0.33,2.379,0.991s0.923,1.591,0.923,2.789c0,0.073-0.002,0.183-0.007,0.328h-5.414
		c0.045,0.798,0.271,1.408,0.677,1.832s0.912,0.636,1.518,0.636c0.451,0,0.836-0.118,1.155-0.355S129.488,437.799,129.675,437.279z
		 M125.635,435.29h4.054c-0.055-0.61-0.209-1.068-0.465-1.374c-0.392-0.474-0.9-0.711-1.524-0.711c-0.565,0-1.04,0.189-1.425,0.567
		S125.676,434.656,125.635,435.29z"/>
	<path fill="#FFFFFF" d="M137.229,436.958l1.21,0.157c-0.132,0.834-0.471,1.486-1.015,1.959c-0.544,0.471-1.213,0.707-2.006,0.707
		c-0.994,0-1.792-0.324-2.396-0.975c-0.604-0.648-0.906-1.58-0.906-2.792c0-0.784,0.13-1.47,0.39-2.058s0.655-1.029,1.186-1.322
		c0.531-0.295,1.108-0.441,1.733-0.441c0.789,0,1.433,0.199,1.935,0.598c0.501,0.399,0.823,0.966,0.964,1.699l-1.196,0.185
		c-0.114-0.487-0.315-0.854-0.605-1.101s-0.639-0.369-1.049-0.369c-0.62,0-1.124,0.223-1.511,0.666
		c-0.387,0.445-0.581,1.147-0.581,2.109c0,0.976,0.187,1.684,0.561,2.126s0.861,0.663,1.463,0.663c0.483,0,0.886-0.148,1.21-0.444
		S137.142,437.573,137.229,436.958z"/>
	<path fill="#FFFFFF" d="M144.249,439.617v-1.066c-0.565,0.82-1.333,1.23-2.304,1.23c-0.428,0-0.828-0.082-1.2-0.246
		s-0.647-0.37-0.827-0.619c-0.18-0.248-0.307-0.552-0.379-0.912c-0.05-0.241-0.075-0.624-0.075-1.148v-4.498h1.23v4.026
		c0,0.643,0.025,1.075,0.075,1.299c0.078,0.323,0.242,0.577,0.492,0.763c0.25,0.184,0.561,0.276,0.93,0.276s0.715-0.095,1.039-0.284
		c0.324-0.188,0.553-0.446,0.687-0.771c0.134-0.326,0.202-0.799,0.202-1.419v-3.89h1.23v7.26H144.249z"/>
	<path fill="#FFFFFF" d="M147.264,439.617v-7.26h1.107v1.101c0.283-0.515,0.543-0.854,0.783-1.019s0.502-0.246,0.79-0.246
		c0.415,0,0.836,0.132,1.265,0.396l-0.424,1.142c-0.301-0.178-0.602-0.267-0.902-0.267c-0.269,0-0.51,0.081-0.725,0.242
		c-0.214,0.162-0.367,0.387-0.458,0.674c-0.137,0.438-0.205,0.916-0.205,1.436v3.801H147.264z"/>
	<path fill="#FFFFFF" d="M151.946,431.011v-1.415h1.23v1.415H151.946z M151.946,439.617v-7.26h1.23v7.26H151.946z"/>
	<path fill="#FFFFFF" d="M157.736,438.517l0.178,1.087c-0.346,0.073-0.656,0.109-0.93,0.109c-0.447,0-0.793-0.07-1.039-0.212
		s-0.419-0.327-0.52-0.558c-0.1-0.229-0.15-0.714-0.15-1.452v-4.177h-0.902v-0.957h0.902v-1.798l1.224-0.738v2.536h1.237v0.957
		h-1.237v4.245c0,0.351,0.021,0.576,0.065,0.677s0.114,0.18,0.212,0.239s0.238,0.089,0.42,0.089
		C157.333,438.564,157.513,438.549,157.736,438.517z"/>
	<path fill="#FFFFFF" d="M158.885,442.413l-0.137-1.155c0.269,0.073,0.503,0.109,0.704,0.109c0.273,0,0.492-0.046,0.656-0.137
		s0.298-0.219,0.403-0.383c0.078-0.123,0.203-0.429,0.376-0.916c0.023-0.068,0.059-0.169,0.109-0.301l-2.755-7.273h1.326
		l1.511,4.204c0.196,0.533,0.372,1.094,0.526,1.682c0.141-0.565,0.31-1.116,0.506-1.654l1.552-4.231h1.23l-2.762,7.383
		c-0.296,0.798-0.526,1.347-0.69,1.647c-0.219,0.405-0.469,0.703-0.752,0.892c-0.283,0.189-0.62,0.284-1.012,0.284
		C159.441,442.563,159.176,442.514,158.885,442.413z"/>
</g>
<line fill="none" stroke="#000000" stroke-width="4" stroke-miterlimit="10" x1="84.105" y1="466" x2="195.105" y2="466"/>
<line fill="none" stroke="#000000" stroke-width="4" stroke-miterlimit="10" x1="326.105" y1="344" x2="326.105" y2="401"/>
<line fill="none" stroke="#000000" stroke-width="4" stroke-miterlimit="10" x1="366.105" y1="230" x2="366.105" y2="287"/>
<rect x="368.105" y="230" fill="#472F91" width="96" height="57"/>
<g>
	<path fill="#FFFFFF" d="M387.414,248.484l1.516,0.383c-0.317,1.245-0.89,2.194-1.715,2.848c-0.825,0.654-1.835,0.98-3.027,0.98
		c-1.234,0-2.238-0.251-3.012-0.754c-0.773-0.502-1.362-1.23-1.766-2.184s-0.605-1.977-0.605-3.07c0-1.192,0.228-2.233,0.684-3.121
		c0.456-0.888,1.104-1.563,1.945-2.023s1.767-0.691,2.777-0.691c1.146,0,2.109,0.292,2.891,0.875
		c0.781,0.583,1.325,1.404,1.633,2.461l-1.492,0.352c-0.266-0.833-0.651-1.44-1.156-1.82c-0.505-0.38-1.141-0.57-1.906-0.57
		c-0.88,0-1.616,0.211-2.207,0.633s-1.007,0.988-1.246,1.699s-0.359,1.444-0.359,2.199c0,0.974,0.142,1.824,0.426,2.551
		s0.726,1.27,1.324,1.629s1.247,0.539,1.945,0.539c0.849,0,1.567-0.245,2.156-0.734
		C386.808,250.175,387.206,249.448,387.414,248.484z"/>
	<path fill="#FFFFFF" d="M390.094,248.352c0-1.536,0.427-2.674,1.281-3.414c0.714-0.614,1.583-0.922,2.609-0.922
		c1.141,0,2.073,0.374,2.797,1.121c0.724,0.748,1.086,1.78,1.086,3.098c0,1.068-0.16,1.908-0.48,2.52
		c-0.32,0.612-0.786,1.087-1.398,1.426s-1.28,0.508-2.004,0.508c-1.161,0-2.101-0.372-2.816-1.117
		C390.452,250.826,390.094,249.753,390.094,248.352z M391.539,248.352c0,1.063,0.231,1.858,0.695,2.387
		c0.464,0.529,1.047,0.793,1.75,0.793c0.698,0,1.278-0.266,1.742-0.797s0.695-1.341,0.695-2.43c0-1.026-0.233-1.803-0.699-2.332
		c-0.466-0.528-1.046-0.793-1.738-0.793c-0.703,0-1.286,0.263-1.75,0.789C391.771,246.495,391.539,247.289,391.539,248.352z"/>
	<path fill="#FFFFFF" d="M399.516,252.5v-8.297h1.266v1.18c0.609-0.911,1.489-1.367,2.641-1.367c0.5,0,0.96,0.09,1.379,0.27
		s0.733,0.416,0.941,0.707c0.208,0.292,0.354,0.638,0.438,1.039c0.052,0.261,0.078,0.716,0.078,1.367v5.102h-1.406v-5.047
		c0-0.573-0.055-1.001-0.164-1.285c-0.109-0.284-0.304-0.51-0.582-0.68c-0.278-0.169-0.605-0.254-0.98-0.254
		c-0.599,0-1.116,0.19-1.551,0.57c-0.435,0.38-0.652,1.102-0.652,2.164v4.531H399.516z"/>
	<path fill="#FFFFFF" d="M411.484,251.242l0.203,1.242c-0.396,0.083-0.75,0.125-1.063,0.125c-0.511,0-0.906-0.081-1.188-0.242
		s-0.479-0.374-0.594-0.637c-0.114-0.263-0.172-0.816-0.172-1.66v-4.773h-1.031v-1.094h1.031v-2.055l1.398-0.844v2.898h1.414v1.094
		h-1.414v4.852c0,0.401,0.024,0.659,0.074,0.773c0.05,0.115,0.13,0.206,0.242,0.273c0.112,0.068,0.272,0.102,0.48,0.102
		C411.023,251.297,411.229,251.279,411.484,251.242z"/>
	<path fill="#FFFFFF" d="M412.867,242.664v-1.617h1.406v1.617H412.867z M412.867,252.5v-8.297h1.406v8.297H412.867z"/>
	<path fill="#FFFFFF" d="M416.414,252.5v-8.297h1.266v1.18c0.609-0.911,1.489-1.367,2.641-1.367c0.5,0,0.96,0.09,1.379,0.27
		s0.733,0.416,0.941,0.707c0.208,0.292,0.354,0.638,0.438,1.039c0.052,0.261,0.078,0.716,0.078,1.367v5.102h-1.406v-5.047
		c0-0.573-0.055-1.001-0.164-1.285c-0.109-0.284-0.304-0.51-0.582-0.68c-0.278-0.169-0.605-0.254-0.98-0.254
		c-0.599,0-1.116,0.19-1.551,0.57c-0.435,0.38-0.652,1.102-0.652,2.164v4.531H416.414z"/>
	<path fill="#FFFFFF" d="M430.75,252.5v-1.219c-0.646,0.938-1.523,1.406-2.633,1.406c-0.489,0-0.946-0.094-1.371-0.281
		s-0.739-0.423-0.945-0.707c-0.206-0.284-0.351-0.631-0.434-1.043c-0.058-0.276-0.086-0.713-0.086-1.313v-5.141h1.406v4.602
		c0,0.734,0.028,1.229,0.086,1.484c0.089,0.37,0.276,0.66,0.563,0.871s0.641,0.316,1.063,0.316s0.817-0.108,1.188-0.324
		c0.37-0.216,0.632-0.51,0.785-0.883c0.153-0.372,0.23-0.913,0.23-1.621v-4.445h1.406v8.297H430.75z"/>
	<path fill="#FFFFFF" d="M433.688,248.352c0-1.536,0.427-2.674,1.281-3.414c0.714-0.614,1.583-0.922,2.609-0.922
		c1.141,0,2.073,0.374,2.797,1.121c0.724,0.748,1.086,1.78,1.086,3.098c0,1.068-0.16,1.908-0.48,2.52
		c-0.32,0.612-0.786,1.087-1.398,1.426s-1.28,0.508-2.004,0.508c-1.161,0-2.101-0.372-2.816-1.117
		C434.046,250.826,433.688,249.753,433.688,248.352z M435.133,248.352c0,1.063,0.231,1.858,0.695,2.387
		c0.464,0.529,1.047,0.793,1.75,0.793c0.698,0,1.278-0.266,1.742-0.797s0.695-1.341,0.695-2.43c0-1.026-0.233-1.803-0.699-2.332
		c-0.466-0.528-1.046-0.793-1.738-0.793c-0.703,0-1.286,0.263-1.75,0.789C435.364,246.495,435.133,247.289,435.133,248.352z"/>
	<path fill="#FFFFFF" d="M448.547,252.5v-1.219c-0.646,0.938-1.523,1.406-2.633,1.406c-0.489,0-0.946-0.094-1.371-0.281
		s-0.739-0.423-0.945-0.707c-0.206-0.284-0.351-0.631-0.434-1.043c-0.058-0.276-0.086-0.713-0.086-1.313v-5.141h1.406v4.602
		c0,0.734,0.028,1.229,0.086,1.484c0.089,0.37,0.276,0.66,0.563,0.871s0.641,0.316,1.063,0.316s0.817-0.108,1.188-0.324
		c0.37-0.216,0.632-0.51,0.785-0.883c0.153-0.372,0.23-0.913,0.23-1.621v-4.445h1.406v8.297H448.547z"/>
	<path fill="#FFFFFF" d="M451.445,250.023l1.391-0.219c0.078,0.558,0.296,0.984,0.652,1.281s0.855,0.445,1.496,0.445
		c0.646,0,1.125-0.131,1.438-0.395c0.313-0.263,0.469-0.571,0.469-0.926c0-0.317-0.138-0.567-0.414-0.75
		c-0.192-0.125-0.672-0.284-1.438-0.477c-1.031-0.26-1.746-0.485-2.145-0.676c-0.398-0.19-0.7-0.453-0.906-0.789
		s-0.309-0.707-0.309-1.113c0-0.37,0.085-0.712,0.254-1.027c0.169-0.315,0.399-0.577,0.691-0.785
		c0.219-0.161,0.517-0.298,0.895-0.41c0.378-0.112,0.782-0.168,1.215-0.168c0.651,0,1.223,0.094,1.715,0.281s0.855,0.441,1.09,0.762
		s0.396,0.749,0.484,1.285l-1.375,0.188c-0.063-0.427-0.243-0.76-0.543-1c-0.3-0.239-0.723-0.359-1.27-0.359
		c-0.646,0-1.106,0.107-1.383,0.32c-0.276,0.214-0.414,0.464-0.414,0.75c0,0.183,0.058,0.347,0.172,0.492
		c0.114,0.151,0.294,0.276,0.539,0.375c0.141,0.052,0.555,0.172,1.242,0.359c0.995,0.266,1.688,0.483,2.082,0.652
		c0.394,0.169,0.702,0.416,0.926,0.738c0.224,0.323,0.336,0.724,0.336,1.203c0,0.469-0.137,0.91-0.41,1.324
		s-0.668,0.734-1.184,0.961s-1.099,0.34-1.75,0.34c-1.078,0-1.899-0.224-2.465-0.672
		C451.962,251.568,451.602,250.904,451.445,250.023z"/>
	<path fill="#FFFFFF" d="M382.168,271.7v-11.453h1.516V271.7H382.168z"/>
	<path fill="#FFFFFF" d="M386.176,271.7v-8.297h1.266v1.18c0.609-0.911,1.489-1.367,2.641-1.367c0.5,0,0.96,0.09,1.379,0.27
		s0.733,0.416,0.941,0.707c0.208,0.292,0.354,0.638,0.438,1.039c0.052,0.261,0.078,0.716,0.078,1.367v5.102h-1.406v-5.047
		c0-0.573-0.055-1.001-0.164-1.285c-0.109-0.284-0.304-0.51-0.582-0.68c-0.278-0.169-0.605-0.254-0.98-0.254
		c-0.599,0-1.116,0.19-1.551,0.57c-0.435,0.38-0.652,1.102-0.652,2.164v4.531H386.176z"/>
	<path fill="#FFFFFF" d="M398.145,270.442l0.203,1.242c-0.396,0.083-0.75,0.125-1.063,0.125c-0.511,0-0.906-0.081-1.188-0.242
		s-0.479-0.374-0.594-0.637s-0.172-0.816-0.172-1.66v-4.773h-1.031v-1.094h1.031v-2.055l1.398-0.844v2.898h1.414v1.094h-1.414v4.852
		c0,0.401,0.024,0.659,0.074,0.773c0.05,0.115,0.13,0.206,0.242,0.273c0.112,0.068,0.272,0.102,0.48,0.102
		C397.684,270.497,397.89,270.479,398.145,270.442z"/>
	<path fill="#FFFFFF" d="M405.199,269.028l1.453,0.18c-0.229,0.849-0.653,1.508-1.273,1.977s-1.411,0.703-2.375,0.703
		c-1.214,0-2.176-0.374-2.887-1.121s-1.066-1.795-1.066-3.145c0-1.396,0.359-2.479,1.078-3.25c0.719-0.771,1.651-1.156,2.797-1.156
		c1.109,0,2.016,0.378,2.719,1.133c0.703,0.755,1.055,1.818,1.055,3.188c0,0.083-0.003,0.208-0.008,0.375h-6.188
		c0.052,0.912,0.31,1.609,0.773,2.094s1.042,0.727,1.734,0.727c0.516,0,0.956-0.135,1.32-0.406
		C404.696,270.055,404.985,269.622,405.199,269.028z M400.582,266.755h4.633c-0.063-0.698-0.239-1.221-0.531-1.57
		c-0.448-0.542-1.028-0.813-1.742-0.813c-0.646,0-1.188,0.216-1.629,0.648C400.872,265.453,400.629,266.031,400.582,266.755z"/>
	<path fill="#FFFFFF" d="M408.16,272.388l1.367,0.203c0.058,0.422,0.216,0.729,0.477,0.922c0.349,0.261,0.825,0.391,1.43,0.391
		c0.651,0,1.153-0.13,1.508-0.391s0.594-0.625,0.719-1.094c0.073-0.286,0.106-0.888,0.102-1.805
		c-0.614,0.724-1.38,1.086-2.297,1.086c-1.141,0-2.023-0.411-2.648-1.234c-0.625-0.823-0.938-1.81-0.938-2.961
		c0-0.792,0.144-1.522,0.43-2.191c0.286-0.669,0.702-1.186,1.246-1.551c0.544-0.364,1.184-0.547,1.918-0.547
		c0.979,0,1.786,0.396,2.422,1.188v-1h1.297v7.172c0,1.292-0.132,2.207-0.395,2.746s-0.68,0.965-1.25,1.277
		s-1.272,0.469-2.105,0.469c-0.989,0-1.789-0.223-2.398-0.668S408.14,273.283,408.16,272.388z M409.324,267.403
		c0,1.089,0.216,1.883,0.648,2.383s0.974,0.75,1.625,0.75c0.646,0,1.188-0.249,1.625-0.746c0.438-0.497,0.656-1.277,0.656-2.34
		c0-1.016-0.226-1.781-0.676-2.297s-0.993-0.773-1.629-0.773c-0.625,0-1.156,0.254-1.594,0.762S409.324,266.403,409.324,267.403z"/>
	<path fill="#FFFFFF" d="M417.301,271.7v-8.297h1.266v1.258c0.323-0.588,0.621-0.977,0.895-1.164s0.574-0.281,0.902-0.281
		c0.474,0,0.956,0.151,1.445,0.453l-0.484,1.305c-0.344-0.203-0.688-0.305-1.031-0.305c-0.308,0-0.583,0.093-0.828,0.277
		c-0.245,0.185-0.419,0.441-0.523,0.77c-0.156,0.5-0.234,1.047-0.234,1.641v4.344H417.301z"/>
	<path fill="#FFFFFF" d="M428.059,270.677c-0.521,0.442-1.022,0.755-1.504,0.938s-0.999,0.273-1.551,0.273
		c-0.911,0-1.612-0.223-2.102-0.668s-0.734-1.014-0.734-1.707c0-0.406,0.093-0.777,0.277-1.113s0.427-0.605,0.727-0.809
		s0.637-0.356,1.012-0.461c0.276-0.073,0.692-0.143,1.25-0.211c1.136-0.135,1.972-0.297,2.508-0.484
		c0.005-0.192,0.008-0.315,0.008-0.367c0-0.573-0.133-0.977-0.398-1.211c-0.359-0.317-0.894-0.477-1.602-0.477
		c-0.661,0-1.149,0.116-1.465,0.348c-0.315,0.232-0.548,0.642-0.699,1.23l-1.375-0.188c0.125-0.588,0.331-1.063,0.617-1.426
		c0.286-0.362,0.7-0.641,1.242-0.836s1.169-0.293,1.883-0.293c0.708,0,1.284,0.083,1.727,0.25c0.442,0.167,0.769,0.376,0.977,0.629
		c0.208,0.253,0.354,0.572,0.438,0.957c0.047,0.24,0.07,0.672,0.07,1.297v1.875c0,1.308,0.03,2.134,0.09,2.48
		c0.06,0.347,0.179,0.679,0.355,0.996h-1.469C428.194,271.408,428.101,271.067,428.059,270.677z M427.941,267.536
		c-0.511,0.208-1.276,0.386-2.297,0.531c-0.578,0.083-0.987,0.177-1.227,0.281c-0.239,0.104-0.425,0.257-0.555,0.457
		c-0.13,0.201-0.195,0.423-0.195,0.668c0,0.375,0.142,0.688,0.426,0.938s0.699,0.375,1.246,0.375c0.542,0,1.023-0.118,1.445-0.355
		c0.422-0.237,0.731-0.561,0.93-0.973c0.151-0.317,0.227-0.786,0.227-1.406V267.536z"/>
	<path fill="#FFFFFF" d="M434.613,270.442l0.203,1.242c-0.396,0.083-0.75,0.125-1.063,0.125c-0.511,0-0.906-0.081-1.188-0.242
		s-0.479-0.374-0.594-0.637s-0.172-0.816-0.172-1.66v-4.773h-1.031v-1.094h1.031v-2.055l1.398-0.844v2.898h1.414v1.094h-1.414v4.852
		c0,0.401,0.024,0.659,0.074,0.773c0.05,0.115,0.13,0.206,0.242,0.273c0.112,0.068,0.272,0.102,0.48,0.102
		C434.152,270.497,434.358,270.479,434.613,270.442z"/>
	<path fill="#FFFFFF" d="M435.996,261.864v-1.617h1.406v1.617H435.996z M435.996,271.7v-8.297h1.406v8.297H435.996z"/>
	<path fill="#FFFFFF" d="M439.02,267.552c0-1.536,0.427-2.674,1.281-3.414c0.714-0.614,1.583-0.922,2.609-0.922
		c1.141,0,2.073,0.374,2.797,1.121c0.724,0.748,1.086,1.78,1.086,3.098c0,1.068-0.16,1.908-0.48,2.52
		c-0.32,0.612-0.786,1.087-1.398,1.426s-1.28,0.508-2.004,0.508c-1.161,0-2.101-0.372-2.816-1.117
		C439.378,270.026,439.02,268.953,439.02,267.552z M440.465,267.552c0,1.063,0.231,1.858,0.695,2.387
		c0.464,0.529,1.047,0.793,1.75,0.793c0.698,0,1.278-0.266,1.742-0.797s0.695-1.341,0.695-2.43c0-1.026-0.233-1.803-0.699-2.332
		c-0.466-0.528-1.046-0.793-1.738-0.793c-0.703,0-1.286,0.263-1.75,0.789C440.696,265.695,440.465,266.489,440.465,267.552z"/>
	<path fill="#FFFFFF" d="M448.441,271.7v-8.297h1.266v1.18c0.609-0.911,1.489-1.367,2.641-1.367c0.5,0,0.96,0.09,1.379,0.27
		s0.733,0.416,0.941,0.707c0.208,0.292,0.354,0.638,0.438,1.039c0.052,0.261,0.078,0.716,0.078,1.367v5.102h-1.406v-5.047
		c0-0.573-0.055-1.001-0.164-1.285c-0.109-0.284-0.304-0.51-0.582-0.68c-0.278-0.169-0.605-0.254-0.98-0.254
		c-0.599,0-1.116,0.19-1.551,0.57c-0.435,0.38-0.652,1.102-0.652,2.164v4.531H448.441z"/>
</g>
<g>
	<path d="M45.805,369.154v7.048h8.148v-7.048h2.199V386h-2.199v-7.898h-8.148V386H43.63v-16.846H45.805z"/>
	<path d="M66.554,386l-0.175-1.524h-0.075c-0.675,0.949-1.975,1.8-3.699,1.8c-2.449,0-3.699-1.725-3.699-3.475
		c0-2.924,2.599-4.523,7.273-4.499v-0.25c0-1-0.275-2.799-2.75-2.799c-1.125,0-2.299,0.35-3.149,0.899l-0.5-1.449
		c1-0.65,2.45-1.075,3.974-1.075c3.699,0,4.599,2.524,4.599,4.949v4.523c0,1.05,0.05,2.074,0.2,2.899H66.554z M66.229,379.826
		c-2.399-0.05-5.124,0.375-5.124,2.725c0,1.425,0.95,2.1,2.075,2.1c1.574,0,2.574-1,2.924-2.024c0.075-0.226,0.125-0.475,0.125-0.7
		V379.826z"/>
	<path d="M71.905,377.177c0-1.249-0.025-2.274-0.1-3.273h1.924l0.1,1.949h0.075c0.675-1.149,1.799-2.225,3.799-2.225
		c1.65,0,2.899,1,3.424,2.425h0.05c0.375-0.675,0.85-1.2,1.35-1.575c0.725-0.55,1.525-0.85,2.674-0.85c1.6,0,3.974,1.05,3.974,5.249
		V386h-2.149v-6.849c0-2.324-0.85-3.724-2.625-3.724c-1.25,0-2.224,0.925-2.599,1.999c-0.1,0.3-0.175,0.7-0.175,1.1V386h-2.15
		v-7.248c0-1.925-0.85-3.324-2.524-3.324c-1.375,0-2.375,1.1-2.725,2.199c-0.125,0.325-0.175,0.7-0.175,1.075V386h-2.149V377.177z"
		/>
	<path d="M92.755,377.852c0-1.549-0.05-2.799-0.1-3.948h1.975l0.1,2.074h0.05c0.9-1.475,2.324-2.35,4.299-2.35
		c2.924,0,5.124,2.475,5.124,6.148c0,4.349-2.649,6.499-5.499,6.499c-1.6,0-2.999-0.7-3.724-1.9h-0.05v6.574h-2.174V377.852z
		 M94.93,381.076c0,0.325,0.05,0.625,0.1,0.899c0.4,1.525,1.725,2.575,3.299,2.575c2.325,0,3.674-1.9,3.674-4.674
		c0-2.425-1.275-4.499-3.599-4.499c-1.5,0-2.899,1.074-3.324,2.724c-0.075,0.275-0.15,0.601-0.15,0.9V381.076z"/>
	<path d="M106.68,383.751c0.65,0.425,1.8,0.874,2.899,0.874c1.6,0,2.35-0.8,2.35-1.799c0-1.05-0.625-1.625-2.25-2.225
		c-2.174-0.775-3.199-1.975-3.199-3.425c0-1.949,1.575-3.549,4.174-3.549c1.225,0,2.3,0.35,2.975,0.75l-0.55,1.6
		c-0.475-0.3-1.35-0.7-2.474-0.7c-1.3,0-2.024,0.75-2.024,1.649c0,1,0.725,1.45,2.299,2.05c2.1,0.8,3.174,1.85,3.174,3.649
		c0,2.124-1.65,3.624-4.524,3.624c-1.325,0-2.549-0.325-3.399-0.825L106.68,383.751z"/>
	<path d="M116.88,368.254h2.199v7.549h0.05c0.35-0.625,0.899-1.175,1.574-1.55c0.65-0.375,1.425-0.625,2.25-0.625
		c1.625,0,4.224,1,4.224,5.174V386h-2.2v-6.948c0-1.949-0.725-3.6-2.799-3.6c-1.424,0-2.549,1-2.949,2.2
		c-0.125,0.3-0.15,0.625-0.15,1.05V386h-2.199V368.254z"/>
	<path d="M133.204,370.504c0.025,0.75-0.525,1.35-1.399,1.35c-0.775,0-1.325-0.6-1.325-1.35c0-0.775,0.575-1.375,1.375-1.375
		C132.679,369.129,133.204,369.729,133.204,370.504z M130.755,386v-12.097h2.199V386H130.755z"/>
	<path d="M136.604,377.677c0-1.425-0.025-2.649-0.1-3.773h1.924l0.075,2.374h0.1c0.55-1.625,1.875-2.649,3.349-2.649
		c0.25,0,0.425,0.025,0.625,0.075v2.074c-0.225-0.05-0.45-0.075-0.75-0.075c-1.55,0-2.649,1.175-2.949,2.824
		c-0.05,0.301-0.1,0.65-0.1,1.025V386h-2.174V377.677z"/>
	<path d="M145.754,380.352c0.05,2.974,1.949,4.199,4.149,4.199c1.575,0,2.524-0.275,3.349-0.625l0.375,1.574
		c-0.775,0.35-2.1,0.75-4.024,0.75c-3.724,0-5.949-2.449-5.949-6.099s2.149-6.523,5.674-6.523c3.949,0,4.999,3.475,4.999,5.698
		c0,0.45-0.05,0.8-0.075,1.025H145.754z M152.203,378.776c0.025-1.399-0.575-3.573-3.049-3.573c-2.224,0-3.199,2.049-3.374,3.573
		H152.203z"/>
</g>
<g>
	<path d="M282.148,466.191v-16.846h2.375l5.398,8.522c1.25,1.975,2.225,3.749,3.024,5.474l0.05-0.024
		c-0.199-2.25-0.25-4.299-0.25-6.924v-7.048h2.05v16.846h-2.199l-5.349-8.548c-1.175-1.875-2.3-3.799-3.149-5.624l-0.075,0.025
		c0.125,2.124,0.176,4.148,0.176,6.948v7.198H282.148z"/>
	<path d="M299.748,460.543c0.051,2.974,1.949,4.199,4.149,4.199c1.575,0,2.524-0.275,3.349-0.625l0.375,1.574
		c-0.774,0.35-2.1,0.75-4.023,0.75c-3.725,0-5.949-2.449-5.949-6.099s2.15-6.523,5.674-6.523c3.949,0,4.999,3.475,4.999,5.698
		c0,0.45-0.05,0.8-0.075,1.025H299.748z M306.197,458.968c0.024-1.399-0.575-3.573-3.05-3.573c-2.224,0-3.199,2.049-3.374,3.573
		H306.197z"/>
	<path d="M311.924,454.095l1.6,6.148c0.35,1.35,0.674,2.599,0.899,3.849h0.075c0.275-1.225,0.675-2.524,1.074-3.824l1.975-6.173
		h1.85l1.875,6.048c0.449,1.45,0.799,2.725,1.074,3.949h0.075c0.2-1.225,0.524-2.499,0.925-3.924l1.725-6.073h2.174l-3.898,12.097
		h-2l-1.85-5.773c-0.424-1.35-0.774-2.55-1.074-3.975h-0.05c-0.3,1.45-0.675,2.7-1.101,3.999l-1.949,5.749h-1.999l-3.649-12.097
		H311.924z"/>
	<path d="M334.823,449.346h9.073v1.824h-6.898v5.599h6.373v1.8h-6.373v7.623h-2.175V449.346z"/>
	<path d="M357.096,460.043c0,4.474-3.1,6.424-6.023,6.424c-3.274,0-5.799-2.399-5.799-6.224c0-4.05,2.649-6.424,5.998-6.424
		C354.746,453.819,357.096,456.344,357.096,460.043z M347.498,460.168c0,2.649,1.524,4.648,3.674,4.648
		c2.1,0,3.674-1.975,3.674-4.698c0-2.05-1.024-4.649-3.623-4.649C348.623,455.469,347.498,457.868,347.498,460.168z"/>
	<path d="M359.873,457.868c0-1.425-0.025-2.649-0.1-3.773h1.924l0.076,2.374h0.1c0.55-1.625,1.875-2.649,3.35-2.649
		c0.25,0,0.424,0.025,0.625,0.075v2.074c-0.226-0.05-0.451-0.075-0.75-0.075c-1.551,0-2.65,1.175-2.949,2.824
		c-0.051,0.301-0.101,0.65-0.101,1.025v6.448h-2.175V457.868z"/>
	<path d="M369.023,460.543c0.049,2.974,1.949,4.199,4.148,4.199c1.574,0,2.524-0.275,3.35-0.625l0.375,1.574
		c-0.775,0.35-2.1,0.75-4.024,0.75c-3.724,0-5.948-2.449-5.948-6.099s2.148-6.523,5.674-6.523c3.948,0,4.998,3.475,4.998,5.698
		c0,0.45-0.05,0.8-0.074,1.025H369.023z M375.471,458.968c0.025-1.399-0.574-3.573-3.049-3.573c-2.225,0-3.199,2.049-3.374,3.573
		H375.471z"/>
	<path d="M380.023,463.942c0.649,0.425,1.799,0.874,2.898,0.874c1.6,0,2.35-0.8,2.35-1.799c0-1.05-0.625-1.625-2.249-2.225
		c-2.175-0.775-3.199-1.975-3.199-3.425c0-1.949,1.575-3.549,4.174-3.549c1.225,0,2.3,0.35,2.975,0.75l-0.55,1.6
		c-0.475-0.3-1.35-0.7-2.475-0.7c-1.3,0-2.024,0.75-2.024,1.649c0,1,0.725,1.45,2.3,2.05c2.1,0.8,3.174,1.85,3.174,3.649
		c0,2.124-1.65,3.624-4.523,3.624c-1.325,0-2.55-0.325-3.4-0.825L380.023,463.942z"/>
	<path d="M392.873,450.62v3.475h3.148v1.674h-3.148v6.523c0,1.5,0.424,2.35,1.648,2.35c0.575,0,1-0.075,1.275-0.149l0.1,1.649
		c-0.425,0.175-1.1,0.3-1.949,0.3c-1.025,0-1.85-0.325-2.375-0.925c-0.625-0.649-0.85-1.725-0.85-3.149v-6.599h-1.875v-1.674h1.875
		v-2.899L392.873,450.62z"/>
</g>
<g>
	<path d="M59.672,261.403h9.073v1.824h-6.898v5.599h6.373v1.8h-6.373v7.623h-2.175V261.403z"/>
	<path d="M81.945,272.101c0,4.474-3.099,6.424-6.023,6.424c-3.274,0-5.799-2.399-5.799-6.224c0-4.05,2.649-6.424,5.999-6.424
		C79.595,265.877,81.945,268.401,81.945,272.101z M72.347,272.226c0,2.649,1.524,4.648,3.674,4.648c2.1,0,3.674-1.975,3.674-4.698
		c0-2.05-1.025-4.649-3.624-4.649C73.472,267.526,72.347,269.926,72.347,272.226z"/>
	<path d="M84.422,276c0.65,0.425,1.8,0.874,2.899,0.874c1.6,0,2.35-0.8,2.35-1.799c0-1.05-0.625-1.625-2.25-2.225
		c-2.174-0.775-3.199-1.975-3.199-3.425c0-1.949,1.575-3.549,4.174-3.549c1.225,0,2.299,0.35,2.975,0.75l-0.55,1.6
		c-0.475-0.3-1.35-0.7-2.474-0.7c-1.3,0-2.024,0.75-2.024,1.649c0,1,0.725,1.45,2.299,2.05c2.1,0.8,3.174,1.85,3.174,3.649
		c0,2.124-1.65,3.624-4.524,3.624c-1.325,0-2.549-0.325-3.399-0.825L84.422,276z"/>
	<path d="M94.522,278.249c0.05-0.825,0.1-2.05,0.1-3.124v-14.622h2.174v7.599h0.05c0.775-1.35,2.175-2.225,4.124-2.225
		c3,0,5.124,2.499,5.099,6.174c0,4.323-2.725,6.474-5.424,6.474c-1.75,0-3.149-0.676-4.049-2.275h-0.075l-0.1,2H94.522z
		 M96.796,273.4c0,0.274,0.05,0.55,0.1,0.8c0.425,1.524,1.699,2.574,3.299,2.574c2.3,0,3.674-1.875,3.674-4.648
		c0-2.425-1.25-4.499-3.599-4.499c-1.5,0-2.899,1.024-3.349,2.699c-0.05,0.25-0.125,0.55-0.125,0.899V273.4z"/>
	<path d="M118.969,274.95c0,1.249,0.025,2.349,0.1,3.299h-1.949l-0.125-1.975h-0.05c-0.575,0.975-1.849,2.25-3.999,2.25
		c-1.899,0-4.174-1.05-4.174-5.299v-7.073h2.2v6.698c0,2.299,0.7,3.849,2.699,3.849c1.475,0,2.5-1.024,2.899-1.999
		c0.125-0.325,0.2-0.726,0.2-1.125v-7.423h2.2V274.95z"/>
	<path d="M122.622,269.926c0-1.425-0.025-2.649-0.1-3.773h1.924l0.075,2.374h0.1c0.55-1.625,1.875-2.649,3.349-2.649
		c0.25,0,0.425,0.025,0.625,0.075v2.074c-0.225-0.05-0.45-0.075-0.75-0.075c-1.55,0-2.649,1.175-2.949,2.824
		c-0.05,0.301-0.1,0.65-0.1,1.025v6.448h-2.174V269.926z"/>
	<path d="M132.221,266.152l2.649,7.147c0.275,0.8,0.575,1.75,0.774,2.475h0.05c0.225-0.725,0.475-1.649,0.775-2.524l2.399-7.098
		h2.324l-3.299,8.622c-1.575,4.149-2.649,6.273-4.149,7.573c-1.075,0.95-2.149,1.325-2.699,1.425l-0.55-1.85
		c0.55-0.175,1.274-0.524,1.924-1.074c0.6-0.476,1.35-1.325,1.85-2.449c0.1-0.226,0.175-0.4,0.175-0.525s-0.05-0.3-0.15-0.575
		l-4.474-11.146H132.221z"/>
</g>
<path fill="none" stroke="#000000" stroke-width="4" stroke-miterlimit="10" d="M198.105,2H59.193l0.105,95.458l-57.246,55.44
	L2,530.967l57.772,57.898l360.062,0.14l57.771-57.751l-0.053-377.778l-57.246-56.018L420.412,2h-78.307"/>
<g>
</g>
<g>
</g>
<g>
</g>
<g>
</g>
<g>
</g>
<g>
</g>
<g>
</g>
<g>
</g>
<g>
</g>
<g>
</g>
<g>
</g>
<g>
</g>
<g>
</g>
<g>
</g>
<g>
</g>
</svg>
