<?xml version="1.0" encoding="utf-8"?>
<!-- Generator: Adobe Illustrator 16.0.3, SVG Export Plug-In . SVG Version: 6.00 Build 0)  -->
<!DOCTYPE svg PUBLIC "-//W3C//DTD SVG 1.1//EN" "http://www.w3.org/Graphics/SVG/1.1/DTD/svg11.dtd">
<svg version="1.1" id="Layer_2" xmlns="http://www.w3.org/2000/svg" xmlns:xlink="http://www.w3.org/1999/xlink" x="0px" y="0px"
	 width="479.605px" height="591.005px" viewBox="0 0 479.605 591.005" enable-background="new 0 0 479.605 591.005"
	 xml:space="preserve">
<g>
	<polygon fill="#97E4FF" points="60.772,588.865 3,530.967 3.053,152.898 60.298,97.458 60.193,2 421.412,2 421.307,97.458 
		478.553,153.476 478.605,531.254 420.834,589.005 	"/>
	<path d="M420.662,591h-0.829l-360.838-0.137L0.105,531.794v-0.827V152.051l57.218-55.439L57.191,0h365.223l-0.33,96.617
		l57.021,56.017v0.841l0.276,378.605L420.662,591z M60.602,586.865l358.404,0.14l56.6-56.579l-0.053-376.109l-57.247-56.019
		L418.41,4H61.195l0.104,94.304L4.053,153.746L4,530.14L60.602,586.865z"/>
</g>
<g>
	<polygon points="2.054,154.898 2.049,150.898 196.105,150.834 196.105,155 	"/>
</g>
<g>
	<rect x="194.105" width="4" height="237"/>
</g>
<g>
	<rect x="2.105" y="290" width="195" height="4"/>
</g>
<g>
	<rect x="293.105" y="340" width="184" height="4"/>
</g>
<g>
	<polygon points="195.054,590 195.102,340 232.105,340 232.105,344 199.109,344 199.105,589.005 	"/>
</g>
<g>
	<rect x="273.105" y="96" width="147" height="4"/>
</g>
<g>
	<polygon points="477.105,214 387.105,214 387.105,97 391.105,97 391.105,210 477.105,210 	"/>
</g>
<g>
	<polygon points="390.105,156 291.023,156 290.855,98.041 294.855,98.029 295.012,152 390.105,152 	"/>
</g>
<g>
	<rect x="83.105" y="155" fill="#472F91" width="111" height="57"/>
</g>
<g>
	<rect x="273.105" y="39" fill="#472F91" width="111" height="57"/>
</g>
<g>
	<rect x="291.105" y="156" fill="#472F91" width="96" height="57"/>
</g>
<g>
	<rect x="364.105" y="283" fill="#472F91" width="111" height="57"/>
</g>
<g>
	<rect x="364.105" y="344" fill="#472F91" width="111" height="57"/>
</g>
<g>
	<rect x="199.105" y="380" fill="#472F91" width="57" height="111"/>
</g>
<g>
	<rect x="199.105" y="530" fill="#472F91" width="111" height="57"/>
</g>
<g>
	
		<rect x="387.691" y="510.174" transform="matrix(-0.7118 0.7024 -0.7024 -0.7118 1109.7738 621.9975)" fill="#472F91" width="79.18" height="57.001"/>
</g>
<g>
	<rect x="4.105" y="294" fill="#472F91" width="111" height="57"/>
</g>
<g>
	<rect x="138.105" y="380" fill="#472F91" width="57" height="111"/>
</g>
<g>
	
		<rect x="12.691" y="510.175" transform="matrix(0.7135 0.7007 -0.7007 0.7135 392.4311 117.7217)" fill="#472F91" width="79.18" height="57"/>
</g>
<g>
	<path d="M103.252,70.197h-3.691v-1.333h8.985v1.333h-3.709V81h-1.585V70.197z"/>
	<path d="M116.448,76.571c0,3.223-2.232,4.627-4.339,4.627c-2.358,0-4.177-1.729-4.177-4.483c0-2.917,1.909-4.627,4.321-4.627
		C114.755,72.087,116.448,73.906,116.448,76.571z M109.534,76.661c0,1.909,1.098,3.349,2.647,3.349c1.512,0,2.646-1.422,2.646-3.385
		c0-1.476-0.738-3.349-2.61-3.349C110.344,73.276,109.534,75.004,109.534,76.661z"/>
	<path d="M120.208,69.837c0.018,0.54-0.378,0.972-1.008,0.972c-0.558,0-0.955-0.432-0.955-0.972c0-0.559,0.414-0.991,0.99-0.991
		C119.83,68.846,120.208,69.278,120.208,69.837z M118.443,81v-8.715h1.584V81H118.443z"/>
	<path d="M122.655,68.216h1.584V81h-1.584V68.216z"/>
	<path d="M127.786,76.931c0.036,2.143,1.404,3.025,2.989,3.025c1.134,0,1.818-0.198,2.413-0.45l0.27,1.134
		c-0.558,0.252-1.512,0.541-2.898,0.541c-2.683,0-4.286-1.765-4.286-4.394c0-2.628,1.548-4.699,4.087-4.699
		c2.845,0,3.601,2.502,3.601,4.105c0,0.324-0.036,0.576-0.054,0.738H127.786z M132.431,75.796c0.018-1.008-0.414-2.575-2.196-2.575
		c-1.603,0-2.305,1.477-2.431,2.575H132.431z"/>
	<path d="M137.83,69.783v2.502h2.269v1.207h-2.269v4.7c0,1.08,0.306,1.692,1.188,1.692c0.414,0,0.72-0.054,0.918-0.108l0.072,1.188
		c-0.306,0.126-0.792,0.216-1.404,0.216c-0.738,0-1.332-0.234-1.71-0.667c-0.45-0.468-0.612-1.242-0.612-2.269v-4.753h-1.35v-1.207
		h1.35v-2.088L137.83,69.783z"/>
	<path d="M141.663,79.379c0.468,0.306,1.296,0.63,2.089,0.63c1.152,0,1.692-0.576,1.692-1.296c0-0.756-0.45-1.17-1.621-1.603
		c-1.566-0.558-2.305-1.422-2.305-2.467c0-1.404,1.135-2.557,3.007-2.557c0.882,0,1.657,0.252,2.143,0.54l-0.396,1.152
		c-0.342-0.216-0.972-0.504-1.782-0.504c-0.937,0-1.458,0.54-1.458,1.188c0,0.72,0.522,1.044,1.656,1.477
		c1.513,0.576,2.287,1.333,2.287,2.629c0,1.53-1.188,2.611-3.259,2.611c-0.954,0-1.836-0.234-2.449-0.594L141.663,79.379z"/>
</g>
<g>
	<path fill="#FFFFFF" d="M303.032,56.442h-4.193v3.89h4.674V61.5h-6.066V50.711h5.826v1.168h-4.434v3.41h4.193V56.442z"/>
	<path fill="#FFFFFF" d="M305.271,55.85c0-0.8-0.017-1.457-0.064-2.097h1.232l0.064,1.249h0.048
		c0.432-0.736,1.152-1.425,2.433-1.425c1.057,0,1.856,0.641,2.193,1.553h0.031c0.24-0.432,0.545-0.768,0.865-1.008
		c0.464-0.352,0.976-0.544,1.712-0.544c1.024,0,2.545,0.672,2.545,3.361V61.5h-1.376v-4.386c0-1.489-0.544-2.385-1.681-2.385
		c-0.801,0-1.425,0.592-1.665,1.28c-0.063,0.192-0.112,0.448-0.112,0.704V61.5h-1.376v-4.642c0-1.232-0.544-2.128-1.617-2.128
		c-0.88,0-1.521,0.704-1.744,1.408c-0.08,0.208-0.112,0.448-0.112,0.688V61.5h-1.376V55.85z"/>
	<path fill="#FFFFFF" d="M319.398,57.882c0.031,1.905,1.248,2.689,2.656,2.689c1.009,0,1.617-0.176,2.146-0.4l0.24,1.008
		c-0.496,0.224-1.345,0.48-2.577,0.48c-2.385,0-3.81-1.569-3.81-3.906s1.376-4.178,3.634-4.178c2.528,0,3.201,2.225,3.201,3.649
		c0,0.288-0.032,0.512-0.049,0.656H319.398z M323.527,56.874c0.017-0.896-0.368-2.289-1.952-2.289c-1.425,0-2.049,1.313-2.161,2.289
		H323.527z"/>
	<path fill="#FFFFFF" d="M326.63,56.17c0-0.913-0.017-1.697-0.064-2.417h1.232l0.048,1.521h0.064c0.352-1.041,1.2-1.697,2.145-1.697
		c0.16,0,0.272,0.016,0.4,0.048v1.328c-0.145-0.032-0.288-0.048-0.48-0.048c-0.992,0-1.696,0.752-1.889,1.809
		c-0.032,0.192-0.064,0.417-0.064,0.656v4.13h-1.392V56.17z"/>
	<path fill="#FFFFFF" d="M338.408,53.753c-0.031,0.56-0.063,1.185-0.063,2.129v4.498c0,1.777-0.353,2.865-1.104,3.538
		c-0.752,0.704-1.841,0.928-2.817,0.928c-0.929,0-1.953-0.224-2.577-0.64l0.353-1.072c0.512,0.32,1.313,0.608,2.272,0.608
		c1.44,0,2.497-0.752,2.497-2.705v-0.864h-0.032c-0.432,0.72-1.264,1.296-2.465,1.296c-1.921,0-3.297-1.632-3.297-3.777
		c0-2.625,1.713-4.114,3.489-4.114c1.345,0,2.081,0.705,2.417,1.345h0.032l0.063-1.168H338.408z M336.952,56.81
		c0-0.24-0.017-0.448-0.08-0.64c-0.256-0.816-0.944-1.489-1.969-1.489c-1.345,0-2.305,1.137-2.305,2.929
		c0,1.521,0.768,2.785,2.288,2.785c0.865,0,1.649-0.544,1.953-1.44c0.08-0.24,0.112-0.512,0.112-0.752V56.81z"/>
	<path fill="#FFFFFF" d="M342.15,51.576c0.016,0.48-0.336,0.864-0.896,0.864c-0.496,0-0.849-0.384-0.849-0.864
		c0-0.497,0.368-0.88,0.881-0.88C341.814,50.696,342.15,51.08,342.15,51.576z M340.582,61.5v-7.747h1.408V61.5H340.582z"/>
	<path fill="#FFFFFF" d="M344.326,55.85c0-0.8-0.017-1.457-0.064-2.097h1.248l0.08,1.28h0.032c0.385-0.736,1.28-1.457,2.562-1.457
		c1.072,0,2.736,0.641,2.736,3.297V61.5h-1.408v-4.466c0-1.249-0.464-2.289-1.793-2.289c-0.928,0-1.648,0.656-1.889,1.441
		c-0.063,0.176-0.096,0.416-0.096,0.656V61.5h-1.408V55.85z"/>
	<path fill="#FFFFFF" d="M359.88,53.753c-0.031,0.56-0.063,1.185-0.063,2.129v4.498c0,1.777-0.353,2.865-1.104,3.538
		c-0.752,0.704-1.841,0.928-2.817,0.928c-0.929,0-1.953-0.224-2.577-0.64l0.353-1.072c0.512,0.32,1.313,0.608,2.272,0.608
		c1.44,0,2.497-0.752,2.497-2.705v-0.864h-0.032c-0.432,0.72-1.264,1.296-2.465,1.296c-1.921,0-3.297-1.632-3.297-3.777
		c0-2.625,1.713-4.114,3.489-4.114c1.345,0,2.081,0.705,2.417,1.345h0.032l0.063-1.168H359.88z M358.424,56.81
		c0-0.24-0.017-0.448-0.08-0.64c-0.256-0.816-0.944-1.489-1.969-1.489c-1.345,0-2.305,1.137-2.305,2.929
		c0,1.521,0.768,2.785,2.288,2.785c0.865,0,1.649-0.544,1.953-1.44c0.08-0.24,0.112-0.512,0.112-0.752V56.81z"/>
	<path fill="#FFFFFF" d="M287.848,71.096h-3.281v-1.185h7.987v1.185h-3.298V80.7h-1.408V71.096z"/>
	<path fill="#FFFFFF" d="M293.352,77.083c0.031,1.905,1.248,2.689,2.656,2.689c1.009,0,1.617-0.176,2.146-0.4l0.24,1.008
		c-0.496,0.224-1.345,0.48-2.577,0.48c-2.385,0-3.81-1.569-3.81-3.906s1.376-4.178,3.634-4.178c2.528,0,3.201,2.225,3.201,3.649
		c0,0.288-0.032,0.512-0.049,0.656H293.352z M297.48,76.074c0.017-0.896-0.368-2.289-1.952-2.289c-1.425,0-2.049,1.313-2.161,2.289
		H297.48z"/>
	<path fill="#FFFFFF" d="M306.104,80.412c-0.368,0.192-1.185,0.448-2.225,0.448c-2.337,0-3.857-1.585-3.857-3.954
		c0-2.385,1.633-4.114,4.161-4.114c0.833,0,1.569,0.208,1.953,0.4l-0.32,1.088c-0.336-0.192-0.864-0.368-1.633-0.368
		c-1.776,0-2.736,1.313-2.736,2.929c0,1.792,1.152,2.897,2.688,2.897c0.801,0,1.329-0.208,1.729-0.384L306.104,80.412z"/>
	<path fill="#FFFFFF" d="M307.751,69.335h1.408v4.834h0.032c0.224-0.4,0.576-0.752,1.008-0.992c0.416-0.24,0.913-0.4,1.44-0.4
		c1.041,0,2.705,0.641,2.705,3.313v4.61h-1.408v-4.45c0-1.249-0.464-2.305-1.793-2.305c-0.912,0-1.633,0.641-1.889,1.409
		c-0.08,0.192-0.096,0.4-0.096,0.672V80.7h-1.408V69.335z"/>
	<path fill="#FFFFFF" d="M316.631,75.05c0-0.8-0.017-1.457-0.064-2.097h1.248l0.08,1.28h0.032c0.385-0.736,1.28-1.457,2.562-1.457
		c1.072,0,2.736,0.641,2.736,3.297V80.7h-1.408v-4.466c0-1.249-0.464-2.289-1.793-2.289c-0.928,0-1.648,0.656-1.889,1.441
		c-0.063,0.176-0.096,0.416-0.096,0.656V80.7h-1.408V75.05z"/>
	<path fill="#FFFFFF" d="M332.521,76.763c0,2.865-1.985,4.114-3.858,4.114c-2.097,0-3.713-1.537-3.713-3.986
		c0-2.593,1.696-4.114,3.842-4.114C331.017,72.777,332.521,74.394,332.521,76.763z M326.375,76.843c0,1.697,0.976,2.977,2.353,2.977
		c1.345,0,2.353-1.265,2.353-3.009c0-1.313-0.656-2.977-2.32-2.977C327.095,73.833,326.375,75.37,326.375,76.843z"/>
	<path fill="#FFFFFF" d="M334.294,69.335h1.408V80.7h-1.408V69.335z"/>
	<path fill="#FFFFFF" d="M345.081,76.763c0,2.865-1.985,4.114-3.858,4.114c-2.097,0-3.713-1.537-3.713-3.986
		c0-2.593,1.696-4.114,3.842-4.114C343.576,72.777,345.081,74.394,345.081,76.763z M338.935,76.843c0,1.697,0.976,2.977,2.353,2.977
		c1.345,0,2.353-1.265,2.353-3.009c0-1.313-0.656-2.977-2.32-2.977C339.654,73.833,338.935,75.37,338.935,76.843z"/>
	<path fill="#FFFFFF" d="M353.528,72.953c-0.031,0.56-0.063,1.185-0.063,2.129v4.498c0,1.777-0.353,2.865-1.104,3.538
		c-0.752,0.704-1.841,0.928-2.817,0.928c-0.929,0-1.953-0.224-2.577-0.64l0.353-1.072c0.512,0.32,1.313,0.608,2.272,0.608
		c1.44,0,2.497-0.752,2.497-2.705v-0.864h-0.032c-0.432,0.72-1.264,1.296-2.465,1.296c-1.921,0-3.297-1.632-3.297-3.777
		c0-2.625,1.713-4.114,3.489-4.114c1.345,0,2.081,0.705,2.417,1.345h0.032l0.063-1.168H353.528z M352.072,76.01
		c0-0.24-0.017-0.448-0.08-0.64c-0.256-0.816-0.944-1.489-1.969-1.489c-1.345,0-2.305,1.137-2.305,2.929
		c0,1.521,0.768,2.785,2.288,2.785c0.865,0,1.649-0.544,1.953-1.44c0.08-0.24,0.112-0.512,0.112-0.752V76.01z"/>
	<path fill="#FFFFFF" d="M357.271,70.776c0.016,0.48-0.336,0.864-0.896,0.864c-0.496,0-0.849-0.384-0.849-0.864
		c0-0.497,0.368-0.88,0.881-0.88C356.935,69.896,357.271,70.28,357.271,70.776z M355.702,80.7v-7.747h1.408V80.7H355.702z"/>
	<path fill="#FFFFFF" d="M360.23,77.083c0.031,1.905,1.248,2.689,2.656,2.689c1.009,0,1.617-0.176,2.146-0.4l0.24,1.008
		c-0.496,0.224-1.345,0.48-2.577,0.48c-2.385,0-3.81-1.569-3.81-3.906s1.376-4.178,3.634-4.178c2.528,0,3.201,2.225,3.201,3.649
		c0,0.288-0.032,0.512-0.049,0.656H360.23z M364.359,76.074c0.017-0.896-0.368-2.289-1.952-2.289c-1.425,0-2.049,1.313-2.161,2.289
		H364.359z"/>
	<path fill="#FFFFFF" d="M367.27,79.26c0.416,0.272,1.152,0.56,1.856,0.56c1.024,0,1.505-0.512,1.505-1.152
		c0-0.672-0.4-1.041-1.44-1.425c-1.393-0.496-2.049-1.264-2.049-2.193c0-1.249,1.008-2.273,2.673-2.273
		c0.784,0,1.473,0.224,1.904,0.48l-0.352,1.024c-0.305-0.192-0.864-0.448-1.585-0.448c-0.832,0-1.296,0.48-1.296,1.056
		c0,0.641,0.464,0.929,1.472,1.313c1.345,0.512,2.033,1.185,2.033,2.337c0,1.36-1.057,2.321-2.897,2.321
		c-0.848,0-1.632-0.208-2.177-0.528L367.27,79.26z"/>
</g>
<g>
	<path fill="#FFFFFF" d="M106.038,185.803c0.624,0.384,1.537,0.705,2.497,0.705c1.424,0,2.257-0.752,2.257-1.841
		c0-1.009-0.576-1.585-2.033-2.145c-1.761-0.624-2.849-1.537-2.849-3.057c0-1.681,1.393-2.929,3.489-2.929
		c1.104,0,1.905,0.256,2.385,0.528L111.4,178.2c-0.352-0.192-1.073-0.512-2.049-0.512c-1.473,0-2.033,0.88-2.033,1.617
		c0,1.008,0.657,1.504,2.145,2.081c1.825,0.704,2.753,1.584,2.753,3.169c0,1.665-1.233,3.105-3.778,3.105
		c-1.041,0-2.177-0.304-2.753-0.688L106.038,185.803z"/>
	<path fill="#FFFFFF" d="M118.407,187.5l-0.112-0.977h-0.048c-0.432,0.608-1.265,1.153-2.369,1.153
		c-1.569,0-2.369-1.104-2.369-2.225c0-1.873,1.665-2.897,4.658-2.881v-0.16c0-0.641-0.176-1.793-1.761-1.793
		c-0.72,0-1.473,0.224-2.017,0.576l-0.32-0.928c0.64-0.416,1.568-0.688,2.545-0.688c2.369,0,2.945,1.617,2.945,3.169v2.897
		c0,0.672,0.032,1.329,0.128,1.857H118.407z M118.199,183.546c-1.537-0.032-3.281,0.24-3.281,1.745c0,0.913,0.608,1.345,1.329,1.345
		c1.008,0,1.648-0.64,1.873-1.296c0.048-0.144,0.08-0.304,0.08-0.448V183.546z"/>
	<path fill="#FFFFFF" d="M121.83,176.135h1.409V187.5h-1.409V176.135z"/>
	<path fill="#FFFFFF" d="M126.39,183.882c0.032,1.905,1.249,2.689,2.657,2.689c1.008,0,1.617-0.176,2.145-0.4l0.24,1.008
		c-0.496,0.224-1.344,0.48-2.577,0.48c-2.385,0-3.81-1.569-3.81-3.906s1.376-4.178,3.633-4.178c2.529,0,3.201,2.225,3.201,3.649
		c0,0.288-0.032,0.512-0.048,0.656H126.39z M130.52,182.874c0.016-0.896-0.368-2.289-1.953-2.289c-1.425,0-2.049,1.313-2.161,2.289
		H130.52z"/>
	<path fill="#FFFFFF" d="M133.43,186.06c0.416,0.272,1.152,0.56,1.856,0.56c1.024,0,1.505-0.512,1.505-1.152
		c0-0.672-0.4-1.041-1.441-1.425c-1.393-0.496-2.049-1.264-2.049-2.193c0-1.249,1.009-2.273,2.673-2.273
		c0.784,0,1.473,0.224,1.905,0.48l-0.352,1.024c-0.304-0.192-0.865-0.448-1.585-0.448c-0.832,0-1.296,0.48-1.296,1.056
		c0,0.641,0.464,0.929,1.473,1.313c1.345,0.512,2.033,1.185,2.033,2.337c0,1.36-1.056,2.321-2.897,2.321
		c-0.849,0-1.633-0.208-2.177-0.528L133.43,186.06z"/>
	<path fill="#FFFFFF" d="M140.102,187.5v-6.675h-1.088v-1.072h1.088v-0.368c0-1.088,0.24-2.081,0.896-2.705
		c0.528-0.512,1.232-0.72,1.889-0.72c0.496,0,0.928,0.112,1.201,0.224l-0.192,1.088c-0.208-0.096-0.496-0.176-0.896-0.176
		c-1.2,0-1.504,1.057-1.504,2.241v0.416h1.873v1.072h-1.873v6.675H140.102z"/>
	<path fill="#FFFFFF" d="M151.432,183.563c0,2.865-1.985,4.114-3.857,4.114c-2.097,0-3.713-1.537-3.713-3.986
		c0-2.593,1.696-4.114,3.841-4.114C149.928,179.577,151.432,181.193,151.432,183.563z M145.286,183.643
		c0,1.697,0.977,2.977,2.353,2.977c1.345,0,2.353-1.265,2.353-3.009c0-1.313-0.656-2.977-2.321-2.977
		C146.006,180.633,145.286,182.17,145.286,183.643z"/>
	<path fill="#FFFFFF" d="M153.206,182.17c0-0.913-0.016-1.697-0.064-2.417h1.232l0.048,1.521h0.064
		c0.352-1.041,1.2-1.697,2.145-1.697c0.16,0,0.272,0.016,0.4,0.048v1.328c-0.144-0.032-0.288-0.048-0.48-0.048
		c-0.992,0-1.696,0.752-1.889,1.809c-0.032,0.192-0.064,0.417-0.064,0.656v4.13h-1.393V182.17z"/>
	<path fill="#FFFFFF" d="M163.8,187.212c-0.368,0.192-1.185,0.448-2.225,0.448c-2.337,0-3.857-1.585-3.857-3.954
		c0-2.385,1.632-4.114,4.162-4.114c0.832,0,1.568,0.208,1.953,0.4l-0.32,1.088c-0.336-0.192-0.864-0.368-1.632-0.368
		c-1.777,0-2.737,1.313-2.737,2.929c0,1.792,1.152,2.897,2.689,2.897c0.801,0,1.329-0.208,1.729-0.384L163.8,187.212z"/>
	<path fill="#FFFFFF" d="M166.134,183.882c0.032,1.905,1.249,2.689,2.657,2.689c1.008,0,1.617-0.176,2.145-0.4l0.24,1.008
		c-0.496,0.224-1.344,0.48-2.577,0.48c-2.385,0-3.81-1.569-3.81-3.906s1.376-4.178,3.633-4.178c2.529,0,3.201,2.225,3.201,3.649
		c0,0.288-0.032,0.512-0.048,0.656H166.134z M170.264,182.874c0.016-0.896-0.368-2.289-1.953-2.289
		c-1.425,0-2.049,1.313-2.161,2.289H170.264z"/>
</g>
<g>
	<path fill="#FFFFFF" d="M311.549,178.148c-0.513,0.256-1.537,0.512-2.85,0.512c-3.041,0-5.33-1.921-5.33-5.458
		c0-3.377,2.289-5.666,5.635-5.666c1.344,0,2.192,0.288,2.561,0.48l-0.336,1.137c-0.528-0.256-1.28-0.448-2.177-0.448
		c-2.529,0-4.21,1.617-4.21,4.45c0,2.641,1.521,4.338,4.146,4.338c0.849,0,1.713-0.176,2.273-0.448L311.549,178.148z"/>
	<path fill="#FFFFFF" d="M320.076,174.563c0,2.865-1.985,4.114-3.858,4.114c-2.097,0-3.713-1.537-3.713-3.986
		c0-2.593,1.696-4.114,3.842-4.114C318.571,170.577,320.076,172.193,320.076,174.563z M313.93,174.643
		c0,1.697,0.976,2.977,2.353,2.977c1.345,0,2.353-1.265,2.353-3.009c0-1.313-0.656-2.977-2.32-2.977
		C314.649,171.633,313.93,173.17,313.93,174.643z"/>
	<path fill="#FFFFFF" d="M321.85,172.85c0-0.8-0.017-1.457-0.064-2.097h1.248l0.08,1.28h0.032c0.385-0.736,1.28-1.457,2.562-1.457
		c1.072,0,2.736,0.641,2.736,3.297v4.626h-1.408v-4.466c0-1.249-0.464-2.289-1.793-2.289c-0.928,0-1.648,0.656-1.889,1.441
		c-0.063,0.176-0.096,0.416-0.096,0.656v4.658h-1.408V172.85z"/>
	<path fill="#FFFFFF" d="M332.362,168.528v2.225h2.017v1.072h-2.017v4.178c0,0.96,0.272,1.505,1.057,1.505
		c0.368,0,0.64-0.048,0.816-0.096l0.063,1.056c-0.271,0.112-0.704,0.192-1.248,0.192c-0.656,0-1.185-0.208-1.521-0.592
		c-0.4-0.416-0.545-1.104-0.545-2.017v-4.226h-1.2v-1.072h1.2v-1.857L332.362,168.528z"/>
	<path fill="#FFFFFF" d="M337.53,168.576c0.016,0.48-0.336,0.864-0.896,0.864c-0.496,0-0.849-0.384-0.849-0.864
		c0-0.497,0.368-0.88,0.881-0.88C337.194,167.696,337.53,168.08,337.53,168.576z M335.962,178.5v-7.747h1.408v7.747H335.962z"/>
	<path fill="#FFFFFF" d="M339.706,172.85c0-0.8-0.017-1.457-0.064-2.097h1.248l0.08,1.28h0.032c0.385-0.736,1.28-1.457,2.562-1.457
		c1.072,0,2.736,0.641,2.736,3.297v4.626h-1.408v-4.466c0-1.249-0.464-2.289-1.793-2.289c-0.928,0-1.648,0.656-1.889,1.441
		c-0.063,0.176-0.096,0.416-0.096,0.656v4.658h-1.408V172.85z"/>
	<path fill="#FFFFFF" d="M355.067,176.387c0,0.8,0.016,1.504,0.063,2.113h-1.248l-0.08-1.265h-0.032
		c-0.368,0.625-1.185,1.441-2.561,1.441c-1.217,0-2.674-0.672-2.674-3.394v-4.53h1.409v4.29c0,1.473,0.448,2.465,1.729,2.465
		c0.944,0,1.601-0.656,1.856-1.281c0.08-0.208,0.128-0.464,0.128-0.72v-4.754h1.409V176.387z"/>
	<path fill="#FFFFFF" d="M364.412,174.563c0,2.865-1.985,4.114-3.858,4.114c-2.097,0-3.713-1.537-3.713-3.986
		c0-2.593,1.696-4.114,3.842-4.114C362.907,170.577,364.412,172.193,364.412,174.563z M358.266,174.643
		c0,1.697,0.976,2.977,2.353,2.977c1.345,0,2.353-1.265,2.353-3.009c0-1.313-0.656-2.977-2.32-2.977
		C358.985,171.633,358.266,173.17,358.266,174.643z"/>
	<path fill="#FFFFFF" d="M372.668,176.387c0,0.8,0.016,1.504,0.063,2.113h-1.248l-0.08-1.265h-0.032
		c-0.368,0.625-1.185,1.441-2.561,1.441c-1.217,0-2.674-0.672-2.674-3.394v-4.53h1.409v4.29c0,1.473,0.448,2.465,1.729,2.465
		c0.944,0,1.601-0.656,1.856-1.281c0.08-0.208,0.128-0.464,0.128-0.72v-4.754h1.409V176.387z"/>
	<path fill="#FFFFFF" d="M374.809,177.06c0.416,0.272,1.152,0.56,1.856,0.56c1.024,0,1.505-0.512,1.505-1.152
		c0-0.672-0.4-1.041-1.44-1.425c-1.393-0.496-2.049-1.264-2.049-2.193c0-1.249,1.008-2.273,2.673-2.273
		c0.784,0,1.473,0.224,1.904,0.48l-0.352,1.024c-0.305-0.192-0.864-0.448-1.585-0.448c-0.832,0-1.296,0.48-1.296,1.056
		c0,0.641,0.464,0.929,1.472,1.313c1.345,0.512,2.033,1.185,2.033,2.337c0,1.36-1.057,2.321-2.897,2.321
		c-0.848,0-1.632-0.208-2.177-0.528L374.809,177.06z"/>
	<path fill="#FFFFFF" d="M306.906,186.912V197.7h-1.393v-10.789H306.906z"/>
	<path fill="#FFFFFF" d="M309.45,192.05c0-0.8-0.017-1.457-0.064-2.097h1.248l0.08,1.28h0.032c0.385-0.736,1.28-1.457,2.562-1.457
		c1.072,0,2.736,0.641,2.736,3.297v4.626h-1.408v-4.466c0-1.249-0.464-2.289-1.793-2.289c-0.928,0-1.648,0.656-1.889,1.441
		c-0.063,0.176-0.096,0.416-0.096,0.656v4.658h-1.408V192.05z"/>
	<path fill="#FFFFFF" d="M319.962,187.728v2.225h2.017v1.072h-2.017v4.178c0,0.96,0.272,1.505,1.057,1.505
		c0.368,0,0.64-0.048,0.816-0.096l0.063,1.056c-0.271,0.112-0.704,0.192-1.248,0.192c-0.656,0-1.185-0.208-1.521-0.592
		c-0.4-0.416-0.545-1.104-0.545-2.017v-4.226h-1.2v-1.072h1.2v-1.857L319.962,187.728z"/>
	<path fill="#FFFFFF" d="M324.25,194.083c0.031,1.905,1.248,2.689,2.656,2.689c1.009,0,1.617-0.176,2.146-0.4l0.24,1.008
		c-0.496,0.224-1.345,0.48-2.577,0.48c-2.385,0-3.81-1.569-3.81-3.906s1.376-4.178,3.634-4.178c2.528,0,3.201,2.225,3.201,3.649
		c0,0.288-0.032,0.512-0.049,0.656H324.25z M328.379,193.074c0.017-0.896-0.368-2.289-1.952-2.289c-1.425,0-2.049,1.313-2.161,2.289
		H328.379z"/>
	<path fill="#FFFFFF" d="M338.155,189.953c-0.031,0.56-0.063,1.185-0.063,2.129v4.498c0,1.777-0.353,2.865-1.104,3.538
		c-0.752,0.704-1.841,0.928-2.817,0.928c-0.929,0-1.953-0.224-2.577-0.64l0.353-1.072c0.512,0.32,1.313,0.608,2.272,0.608
		c1.44,0,2.497-0.752,2.497-2.705v-0.864h-0.032c-0.432,0.72-1.264,1.296-2.465,1.296c-1.921,0-3.297-1.632-3.297-3.777
		c0-2.625,1.713-4.114,3.489-4.114c1.345,0,2.081,0.705,2.417,1.345h0.032l0.063-1.168H338.155z M336.699,193.01
		c0-0.24-0.017-0.448-0.08-0.64c-0.256-0.816-0.944-1.489-1.969-1.489c-1.345,0-2.305,1.137-2.305,2.929
		c0,1.521,0.768,2.785,2.288,2.785c0.865,0,1.649-0.544,1.953-1.44c0.08-0.24,0.112-0.512,0.112-0.752V193.01z"/>
	<path fill="#FFFFFF" d="M340.329,192.37c0-0.913-0.017-1.697-0.064-2.417h1.232l0.048,1.521h0.064
		c0.352-1.041,1.2-1.697,2.145-1.697c0.16,0,0.272,0.016,0.4,0.048v1.328c-0.145-0.032-0.288-0.048-0.48-0.048
		c-0.992,0-1.696,0.752-1.889,1.809c-0.032,0.192-0.064,0.417-0.064,0.656v4.13h-1.392V192.37z"/>
	<path fill="#FFFFFF" d="M349.771,197.7l-0.112-0.977h-0.048c-0.432,0.608-1.265,1.153-2.369,1.153
		c-1.568,0-2.368-1.104-2.368-2.225c0-1.873,1.664-2.897,4.657-2.881v-0.16c0-0.641-0.176-1.793-1.761-1.793
		c-0.72,0-1.473,0.224-2.017,0.576l-0.32-0.928c0.641-0.416,1.569-0.688,2.545-0.688c2.369,0,2.945,1.617,2.945,3.169v2.897
		c0,0.672,0.032,1.329,0.128,1.857H349.771z M349.563,193.747c-1.536-0.032-3.281,0.24-3.281,1.745c0,0.913,0.608,1.345,1.328,1.345
		c1.009,0,1.649-0.64,1.873-1.296c0.048-0.144,0.08-0.304,0.08-0.448V193.747z"/>
	<path fill="#FFFFFF" d="M354.826,187.728v2.225h2.017v1.072h-2.017v4.178c0,0.96,0.272,1.505,1.057,1.505
		c0.368,0,0.64-0.048,0.816-0.096l0.063,1.056c-0.271,0.112-0.704,0.192-1.248,0.192c-0.656,0-1.185-0.208-1.521-0.592
		c-0.4-0.416-0.545-1.104-0.545-2.017v-4.226h-1.2v-1.072h1.2v-1.857L354.826,187.728z"/>
	<path fill="#FFFFFF" d="M359.993,187.776c0.016,0.48-0.336,0.864-0.896,0.864c-0.496,0-0.849-0.384-0.849-0.864
		c0-0.497,0.368-0.88,0.881-0.88C359.657,186.896,359.993,187.28,359.993,187.776z M358.425,197.7v-7.747h1.408v7.747H358.425z"/>
	<path fill="#FFFFFF" d="M369.18,193.763c0,2.865-1.985,4.114-3.858,4.114c-2.097,0-3.713-1.537-3.713-3.986
		c0-2.593,1.696-4.114,3.842-4.114C367.675,189.777,369.18,191.394,369.18,193.763z M363.033,193.843
		c0,1.697,0.976,2.977,2.353,2.977c1.345,0,2.353-1.265,2.353-3.009c0-1.313-0.656-2.977-2.32-2.977
		C363.753,190.833,363.033,192.37,363.033,193.843z"/>
	<path fill="#FFFFFF" d="M370.953,192.05c0-0.8-0.017-1.457-0.064-2.097h1.248l0.08,1.28h0.032c0.385-0.736,1.28-1.457,2.562-1.457
		c1.072,0,2.736,0.641,2.736,3.297v4.626h-1.408v-4.466c0-1.249-0.464-2.289-1.793-2.289c-0.928,0-1.648,0.656-1.889,1.441
		c-0.063,0.176-0.096,0.416-0.096,0.656v4.658h-1.408V192.05z"/>
</g>
<g>
	<path fill="#FFFFFF" d="M408.92,308.712h1.393v7.219c0,2.865-1.409,3.745-3.266,3.745c-0.513,0-1.137-0.111-1.488-0.256
		l0.208-1.137c0.288,0.112,0.704,0.208,1.168,0.208c1.249,0,1.985-0.56,1.985-2.673V308.712z"/>
	<path fill="#FFFFFF" d="M414.023,308.712V319.5h-1.393v-10.788H414.023z"/>
	<path fill="#FFFFFF" d="M416.455,308.855c0.704-0.144,1.712-0.224,2.673-0.224c1.488,0,2.449,0.271,3.121,0.88
		c0.544,0.48,0.849,1.217,0.849,2.049c0,1.425-0.896,2.369-2.033,2.753v0.049c0.832,0.288,1.329,1.056,1.585,2.177
		c0.352,1.504,0.608,2.545,0.832,2.961h-1.44c-0.176-0.304-0.416-1.232-0.721-2.577c-0.319-1.488-0.896-2.049-2.16-2.097h-1.313
		v4.674h-1.393V308.855z M417.848,313.77h1.424c1.489,0,2.434-0.816,2.434-2.049c0-1.393-1.009-2.001-2.481-2.017
		c-0.672,0-1.152,0.063-1.376,0.128V313.77z"/>
	<path fill="#FFFFFF" d="M426.887,316.106l-1.12,3.394h-1.44l3.665-10.788h1.681l3.682,10.788h-1.488l-1.152-3.394H426.887z
		 M430.425,315.019l-1.057-3.105c-0.24-0.704-0.4-1.345-0.561-1.969h-0.032c-0.16,0.64-0.336,1.296-0.544,1.952l-1.057,3.122
		H430.425z"/>
</g>
<g>
	<path fill="#FFFFFF" d="M39.422,315.804c0.624,0.384,1.537,0.704,2.497,0.704c1.424,0,2.257-0.753,2.257-1.841
		c0-1.009-0.576-1.585-2.033-2.145c-1.761-0.625-2.849-1.537-2.849-3.058c0-1.681,1.393-2.93,3.489-2.93
		c1.104,0,1.905,0.257,2.385,0.528l-0.384,1.137c-0.352-0.192-1.073-0.512-2.049-0.512c-1.473,0-2.033,0.88-2.033,1.616
		c0,1.009,0.656,1.505,2.145,2.081c1.825,0.704,2.753,1.584,2.753,3.169c0,1.665-1.233,3.105-3.778,3.105
		c-1.041,0-2.177-0.305-2.753-0.688L39.422,315.804z"/>
	<path fill="#FFFFFF" d="M48.334,313.883c0.032,1.904,1.249,2.688,2.657,2.688c1.008,0,1.617-0.176,2.145-0.399l0.24,1.008
		c-0.496,0.225-1.344,0.48-2.577,0.48c-2.385,0-3.81-1.568-3.81-3.905s1.376-4.178,3.633-4.178c2.529,0,3.201,2.225,3.201,3.649
		c0,0.288-0.032,0.512-0.048,0.656H48.334z M52.464,312.874c0.016-0.896-0.368-2.289-1.953-2.289c-1.425,0-2.049,1.313-2.161,2.289
		H52.464z"/>
	<path fill="#FFFFFF" d="M55.566,312.17c0-0.912-0.016-1.696-0.064-2.417h1.232l0.048,1.521h0.064c0.352-1.04,1.2-1.696,2.145-1.696
		c0.16,0,0.272,0.016,0.4,0.048v1.328c-0.144-0.032-0.288-0.048-0.48-0.048c-0.992,0-1.696,0.752-1.889,1.809
		c-0.032,0.192-0.064,0.416-0.064,0.656v4.13h-1.393V312.17z"/>
	<path fill="#FFFFFF" d="M61.742,309.753l1.521,4.354c0.256,0.704,0.464,1.345,0.624,1.985h0.048c0.176-0.641,0.4-1.281,0.656-1.985
		l1.504-4.354h1.473l-3.041,7.747h-1.345l-2.945-7.747H61.742z"/>
	<path fill="#FFFFFF" d="M69.518,313.883c0.032,1.904,1.249,2.688,2.657,2.688c1.008,0,1.617-0.176,2.145-0.399l0.24,1.008
		c-0.496,0.225-1.344,0.48-2.577,0.48c-2.385,0-3.81-1.568-3.81-3.905s1.376-4.178,3.633-4.178c2.529,0,3.201,2.225,3.201,3.649
		c0,0.288-0.032,0.512-0.048,0.656H69.518z M73.648,312.874c0.016-0.896-0.368-2.289-1.953-2.289c-1.425,0-2.049,1.313-2.161,2.289
		H73.648z"/>
	<path fill="#FFFFFF" d="M76.75,312.17c0-0.912-0.016-1.696-0.064-2.417h1.232l0.048,1.521h0.064c0.352-1.04,1.2-1.696,2.145-1.696
		c0.16,0,0.272,0.016,0.4,0.048v1.328c-0.144-0.032-0.288-0.048-0.48-0.048c-0.992,0-1.696,0.752-1.889,1.809
		c-0.032,0.192-0.064,0.416-0.064,0.656v4.13H76.75V312.17z"/>
	<path fill="#FFFFFF" d="M19.16,336.7l-3.521-10.788h1.505l1.681,5.313c0.464,1.457,0.864,2.77,1.152,4.034h0.032
		c0.304-1.249,0.752-2.609,1.233-4.018l1.825-5.33h1.488L20.696,336.7H19.16z"/>
	<path fill="#FFFFFF" d="M26.983,326.776c0.016,0.48-0.336,0.864-0.896,0.864c-0.496,0-0.849-0.384-0.849-0.864
		c0-0.496,0.368-0.881,0.88-0.881C26.647,325.896,26.983,326.28,26.983,326.776z M25.415,336.7v-7.747h1.409v7.747H25.415z"/>
	<path fill="#FFFFFF" d="M29.159,331.37c0-0.912-0.016-1.696-0.064-2.417h1.232l0.048,1.521h0.064c0.352-1.04,1.2-1.696,2.145-1.696
		c0.16,0,0.272,0.016,0.4,0.048v1.328c-0.144-0.032-0.288-0.048-0.48-0.048c-0.992,0-1.696,0.752-1.889,1.809
		c-0.032,0.192-0.064,0.416-0.064,0.656v4.13h-1.393V331.37z"/>
	<path fill="#FFFFFF" d="M36.471,326.729v2.225h2.017v1.072h-2.017v4.178c0,0.961,0.272,1.505,1.056,1.505
		c0.368,0,0.641-0.048,0.816-0.097l0.064,1.057c-0.272,0.112-0.704,0.192-1.249,0.192c-0.656,0-1.184-0.208-1.521-0.593
		c-0.4-0.416-0.544-1.104-0.544-2.017v-4.226h-1.201v-1.072h1.201v-1.856L36.471,326.729z"/>
	<path fill="#FFFFFF" d="M46.553,334.587c0,0.801,0.016,1.505,0.064,2.113h-1.249l-0.08-1.265h-0.032
		c-0.368,0.624-1.185,1.44-2.561,1.44c-1.216,0-2.673-0.672-2.673-3.394v-4.529h1.408v4.29c0,1.473,0.448,2.465,1.729,2.465
		c0.944,0,1.601-0.656,1.856-1.28c0.08-0.209,0.128-0.465,0.128-0.721v-4.754h1.408V334.587z"/>
	<path fill="#FFFFFF" d="M53.176,336.7l-0.112-0.977h-0.048c-0.432,0.608-1.265,1.152-2.369,1.152c-1.569,0-2.369-1.104-2.369-2.225
		c0-1.873,1.665-2.897,4.658-2.881v-0.16c0-0.641-0.176-1.793-1.761-1.793c-0.72,0-1.473,0.224-2.017,0.576l-0.32-0.929
		c0.64-0.416,1.568-0.688,2.545-0.688c2.369,0,2.945,1.616,2.945,3.169v2.897c0,0.672,0.032,1.328,0.128,1.856H53.176z
		 M52.968,332.747c-1.537-0.032-3.281,0.239-3.281,1.744c0,0.912,0.608,1.345,1.329,1.345c1.008,0,1.648-0.641,1.873-1.297
		c0.048-0.144,0.08-0.304,0.08-0.448V332.747z"/>
	<path fill="#FFFFFF" d="M56.598,325.336h1.409V336.7h-1.409V325.336z"/>
	<path fill="#FFFFFF" d="M61.943,326.776c0.016,0.48-0.336,0.864-0.896,0.864c-0.496,0-0.849-0.384-0.849-0.864
		c0-0.496,0.368-0.881,0.88-0.881C61.606,325.896,61.943,326.28,61.943,326.776z M60.374,336.7v-7.747h1.409v7.747H60.374z"/>
	<path fill="#FFFFFF" d="M63.926,335.26c0.416,0.271,1.152,0.561,1.856,0.561c1.024,0,1.505-0.513,1.505-1.153
		c0-0.672-0.4-1.04-1.441-1.424c-1.393-0.496-2.049-1.265-2.049-2.193c0-1.248,1.009-2.272,2.673-2.272
		c0.784,0,1.473,0.224,1.905,0.479l-0.352,1.024c-0.304-0.191-0.865-0.448-1.585-0.448c-0.832,0-1.296,0.48-1.296,1.057
		c0,0.641,0.464,0.929,1.473,1.313c1.345,0.513,2.033,1.185,2.033,2.337c0,1.36-1.056,2.321-2.897,2.321
		c-0.849,0-1.633-0.208-2.177-0.528L63.926,335.26z"/>
	<path fill="#FFFFFF" d="M74.743,336.7l-0.112-0.977h-0.048c-0.432,0.608-1.265,1.152-2.369,1.152c-1.569,0-2.369-1.104-2.369-2.225
		c0-1.873,1.665-2.897,4.658-2.881v-0.16c0-0.641-0.176-1.793-1.761-1.793c-0.72,0-1.473,0.224-2.017,0.576l-0.32-0.929
		c0.64-0.416,1.568-0.688,2.545-0.688c2.369,0,2.945,1.616,2.945,3.169v2.897c0,0.672,0.032,1.328,0.128,1.856H74.743z
		 M74.535,332.747c-1.537-0.032-3.281,0.239-3.281,1.744c0,0.912,0.608,1.345,1.329,1.345c1.008,0,1.648-0.641,1.873-1.297
		c0.048-0.144,0.08-0.304,0.08-0.448V332.747z"/>
	<path fill="#FFFFFF" d="M79.799,326.729v2.225h2.017v1.072h-2.017v4.178c0,0.961,0.272,1.505,1.056,1.505
		c0.368,0,0.641-0.048,0.816-0.097l0.064,1.057c-0.272,0.112-0.704,0.192-1.249,0.192c-0.656,0-1.184-0.208-1.521-0.593
		c-0.4-0.416-0.544-1.104-0.544-2.017v-4.226h-1.201v-1.072h1.201v-1.856L79.799,326.729z"/>
	<path fill="#FFFFFF" d="M84.967,326.776c0.016,0.48-0.336,0.864-0.896,0.864c-0.496,0-0.849-0.384-0.849-0.864
		c0-0.496,0.368-0.881,0.88-0.881C84.63,325.896,84.967,326.28,84.967,326.776z M83.398,336.7v-7.747h1.409v7.747H83.398z"/>
	<path fill="#FFFFFF" d="M94.152,332.763c0,2.865-1.985,4.113-3.857,4.113c-2.097,0-3.713-1.536-3.713-3.985
		c0-2.593,1.697-4.113,3.841-4.113C92.648,328.777,94.152,330.394,94.152,332.763z M88.006,332.843c0,1.696,0.977,2.978,2.353,2.978
		c1.345,0,2.353-1.265,2.353-3.01c0-1.313-0.656-2.978-2.321-2.978C88.726,329.833,88.006,331.37,88.006,332.843z"/>
	<path fill="#FFFFFF" d="M95.925,331.05c0-0.8-0.016-1.456-0.064-2.097h1.249l0.08,1.28h0.032c0.384-0.736,1.281-1.456,2.561-1.456
		c1.073,0,2.737,0.64,2.737,3.297v4.626h-1.409v-4.466c0-1.248-0.464-2.289-1.792-2.289c-0.929,0-1.649,0.656-1.889,1.44
		c-0.064,0.177-0.096,0.416-0.096,0.656v4.658h-1.409V331.05z"/>
</g>
<g>
	<path fill="#FFFFFF" d="M143.877,438.016c0.546,0.336,1.345,0.616,2.185,0.616c1.247,0,1.975-0.658,1.975-1.611
		c0-0.882-0.504-1.387-1.779-1.877c-1.541-0.546-2.493-1.345-2.493-2.676c0-1.471,1.218-2.563,3.053-2.563
		c0.967,0,1.667,0.224,2.087,0.462l-0.336,0.994c-0.308-0.168-0.938-0.448-1.793-0.448c-1.289,0-1.779,0.771-1.779,1.415
		c0,0.883,0.574,1.316,1.877,1.821c1.597,0.616,2.409,1.387,2.409,2.773c0,1.456-1.079,2.717-3.306,2.717
		c-0.911,0-1.905-0.266-2.409-0.602L143.877,438.016z"/>
	<path fill="#FFFFFF" d="M151.676,436.334c0.028,1.667,1.093,2.354,2.325,2.354c0.882,0,1.415-0.154,1.877-0.351l0.21,0.883
		c-0.434,0.196-1.176,0.42-2.255,0.42c-2.087,0-3.334-1.372-3.334-3.417c0-2.046,1.205-3.656,3.18-3.656
		c2.213,0,2.802,1.947,2.802,3.193c0,0.252-0.028,0.448-0.042,0.574H151.676z M155.29,435.452c0.014-0.785-0.322-2.003-1.709-2.003
		c-1.247,0-1.793,1.148-1.891,2.003H155.29z"/>
	<path fill="#FFFFFF" d="M162.836,439.248c-0.322,0.168-1.036,0.392-1.947,0.392c-2.045,0-3.376-1.387-3.376-3.459
		c0-2.088,1.429-3.601,3.642-3.601c0.729,0,1.373,0.183,1.709,0.351l-0.28,0.952c-0.294-0.168-0.756-0.322-1.429-0.322
		c-1.555,0-2.396,1.148-2.396,2.563c0,1.569,1.009,2.535,2.354,2.535c0.7,0,1.163-0.182,1.513-0.336L162.836,439.248z"/>
	<path fill="#FFFFFF" d="M169.949,437.651c0,0.7,0.014,1.316,0.056,1.849h-1.092l-0.07-1.106h-0.028
		c-0.322,0.546-1.037,1.261-2.241,1.261c-1.064,0-2.339-0.589-2.339-2.97v-3.964h1.233v3.754c0,1.288,0.392,2.157,1.513,2.157
		c0.826,0,1.401-0.574,1.625-1.121c0.07-0.182,0.112-0.406,0.112-0.63v-4.16h1.233V437.651z"/>
	<path fill="#FFFFFF" d="M171.989,434.836c0-0.799-0.014-1.485-0.056-2.115h1.079l0.042,1.33h0.056
		c0.308-0.91,1.051-1.484,1.877-1.484c0.14,0,0.238,0.014,0.35,0.042v1.162c-0.126-0.027-0.252-0.042-0.42-0.042
		c-0.869,0-1.485,0.659-1.653,1.583c-0.028,0.168-0.056,0.364-0.056,0.574v3.614h-1.219V434.836z"/>
	<path fill="#FFFFFF" d="M177.996,430.815c0.014,0.42-0.294,0.756-0.785,0.756c-0.434,0-0.742-0.336-0.742-0.756
		c0-0.435,0.322-0.771,0.77-0.771C177.702,430.045,177.996,430.381,177.996,430.815z M176.623,439.5v-6.779h1.233v6.779H176.623z"/>
	<path fill="#FFFFFF" d="M181.384,430.773v1.947h1.765v0.938h-1.765v3.655c0,0.841,0.238,1.317,0.924,1.317
		c0.322,0,0.561-0.042,0.714-0.084l0.056,0.924c-0.238,0.099-0.616,0.168-1.092,0.168c-0.575,0-1.037-0.182-1.331-0.518
		c-0.35-0.364-0.476-0.967-0.476-1.766v-3.697h-1.051v-0.938h1.051v-1.625L181.384,430.773z"/>
	<path fill="#FFFFFF" d="M185.107,432.721l1.485,4.006c0.154,0.448,0.322,0.98,0.434,1.387h0.028
		c0.126-0.406,0.266-0.925,0.434-1.415l1.345-3.978h1.303l-1.849,4.832c-0.882,2.325-1.485,3.516-2.325,4.244
		c-0.602,0.532-1.205,0.743-1.513,0.799l-0.308-1.036c0.308-0.099,0.714-0.295,1.079-0.603c0.336-0.267,0.756-0.742,1.037-1.373
		c0.056-0.126,0.098-0.224,0.098-0.294s-0.028-0.168-0.084-0.322l-2.507-6.247H185.107z"/>
</g>
<g>
	<path fill="#FFFFFF" d="M216.334,427.354c-0.07-1.316-0.154-2.899-0.14-4.076h-0.042c-0.322,1.106-0.714,2.283-1.191,3.586
		l-1.667,4.581h-0.925l-1.527-4.497c-0.448-1.33-0.826-2.549-1.092-3.67h-0.028c-0.028,1.177-0.098,2.76-0.182,4.175l-0.252,4.048
		h-1.163l0.658-9.441h1.555l1.611,4.566c0.392,1.163,0.714,2.199,0.952,3.18h0.042c0.238-0.952,0.575-1.988,0.995-3.18l1.681-4.566
		h1.555l0.588,9.441h-1.191L216.334,427.354z"/>
	<path fill="#FFFFFF" d="M225.811,428.054c0,2.508-1.737,3.601-3.375,3.601c-1.835,0-3.25-1.345-3.25-3.488
		c0-2.27,1.485-3.6,3.362-3.6C224.494,424.566,225.811,425.981,225.811,428.054z M220.432,428.124c0,1.485,0.854,2.605,2.059,2.605
		c1.177,0,2.059-1.106,2.059-2.634c0-1.148-0.574-2.604-2.031-2.604C221.062,425.491,220.432,426.836,220.432,428.124z"/>
	<path fill="#FFFFFF" d="M227.305,431.5c0.028-0.462,0.056-1.148,0.056-1.751v-8.194h1.219v4.258h0.028
		c0.435-0.756,1.219-1.246,2.312-1.246c1.681,0,2.872,1.4,2.858,3.46c0,2.423-1.527,3.628-3.04,3.628
		c-0.98,0-1.765-0.379-2.27-1.275h-0.042l-0.056,1.121H227.305z M228.58,428.782c0,0.154,0.028,0.309,0.056,0.448
		c0.238,0.854,0.953,1.443,1.849,1.443c1.288,0,2.059-1.051,2.059-2.605c0-1.359-0.7-2.521-2.017-2.521
		c-0.841,0-1.625,0.574-1.877,1.513c-0.028,0.14-0.07,0.309-0.07,0.504V428.782z"/>
	<path fill="#FFFFFF" d="M236.7,422.815c0.014,0.42-0.294,0.756-0.784,0.756c-0.435,0-0.743-0.336-0.743-0.756
		c0-0.435,0.322-0.771,0.771-0.771C236.406,422.045,236.7,422.381,236.7,422.815z M235.327,431.5v-6.779h1.232v6.779H235.327z"/>
	<path fill="#FFFFFF" d="M238.603,421.555h1.232v9.945h-1.232V421.555z"/>
	<path fill="#FFFFFF" d="M242.594,428.334c0.028,1.667,1.093,2.354,2.325,2.354c0.883,0,1.415-0.154,1.877-0.351l0.21,0.883
		c-0.434,0.196-1.177,0.42-2.255,0.42c-2.087,0-3.334-1.372-3.334-3.417c0-2.046,1.205-3.656,3.18-3.656
		c2.213,0,2.802,1.947,2.802,3.193c0,0.252-0.028,0.448-0.042,0.574H242.594z M246.208,427.452c0.014-0.785-0.322-2.003-1.709-2.003
		c-1.247,0-1.793,1.148-1.892,2.003H246.208z"/>
	<path fill="#FFFFFF" d="M210.758,445.33l-0.98,2.97h-1.261l3.208-9.441h1.471l3.222,9.441h-1.303l-1.009-2.97H210.758z
		 M213.854,444.378l-0.924-2.718c-0.21-0.616-0.35-1.177-0.49-1.723h-0.028c-0.14,0.561-0.294,1.135-0.476,1.709l-0.924,2.731
		H213.854z"/>
	<path fill="#FFFFFF" d="M222.421,448.048c-0.322,0.168-1.037,0.392-1.947,0.392c-2.045,0-3.376-1.387-3.376-3.459
		c0-2.088,1.429-3.601,3.642-3.601c0.729,0,1.373,0.183,1.709,0.351l-0.28,0.952c-0.294-0.168-0.756-0.322-1.429-0.322
		c-1.555,0-2.396,1.148-2.396,2.563c0,1.569,1.009,2.535,2.354,2.535c0.7,0,1.163-0.182,1.513-0.336L222.421,448.048z"/>
	<path fill="#FFFFFF" d="M228.609,448.048c-0.322,0.168-1.036,0.392-1.947,0.392c-2.045,0-3.376-1.387-3.376-3.459
		c0-2.088,1.429-3.601,3.642-3.601c0.729,0,1.373,0.183,1.709,0.351l-0.28,0.952c-0.294-0.168-0.756-0.322-1.429-0.322
		c-1.555,0-2.396,1.148-2.396,2.563c0,1.569,1.009,2.535,2.354,2.535c0.7,0,1.163-0.182,1.513-0.336L228.609,448.048z"/>
	<path fill="#FFFFFF" d="M230.651,445.134c0.028,1.667,1.093,2.354,2.325,2.354c0.883,0,1.415-0.154,1.877-0.351l0.21,0.883
		c-0.434,0.196-1.177,0.42-2.255,0.42c-2.087,0-3.334-1.372-3.334-3.417c0-2.046,1.205-3.656,3.18-3.656
		c2.213,0,2.802,1.947,2.802,3.193c0,0.252-0.028,0.448-0.042,0.574H230.651z M234.266,444.252c0.014-0.785-0.322-2.004-1.709-2.004
		c-1.247,0-1.793,1.149-1.891,2.004H234.266z"/>
	<path fill="#FFFFFF" d="M236.811,447.039c0.364,0.238,1.009,0.49,1.625,0.49c0.896,0,1.316-0.448,1.316-1.009
		c0-0.588-0.35-0.91-1.261-1.246c-1.219-0.435-1.793-1.106-1.793-1.919c0-1.093,0.883-1.989,2.34-1.989
		c0.686,0,1.288,0.196,1.667,0.42l-0.309,0.896c-0.267-0.168-0.757-0.392-1.387-0.392c-0.729,0-1.135,0.42-1.135,0.924
		c0,0.561,0.406,0.813,1.289,1.148c1.177,0.448,1.778,1.037,1.778,2.046c0,1.19-0.924,2.03-2.535,2.03
		c-0.742,0-1.429-0.182-1.905-0.462L236.811,447.039z"/>
	<path fill="#FFFFFF" d="M242.354,447.039c0.364,0.238,1.009,0.49,1.625,0.49c0.896,0,1.316-0.448,1.316-1.009
		c0-0.588-0.35-0.91-1.261-1.246c-1.219-0.435-1.793-1.106-1.793-1.919c0-1.093,0.883-1.989,2.34-1.989
		c0.686,0,1.288,0.196,1.667,0.42l-0.309,0.896c-0.267-0.168-0.757-0.392-1.387-0.392c-0.729,0-1.135,0.42-1.135,0.924
		c0,0.561,0.406,0.813,1.289,1.148c1.177,0.448,1.778,1.037,1.778,2.046c0,1.19-0.924,2.03-2.535,2.03
		c-0.742,0-1.429-0.182-1.905-0.462L242.354,447.039z"/>
</g>
<g>
	<path fill="#FFFFFF" d="M228.73,553v-10.788h1.521l3.457,5.458c0.8,1.265,1.425,2.401,1.937,3.505l0.032-0.016
		c-0.128-1.44-0.16-2.753-0.16-4.434v-4.514h1.313V553h-1.409l-3.425-5.475c-0.752-1.2-1.473-2.433-2.017-3.601l-0.048,0.016
		c0.08,1.36,0.112,2.657,0.112,4.45V553H228.73z"/>
	<path fill="#FFFFFF" d="M239.994,549.383c0.032,1.904,1.248,2.688,2.657,2.688c1.009,0,1.616-0.176,2.146-0.399l0.239,1.008
		c-0.496,0.225-1.345,0.48-2.577,0.48c-2.385,0-3.809-1.568-3.809-3.905s1.376-4.178,3.633-4.178c2.529,0,3.201,2.225,3.201,3.649
		c0,0.288-0.031,0.512-0.048,0.656H239.994z M244.124,548.374c0.017-0.896-0.368-2.289-1.952-2.289
		c-1.425,0-2.049,1.313-2.162,2.289H244.124z"/>
	<path fill="#FFFFFF" d="M248.923,543.028v2.225h2.017v1.072h-2.017v4.178c0,0.96,0.272,1.505,1.056,1.505
		c0.369,0,0.641-0.048,0.816-0.097l0.064,1.057c-0.271,0.112-0.704,0.192-1.248,0.192c-0.656,0-1.185-0.208-1.521-0.593
		c-0.399-0.416-0.543-1.104-0.543-2.017v-4.226h-1.201v-1.072h1.201v-1.856L248.923,543.028z"/>
	<path fill="#FFFFFF" d="M253.226,545.253l1.024,3.938c0.225,0.864,0.433,1.665,0.576,2.465h0.048
		c0.177-0.784,0.433-1.616,0.688-2.449l1.265-3.953h1.185l1.2,3.873c0.288,0.929,0.513,1.745,0.688,2.529h0.048
		c0.128-0.784,0.336-1.601,0.593-2.513l1.104-3.89h1.393L260.541,553h-1.281l-1.184-3.697c-0.272-0.864-0.497-1.633-0.688-2.545
		h-0.032c-0.192,0.928-0.433,1.729-0.704,2.561L255.402,553h-1.28l-2.337-7.747H253.226z"/>
	<path fill="#FFFFFF" d="M271.293,549.063c0,2.865-1.985,4.113-3.858,4.113c-2.097,0-3.713-1.536-3.713-3.985
		c0-2.593,1.696-4.113,3.842-4.113C269.788,545.077,271.293,546.693,271.293,549.063z M265.146,549.143
		c0,1.696,0.976,2.978,2.353,2.978c1.345,0,2.353-1.265,2.353-3.01c0-1.313-0.656-2.978-2.32-2.978
		C265.866,546.133,265.146,547.67,265.146,549.143z"/>
	<path fill="#FFFFFF" d="M273.065,547.67c0-0.912-0.017-1.696-0.064-2.417h1.232l0.048,1.521h0.064
		c0.352-1.04,1.2-1.696,2.145-1.696c0.16,0,0.272,0.016,0.4,0.048v1.328c-0.145-0.032-0.288-0.048-0.48-0.048
		c-0.992,0-1.696,0.752-1.889,1.809c-0.032,0.192-0.064,0.416-0.064,0.656V553h-1.392V547.67z"/>
	<path fill="#FFFFFF" d="M279.754,548.807h0.032c0.192-0.272,0.465-0.608,0.688-0.881l2.273-2.673h1.696l-2.993,3.186L284.86,553
		h-1.713l-2.673-3.714l-0.721,0.801V553h-1.392v-11.364h1.392V548.807z"/>
	<path fill="#FFFFFF" d="M228.806,567.462c-0.08-1.504-0.176-3.313-0.16-4.657h-0.048c-0.368,1.265-0.816,2.608-1.36,4.098
		l-1.905,5.233h-1.057l-1.745-5.138c-0.512-1.521-0.944-2.913-1.249-4.193h-0.032c-0.032,1.345-0.112,3.153-0.208,4.77l-0.288,4.626
		h-1.329l0.752-10.788h1.777l1.841,5.218c0.448,1.328,0.816,2.513,1.088,3.634h0.048c0.272-1.089,0.656-2.273,1.137-3.634
		l1.92-5.218h1.777l0.672,10.788h-1.361L228.806,567.462z"/>
	<path fill="#FFFFFF" d="M239.637,568.263c0,2.865-1.985,4.113-3.857,4.113c-2.097,0-3.713-1.536-3.713-3.985
		c0-2.593,1.696-4.113,3.841-4.113C238.133,564.277,239.637,565.894,239.637,568.263z M233.491,568.343
		c0,1.696,0.977,2.978,2.353,2.978c1.345,0,2.353-1.265,2.353-3.01c0-1.313-0.656-2.978-2.321-2.978
		C234.211,565.333,233.491,566.87,233.491,568.343z"/>
	<path fill="#FFFFFF" d="M241.41,566.55c0-0.8-0.016-1.456-0.064-2.097h1.249l0.08,1.28h0.032c0.384-0.736,1.28-1.456,2.561-1.456
		c1.072,0,2.737,0.64,2.737,3.297v4.626h-1.409v-4.466c0-1.248-0.464-2.289-1.792-2.289c-0.929,0-1.649,0.656-1.89,1.44
		c-0.063,0.177-0.096,0.416-0.096,0.656v4.658h-1.408V566.55z"/>
	<path fill="#FFFFFF" d="M251.859,562.276c0.016,0.48-0.337,0.864-0.896,0.864c-0.496,0-0.85-0.384-0.85-0.864
		c0-0.496,0.369-0.881,0.881-0.881C251.522,561.396,251.859,561.78,251.859,562.276z M250.29,572.2v-7.747h1.409v7.747H250.29z"/>
	<path fill="#FFFFFF" d="M255.73,562.229v2.225h2.017v1.072h-2.017v4.178c0,0.961,0.272,1.505,1.057,1.505
		c0.368,0,0.64-0.048,0.816-0.097l0.063,1.057c-0.271,0.112-0.704,0.192-1.248,0.192c-0.656,0-1.185-0.208-1.521-0.593
		c-0.4-0.416-0.545-1.104-0.545-2.017v-4.226h-1.2v-1.072h1.2v-1.856L255.73,562.229z"/>
	<path fill="#FFFFFF" d="M266.245,568.263c0,2.865-1.985,4.113-3.858,4.113c-2.097,0-3.713-1.536-3.713-3.985
		c0-2.593,1.696-4.113,3.842-4.113C264.74,564.277,266.245,565.894,266.245,568.263z M260.099,568.343
		c0,1.696,0.976,2.978,2.353,2.978c1.345,0,2.353-1.265,2.353-3.01c0-1.313-0.656-2.978-2.32-2.978
		C260.818,565.333,260.099,566.87,260.099,568.343z"/>
	<path fill="#FFFFFF" d="M268.019,566.87c0-0.912-0.017-1.696-0.064-2.417h1.232l0.048,1.521h0.064
		c0.352-1.04,1.2-1.696,2.145-1.696c0.16,0,0.272,0.016,0.4,0.048v1.328c-0.145-0.032-0.288-0.048-0.48-0.048
		c-0.992,0-1.696,0.752-1.889,1.809c-0.032,0.192-0.064,0.416-0.064,0.656v4.13h-1.392V566.87z"/>
	<path fill="#FFFFFF" d="M274.883,562.276c0.016,0.48-0.336,0.864-0.896,0.864c-0.496,0-0.849-0.384-0.849-0.864
		c0-0.496,0.368-0.881,0.881-0.881C274.547,561.396,274.883,561.78,274.883,562.276z M273.314,572.2v-7.747h1.408v7.747H273.314z"/>
	<path fill="#FFFFFF" d="M277.058,566.55c0-0.8-0.017-1.456-0.064-2.097h1.248l0.08,1.28h0.032c0.385-0.736,1.28-1.456,2.562-1.456
		c1.072,0,2.736,0.64,2.736,3.297v4.626h-1.408v-4.466c0-1.248-0.464-2.289-1.793-2.289c-0.928,0-1.648,0.656-1.889,1.44
		c-0.063,0.177-0.096,0.416-0.096,0.656v4.658h-1.408V566.55z"/>
	<path fill="#FFFFFF" d="M292.612,564.453c-0.031,0.561-0.063,1.185-0.063,2.129v4.498c0,1.776-0.353,2.865-1.104,3.537
		c-0.752,0.704-1.841,0.929-2.817,0.929c-0.929,0-1.953-0.225-2.577-0.641l0.353-1.072c0.512,0.32,1.313,0.608,2.272,0.608
		c1.44,0,2.497-0.753,2.497-2.705v-0.864h-0.032c-0.432,0.72-1.264,1.296-2.465,1.296c-1.921,0-3.297-1.633-3.297-3.777
		c0-2.625,1.713-4.113,3.489-4.113c1.345,0,2.081,0.704,2.417,1.344h0.032l0.063-1.168H292.612z M291.156,567.511
		c0-0.24-0.017-0.448-0.08-0.641c-0.256-0.816-0.944-1.488-1.969-1.488c-1.345,0-2.305,1.136-2.305,2.929
		c0,1.521,0.768,2.785,2.288,2.785c0.865,0,1.649-0.544,1.953-1.44c0.08-0.24,0.112-0.513,0.112-0.752V567.511z"/>
</g>
<g>
	<path fill="#FFFFFF" d="M39.009,528.528c-0.07-1.316-0.154-2.899-0.14-4.076h-0.042c-0.322,1.106-0.714,2.283-1.191,3.586
		l-1.667,4.581h-0.925l-1.527-4.497c-0.448-1.33-0.826-2.549-1.092-3.67h-0.028c-0.028,1.177-0.098,2.76-0.182,4.175l-0.252,4.048
		h-1.163l0.658-9.441h1.555l1.611,4.566c0.392,1.163,0.714,2.199,0.952,3.18h0.042c0.238-0.952,0.575-1.988,0.995-3.18l1.681-4.566
		h1.555l0.588,9.441h-1.191L39.009,528.528z"/>
	<path fill="#FFFFFF" d="M48.486,529.229c0,2.508-1.737,3.601-3.375,3.601c-1.835,0-3.25-1.345-3.25-3.488
		c0-2.27,1.485-3.6,3.362-3.6C47.169,525.741,48.486,527.156,48.486,529.229z M43.107,529.299c0,1.485,0.854,2.605,2.059,2.605
		c1.177,0,2.059-1.106,2.059-2.634c0-1.148-0.574-2.604-2.031-2.604C43.737,526.666,43.107,528.011,43.107,529.299z"/>
	<path fill="#FFFFFF" d="M49.98,532.675c0.028-0.462,0.056-1.148,0.056-1.751v-8.194h1.219v4.258h0.028
		c0.435-0.756,1.219-1.246,2.312-1.246c1.681,0,2.872,1.4,2.857,3.46c0,2.423-1.527,3.628-3.04,3.628
		c-0.98,0-1.765-0.379-2.27-1.275h-0.042l-0.056,1.121H49.98z M51.255,529.957c0,0.154,0.028,0.309,0.056,0.448
		c0.238,0.854,0.953,1.443,1.849,1.443c1.289,0,2.059-1.051,2.059-2.605c0-1.359-0.701-2.521-2.017-2.521
		c-0.841,0-1.625,0.574-1.877,1.513c-0.028,0.14-0.07,0.309-0.07,0.504V529.957z"/>
	<path fill="#FFFFFF" d="M59.375,523.99c0.014,0.42-0.294,0.756-0.785,0.756c-0.434,0-0.742-0.336-0.742-0.756
		c0-0.435,0.322-0.771,0.77-0.771C59.081,523.22,59.375,523.556,59.375,523.99z M58.002,532.675v-6.779h1.233v6.779H58.002z"/>
	<path fill="#FFFFFF" d="M61.278,522.729h1.233v9.945h-1.233V522.729z"/>
	<path fill="#FFFFFF" d="M65.269,529.509c0.028,1.667,1.092,2.354,2.325,2.354c0.882,0,1.415-0.154,1.877-0.351l0.21,0.883
		c-0.434,0.196-1.176,0.42-2.255,0.42c-2.087,0-3.334-1.372-3.334-3.417c0-2.046,1.205-3.656,3.18-3.656
		c2.213,0,2.802,1.947,2.802,3.193c0,0.252-0.028,0.448-0.042,0.574H65.269z M68.882,528.627c0.014-0.785-0.322-2.003-1.709-2.003
		c-1.247,0-1.793,1.148-1.891,2.003H68.882z"/>
	<path fill="#FFFFFF" d="M33.296,549.166c-0.448,0.225-1.345,0.448-2.493,0.448c-2.662,0-4.665-1.681-4.665-4.776
		c0-2.955,2.003-4.958,4.931-4.958c1.176,0,1.919,0.252,2.241,0.42l-0.294,0.994c-0.462-0.224-1.121-0.392-1.905-0.392
		c-2.213,0-3.684,1.414-3.684,3.894c0,2.312,1.331,3.796,3.628,3.796c0.742,0,1.499-0.153,1.989-0.392L33.296,549.166z"/>
	<path fill="#FFFFFF" d="M40.758,546.028c0,2.508-1.737,3.601-3.375,3.601c-1.835,0-3.25-1.345-3.25-3.488
		c0-2.269,1.485-3.6,3.362-3.6C39.441,542.541,40.758,543.956,40.758,546.028z M35.379,546.099c0,1.485,0.854,2.605,2.059,2.605
		c1.177,0,2.059-1.106,2.059-2.634c0-1.148-0.574-2.604-2.031-2.604C36.009,543.466,35.379,544.811,35.379,546.099z"/>
	<path fill="#FFFFFF" d="M42.309,544.53c0-0.701-0.014-1.275-0.056-1.835h1.093l0.07,1.12h0.028
		c0.336-0.645,1.121-1.274,2.241-1.274c0.938,0,2.395,0.561,2.395,2.886v4.048h-1.232v-3.908c0-1.093-0.406-2.003-1.569-2.003
		c-0.813,0-1.443,0.574-1.653,1.261c-0.056,0.154-0.084,0.364-0.084,0.574v4.076h-1.233V544.53z"/>
	<path fill="#FFFFFF" d="M50.079,544.53c0-0.701-0.014-1.275-0.056-1.835h1.093l0.07,1.12h0.028
		c0.336-0.645,1.121-1.274,2.241-1.274c0.938,0,2.395,0.561,2.395,2.886v4.048h-1.232v-3.908c0-1.093-0.406-2.003-1.569-2.003
		c-0.813,0-1.443,0.574-1.653,1.261c-0.056,0.154-0.084,0.364-0.084,0.574v4.076h-1.233V544.53z"/>
	<path fill="#FFFFFF" d="M58.535,546.309c0.028,1.667,1.092,2.354,2.325,2.354c0.882,0,1.415-0.154,1.877-0.351l0.21,0.883
		c-0.434,0.196-1.176,0.42-2.255,0.42c-2.087,0-3.334-1.372-3.334-3.417c0-2.046,1.205-3.656,3.18-3.656
		c2.213,0,2.802,1.947,2.802,3.193c0,0.252-0.028,0.448-0.042,0.574H58.535z M62.149,545.427c0.014-0.785-0.322-2.004-1.709-2.004
		c-1.247,0-1.793,1.149-1.891,2.004H62.149z"/>
	<path fill="#FFFFFF" d="M69.695,549.223c-0.322,0.168-1.036,0.392-1.947,0.392c-2.045,0-3.376-1.387-3.376-3.459
		c0-2.088,1.429-3.601,3.642-3.601c0.729,0,1.373,0.183,1.709,0.351l-0.28,0.952c-0.294-0.168-0.756-0.322-1.429-0.322
		c-1.555,0-2.396,1.148-2.396,2.563c0,1.569,1.009,2.535,2.354,2.535c0.7,0,1.163-0.182,1.513-0.336L69.695,549.223z"/>
	<path fill="#FFFFFF" d="M72.801,540.748v1.947h1.765v0.938h-1.765v3.655c0,0.841,0.238,1.317,0.924,1.317
		c0.322,0,0.561-0.042,0.715-0.084l0.056,0.924c-0.238,0.099-0.616,0.168-1.092,0.168c-0.575,0-1.037-0.182-1.331-0.518
		c-0.35-0.364-0.476-0.967-0.476-1.766v-3.697h-1.051v-0.938h1.051v-1.625L72.801,540.748z"/>
</g>
<g>
	<path fill="#FFFFFF" d="M415.645,529.705l-0.98,2.97h-1.261l3.207-9.441h1.471l3.222,9.441H420l-1.008-2.97H415.645z
		 M418.74,528.753l-0.925-2.718c-0.21-0.616-0.351-1.177-0.49-1.723h-0.028c-0.14,0.561-0.294,1.135-0.477,1.709l-0.924,2.731
		H418.74z"/>
	<path fill="#FFFFFF" d="M422.602,528.108c0-0.868-0.028-1.569-0.056-2.213h1.106l0.056,1.162h0.028
		c0.504-0.826,1.303-1.316,2.409-1.316c1.639,0,2.872,1.387,2.872,3.445c0,2.438-1.485,3.643-3.082,3.643
		c-0.896,0-1.681-0.393-2.087-1.064h-0.028v3.684h-1.219V528.108z M423.82,529.915c0,0.183,0.028,0.351,0.056,0.505
		c0.225,0.854,0.967,1.442,1.85,1.442c1.303,0,2.059-1.064,2.059-2.619c0-1.359-0.714-2.521-2.017-2.521
		c-0.841,0-1.625,0.603-1.863,1.526c-0.042,0.154-0.084,0.337-0.084,0.505V529.915z"/>
	<path fill="#FFFFFF" d="M430.567,528.108c0-0.868-0.028-1.569-0.056-2.213h1.106l0.056,1.162h0.028
		c0.504-0.826,1.303-1.316,2.409-1.316c1.639,0,2.872,1.387,2.872,3.445c0,2.438-1.485,3.643-3.082,3.643
		c-0.896,0-1.681-0.393-2.087-1.064h-0.028v3.684h-1.219V528.108z M431.786,529.915c0,0.183,0.028,0.351,0.056,0.505
		c0.225,0.854,0.967,1.442,1.85,1.442c1.303,0,2.059-1.064,2.059-2.619c0-1.359-0.714-2.521-2.017-2.521
		c-0.841,0-1.625,0.603-1.863,1.526c-0.042,0.154-0.084,0.337-0.084,0.505V529.915z"/>
	<path fill="#FFFFFF" d="M397.646,540.159c0.742-0.111,1.625-0.195,2.592-0.195c1.751,0,2.997,0.406,3.824,1.176
		c0.84,0.771,1.33,1.863,1.33,3.391c0,1.54-0.476,2.801-1.358,3.67c-0.883,0.882-2.34,1.358-4.175,1.358
		c-0.868,0-1.597-0.042-2.213-0.112V540.159z M398.865,548.508c0.309,0.057,0.757,0.07,1.232,0.07c2.605,0,4.021-1.457,4.021-4.006
		c0.014-2.228-1.247-3.643-3.824-3.643c-0.63,0-1.106,0.057-1.429,0.126V548.508z"/>
	<path fill="#FFFFFF" d="M407.572,542.695l1.485,4.006c0.153,0.448,0.321,0.98,0.434,1.387h0.028
		c0.126-0.406,0.266-0.925,0.435-1.415l1.345-3.978h1.303l-1.85,4.832c-0.883,2.325-1.484,3.517-2.325,4.244
		c-0.603,0.532-1.204,0.743-1.513,0.799l-0.309-1.036c0.309-0.099,0.715-0.295,1.079-0.603c0.336-0.267,0.756-0.742,1.036-1.373
		c0.057-0.126,0.099-0.224,0.099-0.294s-0.028-0.168-0.084-0.322l-2.508-6.247H407.572z"/>
	<path fill="#FFFFFF" d="M413.718,544.53c0-0.701-0.014-1.275-0.056-1.835h1.093l0.069,1.12h0.028
		c0.336-0.645,1.12-1.274,2.241-1.274c0.938,0,2.396,0.561,2.396,2.886v4.048h-1.233v-3.908c0-1.093-0.406-2.003-1.568-2.003
		c-0.813,0-1.442,0.574-1.653,1.261c-0.056,0.154-0.084,0.364-0.084,0.574v4.076h-1.232V544.53z"/>
	<path fill="#FFFFFF" d="M425.242,549.475l-0.098-0.854h-0.042c-0.378,0.532-1.106,1.009-2.073,1.009
		c-1.373,0-2.073-0.967-2.073-1.947c0-1.639,1.457-2.535,4.076-2.521v-0.14c0-0.561-0.154-1.569-1.541-1.569
		c-0.63,0-1.288,0.196-1.765,0.505l-0.28-0.813c0.561-0.364,1.373-0.603,2.228-0.603c2.073,0,2.577,1.415,2.577,2.773v2.535
		c0,0.589,0.028,1.163,0.112,1.625H425.242z M425.061,546.015c-1.345-0.028-2.872,0.21-2.872,1.527c0,0.798,0.532,1.176,1.163,1.176
		c0.882,0,1.442-0.56,1.639-1.134c0.042-0.126,0.07-0.267,0.07-0.393V546.015z"/>
	<path fill="#FFFFFF" d="M428.236,544.53c0-0.701-0.014-1.275-0.056-1.835h1.078l0.057,1.092h0.042
		c0.378-0.644,1.008-1.246,2.129-1.246c0.925,0,1.625,0.561,1.919,1.358h0.028c0.21-0.378,0.476-0.672,0.756-0.882
		c0.406-0.309,0.854-0.477,1.499-0.477c0.896,0,2.228,0.588,2.228,2.941v3.992h-1.205v-3.838c0-1.303-0.477-2.087-1.471-2.087
		c-0.7,0-1.247,0.518-1.457,1.12c-0.056,0.168-0.098,0.393-0.098,0.616v4.188h-1.205v-4.063c0-1.078-0.476-1.862-1.414-1.862
		c-0.771,0-1.331,0.616-1.527,1.232c-0.07,0.182-0.098,0.392-0.098,0.603v4.09h-1.205V544.53z"/>
	<path fill="#FFFFFF" d="M441.285,540.79c0.014,0.42-0.294,0.756-0.784,0.756c-0.435,0-0.743-0.336-0.743-0.756
		c0-0.435,0.322-0.771,0.771-0.771C440.991,540.02,441.285,540.355,441.285,540.79z M439.912,549.475v-6.779h1.232v6.779H439.912z"
		/>
	<path fill="#FFFFFF" d="M448.021,549.223c-0.322,0.168-1.037,0.392-1.947,0.392c-2.045,0-3.376-1.387-3.376-3.459
		c0-2.088,1.429-3.601,3.642-3.601c0.729,0,1.373,0.183,1.709,0.351l-0.28,0.952c-0.294-0.168-0.756-0.322-1.429-0.322
		c-1.555,0-2.395,1.148-2.395,2.563c0,1.569,1.008,2.535,2.353,2.535c0.701,0,1.163-0.182,1.514-0.336L448.021,549.223z"/>
	<path fill="#FFFFFF" d="M449.292,548.214c0.364,0.238,1.009,0.49,1.625,0.49c0.896,0,1.316-0.448,1.316-1.009
		c0-0.588-0.35-0.91-1.261-1.246c-1.219-0.435-1.793-1.106-1.793-1.919c0-1.093,0.883-1.989,2.34-1.989
		c0.686,0,1.288,0.196,1.667,0.42l-0.309,0.896c-0.267-0.168-0.757-0.392-1.387-0.392c-0.729,0-1.135,0.42-1.135,0.924
		c0,0.561,0.406,0.813,1.289,1.148c1.177,0.448,1.778,1.037,1.778,2.046c0,1.19-0.924,2.03-2.535,2.03
		c-0.742,0-1.429-0.182-1.905-0.462L449.292,548.214z"/>
</g>
<g>
	<path fill="#FFFFFF" d="M405.666,356.355c0.848-0.128,1.856-0.224,2.961-0.224c2.001,0,3.426,0.464,4.37,1.345
		c0.96,0.88,1.521,2.129,1.521,3.873c0,1.761-0.545,3.201-1.553,4.193c-1.009,1.009-2.673,1.553-4.771,1.553
		c-0.992,0-1.824-0.048-2.528-0.128V356.355z M407.059,365.896c0.352,0.064,0.864,0.08,1.408,0.08c2.978,0,4.594-1.665,4.594-4.578
		c0.017-2.545-1.425-4.161-4.369-4.161c-0.721,0-1.265,0.063-1.633,0.144V365.896z"/>
	<path fill="#FFFFFF" d="M420.563,367l-0.112-0.977h-0.048c-0.432,0.608-1.265,1.152-2.369,1.152c-1.568,0-2.368-1.104-2.368-2.225
		c0-1.873,1.664-2.897,4.657-2.881v-0.16c0-0.641-0.176-1.793-1.761-1.793c-0.72,0-1.473,0.225-2.017,0.576l-0.32-0.929
		c0.641-0.416,1.569-0.688,2.545-0.688c2.369,0,2.945,1.616,2.945,3.169v2.897c0,0.672,0.032,1.328,0.128,1.856H420.563z
		 M420.355,363.047c-1.536-0.032-3.281,0.239-3.281,1.744c0,0.912,0.608,1.345,1.328,1.345c1.009,0,1.649-0.641,1.873-1.297
		c0.048-0.144,0.08-0.304,0.08-0.448V363.047z"/>
	<path fill="#FFFFFF" d="M425.618,357.028v2.225h2.017v1.072h-2.017v4.178c0,0.96,0.272,1.505,1.057,1.505
		c0.368,0,0.64-0.048,0.816-0.097l0.063,1.057c-0.271,0.112-0.704,0.192-1.248,0.192c-0.656,0-1.185-0.208-1.521-0.593
		c-0.4-0.416-0.545-1.104-0.545-2.017v-4.226h-1.2v-1.072h1.2v-1.856L425.618,357.028z"/>
	<path fill="#FFFFFF" d="M433.507,367l-0.112-0.977h-0.048c-0.432,0.608-1.265,1.152-2.369,1.152c-1.568,0-2.368-1.104-2.368-2.225
		c0-1.873,1.664-2.897,4.657-2.881v-0.16c0-0.641-0.176-1.793-1.761-1.793c-0.72,0-1.473,0.225-2.017,0.576l-0.32-0.929
		c0.641-0.416,1.569-0.688,2.545-0.688c2.369,0,2.945,1.616,2.945,3.169v2.897c0,0.672,0.032,1.328,0.128,1.856H433.507z
		 M433.299,363.047c-1.536-0.032-3.281,0.239-3.281,1.744c0,0.912,0.608,1.345,1.328,1.345c1.009,0,1.649-0.641,1.873-1.297
		c0.048-0.144,0.08-0.304,0.08-0.448V363.047z"/>
	<path fill="#FFFFFF" d="M381.947,386.2l-3.521-10.788h1.504l1.681,5.313c0.465,1.457,0.864,2.77,1.152,4.034h0.032
		c0.305-1.249,0.753-2.609,1.232-4.018l1.825-5.33h1.488l-3.857,10.788H381.947z"/>
	<path fill="#FFFFFF" d="M389.771,376.276c0.016,0.48-0.336,0.864-0.896,0.864c-0.496,0-0.849-0.384-0.849-0.864
		c0-0.496,0.368-0.881,0.881-0.881C389.436,375.396,389.771,375.78,389.771,376.276z M388.203,386.2v-7.747h1.408v7.747H388.203z"/>
	<path fill="#FFFFFF" d="M391.755,384.76c0.416,0.271,1.152,0.561,1.856,0.561c1.024,0,1.505-0.513,1.505-1.153
		c0-0.672-0.4-1.04-1.44-1.424c-1.393-0.496-2.049-1.265-2.049-2.193c0-1.248,1.008-2.272,2.673-2.272
		c0.784,0,1.473,0.224,1.904,0.479l-0.352,1.024c-0.305-0.191-0.864-0.448-1.585-0.448c-0.832,0-1.296,0.48-1.296,1.057
		c0,0.641,0.464,0.929,1.472,1.313c1.345,0.513,2.033,1.185,2.033,2.337c0,1.36-1.057,2.321-2.897,2.321
		c-0.848,0-1.632-0.208-2.177-0.528L391.755,384.76z"/>
	<path fill="#FFFFFF" d="M404.766,384.087c0,0.801,0.016,1.505,0.063,2.113h-1.248l-0.08-1.265h-0.032
		c-0.368,0.624-1.185,1.44-2.561,1.44c-1.217,0-2.674-0.672-2.674-3.394v-4.529h1.409v4.29c0,1.473,0.448,2.465,1.729,2.465
		c0.944,0,1.601-0.656,1.856-1.28c0.08-0.209,0.128-0.465,0.128-0.721v-4.754h1.409V384.087z"/>
	<path fill="#FFFFFF" d="M411.388,386.2l-0.112-0.977h-0.048c-0.432,0.608-1.265,1.152-2.369,1.152
		c-1.568,0-2.368-1.104-2.368-2.225c0-1.873,1.664-2.897,4.657-2.881v-0.16c0-0.641-0.176-1.793-1.761-1.793
		c-0.72,0-1.473,0.224-2.017,0.576l-0.32-0.929c0.641-0.416,1.569-0.688,2.545-0.688c2.369,0,2.945,1.616,2.945,3.169v2.897
		c0,0.672,0.032,1.328,0.128,1.856H411.388z M411.18,382.247c-1.536-0.032-3.281,0.239-3.281,1.744c0,0.912,0.608,1.345,1.328,1.345
		c1.009,0,1.649-0.641,1.873-1.297c0.048-0.144,0.08-0.304,0.08-0.448V382.247z"/>
	<path fill="#FFFFFF" d="M414.812,374.836h1.408V386.2h-1.408V374.836z"/>
	<path fill="#FFFFFF" d="M420.155,376.276c0.016,0.48-0.336,0.864-0.896,0.864c-0.496,0-0.849-0.384-0.849-0.864
		c0-0.496,0.368-0.881,0.881-0.881C419.819,375.396,420.155,375.78,420.155,376.276z M418.587,386.2v-7.747h1.408v7.747H418.587z"/>
	<path fill="#FFFFFF" d="M422.139,384.76c0.416,0.271,1.152,0.561,1.856,0.561c1.024,0,1.505-0.513,1.505-1.153
		c0-0.672-0.4-1.04-1.44-1.424c-1.393-0.496-2.049-1.265-2.049-2.193c0-1.248,1.008-2.272,2.673-2.272
		c0.784,0,1.473,0.224,1.904,0.479l-0.352,1.024c-0.305-0.191-0.864-0.448-1.585-0.448c-0.832,0-1.296,0.48-1.296,1.057
		c0,0.641,0.464,0.929,1.472,1.313c1.345,0.513,2.033,1.185,2.033,2.337c0,1.36-1.057,2.321-2.897,2.321
		c-0.848,0-1.632-0.208-2.177-0.528L422.139,384.76z"/>
	<path fill="#FFFFFF" d="M432.956,386.2l-0.112-0.977h-0.048c-0.432,0.608-1.265,1.152-2.369,1.152
		c-1.568,0-2.368-1.104-2.368-2.225c0-1.873,1.664-2.897,4.657-2.881v-0.16c0-0.641-0.176-1.793-1.761-1.793
		c-0.72,0-1.473,0.224-2.017,0.576l-0.32-0.929c0.641-0.416,1.569-0.688,2.545-0.688c2.369,0,2.945,1.616,2.945,3.169v2.897
		c0,0.672,0.032,1.328,0.128,1.856H432.956z M432.748,382.247c-1.536-0.032-3.281,0.239-3.281,1.744
		c0,0.912,0.608,1.345,1.328,1.345c1.009,0,1.649-0.641,1.873-1.297c0.048-0.144,0.08-0.304,0.08-0.448V382.247z"/>
	<path fill="#FFFFFF" d="M438.011,376.229v2.225h2.017v1.072h-2.017v4.178c0,0.961,0.272,1.505,1.057,1.505
		c0.368,0,0.64-0.048,0.816-0.097l0.063,1.057c-0.271,0.112-0.704,0.192-1.248,0.192c-0.656,0-1.185-0.208-1.521-0.593
		c-0.4-0.416-0.545-1.104-0.545-2.017v-4.226h-1.2v-1.072h1.2v-1.856L438.011,376.229z"/>
	<path fill="#FFFFFF" d="M443.179,376.276c0.016,0.48-0.336,0.864-0.896,0.864c-0.496,0-0.849-0.384-0.849-0.864
		c0-0.496,0.368-0.881,0.881-0.881C442.843,375.396,443.179,375.78,443.179,376.276z M441.61,386.2v-7.747h1.408v7.747H441.61z"/>
	<path fill="#FFFFFF" d="M452.365,382.263c0,2.865-1.985,4.113-3.858,4.113c-2.097,0-3.713-1.536-3.713-3.985
		c0-2.593,1.696-4.113,3.842-4.113C450.86,378.277,452.365,379.894,452.365,382.263z M446.219,382.343
		c0,1.696,0.976,2.978,2.353,2.978c1.345,0,2.353-1.265,2.353-3.01c0-1.313-0.656-2.978-2.32-2.978
		C446.938,379.333,446.219,380.87,446.219,382.343z"/>
	<path fill="#FFFFFF" d="M454.139,380.55c0-0.8-0.017-1.456-0.064-2.097h1.248l0.08,1.28h0.032c0.385-0.736,1.28-1.456,2.562-1.456
		c1.072,0,2.736,0.64,2.736,3.297v4.626h-1.408v-4.466c0-1.248-0.464-2.289-1.793-2.289c-0.928,0-1.648,0.656-1.889,1.44
		c-0.063,0.177-0.096,0.416-0.096,0.656v4.658h-1.408V380.55z"/>
</g>
</svg>
